<svg width="22" height="22" viewBox="0 0 22 22" fill="none" xmlns="http://www.w3.org/2000/svg">
<path d="M11.0035 0C4.93724 0 0 4.93178 0 11C0 17.0682 4.93702 22 11.0035 22C17.07 22 22 17.0682 22 11C22 4.93178 17.0698 0 11.0035 0ZM11.0035 1.37029C16.3273 1.37029 20.6241 5.67531 20.6241 11.0001C20.6241 16.3256 16.3273 20.63 11.0035 20.63C5.67974 20.63 1.37676 16.325 1.37676 11.0001C1.37676 5.67465 5.6804 1.37029 11.0035 1.37029ZM11.0035 2.91853C6.55028 2.91853 2.92292 6.54529 2.92292 11.0002C2.92292 15.4551 6.55028 19.0818 11.0035 19.0818C15.4568 19.0818 19.0773 15.4551 19.0773 11.0002C19.0773 6.54529 15.4568 2.91853 11.0035 2.91853ZM11.0035 4.29397C14.7134 4.29397 17.7005 7.28891 17.7005 11.0002C17.7005 14.7114 14.7134 17.7064 11.0035 17.7064C7.29366 17.7064 4.29946 14.7114 4.29946 11.0002C4.29946 7.28891 7.29344 4.29397 11.0035 4.29397ZM10.6735 7.16767C10.4905 7.16853 10.316 7.2416 10.188 7.37141C10.0591 7.50121 9.98774 7.67572 9.9886 7.85882V12.2552V12.2543C9.98946 12.6326 10.2954 12.9377 10.6735 12.9395H13.6367C14.014 12.9377 14.3199 12.6326 14.3216 12.2543C14.3216 12.0721 14.2503 11.8967 14.1223 11.7678C13.9934 11.6379 13.8189 11.5649 13.6367 11.564H11.3637V7.85803V7.85889C11.3637 7.67492 11.2915 7.49956 11.1617 7.36974C11.0328 7.23993 10.8566 7.16767 10.6735 7.16767Z" fill="white"/>
</svg>
