<svg width="570" height="570" viewBox="0 0 570 570" fill="none" xmlns="http://www.w3.org/2000/svg">
<circle cx="285" cy="285" r="285" fill="#9AE5F5" fill-opacity="0.26"/>
<circle cx="312.54" cy="241.725" r="233.857" fill="white"/>
<circle cx="312.54" cy="241.725" r="233.415" stroke="#9AE5F5" stroke-opacity="0.4" stroke-width="0.884969"/>
<circle cx="346.634" cy="205.882" r="184.026" fill="#9AE5F5" fill-opacity="0.26"/>
<circle cx="374.172" cy="172.224" r="139.003" fill="white"/>
<circle cx="374.172" cy="172.224" r="138.561" stroke="#9AE5F5" stroke-opacity="0.4" stroke-width="0.884969"/>
<circle cx="403.896" cy="139.877" r="95.2914" fill="#9AE5F5" fill-opacity="0.26"/>
<circle cx="432.746" cy="115.399" r="56.8252" fill="white"/>
<circle cx="432.746" cy="115.399" r="56.3827" stroke="#9AE5F5" stroke-opacity="0.4" stroke-width="0.884969"/>
<rect x="457.223" y="59.4479" width="22.7301" height="22.7301" rx="11.365" fill="#E6F6FF"/>
<circle cx="468.588" cy="70.8129" r="7.07975" fill="#00A2FF"/>
<path d="M397.878 121.405V111.493H401.093C402.273 111.493 403.235 111.696 403.981 112.102C404.736 112.508 405.293 113.084 405.652 113.83C406.011 114.575 406.19 115.453 406.19 116.463C406.19 117.502 406.001 118.389 405.624 119.125C405.246 119.862 404.68 120.428 403.924 120.824C403.169 121.211 402.225 121.405 401.093 121.405H397.878ZM399.379 120.131H401.036C401.933 120.131 402.641 119.984 403.16 119.692C403.688 119.399 404.066 118.979 404.293 118.431C404.529 117.884 404.647 117.228 404.647 116.463C404.647 115.198 404.354 114.264 403.769 113.66C403.183 113.056 402.273 112.753 401.036 112.753H399.379V120.131ZM408.331 113.15C408.057 113.15 407.821 113.056 407.623 112.867C407.434 112.668 407.34 112.428 407.34 112.145C407.34 111.871 407.434 111.64 407.623 111.451C407.821 111.262 408.057 111.168 408.331 111.168C408.614 111.168 408.85 111.262 409.039 111.451C409.237 111.64 409.336 111.871 409.336 112.145C409.336 112.428 409.237 112.668 409.039 112.867C408.85 113.056 408.614 113.15 408.331 113.15ZM407.58 121.405V114.382H409.081V121.405H407.58ZM413.434 121.575C412.886 121.575 412.386 121.48 411.933 121.292C411.48 121.093 411.112 120.815 410.829 120.456C410.545 120.098 410.38 119.677 410.333 119.196H411.848C411.914 119.536 412.089 119.814 412.372 120.031C412.655 120.249 413.009 120.357 413.434 120.357C413.812 120.357 414.118 120.277 414.354 120.116C414.59 119.946 414.708 119.725 414.708 119.451C414.708 119.215 414.628 119.031 414.468 118.899C414.317 118.767 414.118 118.663 413.873 118.587C413.637 118.512 413.377 118.446 413.094 118.389C412.66 118.285 412.249 118.158 411.862 118.007C411.485 117.856 411.178 117.648 410.942 117.384C410.706 117.119 410.588 116.765 410.588 116.322C410.588 115.887 410.701 115.515 410.928 115.203C411.164 114.882 411.485 114.637 411.891 114.467C412.296 114.297 412.754 114.212 413.264 114.212C414.029 114.212 414.666 114.405 415.176 114.792C415.685 115.17 415.968 115.727 416.025 116.463H414.581C414.543 116.133 414.401 115.878 414.156 115.699C413.92 115.52 413.599 115.431 413.192 115.431C412.814 115.431 412.513 115.511 412.286 115.671C412.06 115.822 411.947 116.052 411.947 116.364C411.947 116.6 412.017 116.788 412.159 116.929C412.31 117.061 412.508 117.165 412.754 117.241C413.008 117.316 413.283 117.396 413.576 117.48C414.001 117.584 414.407 117.711 414.793 117.862C415.189 118.013 415.495 118.226 415.712 118.5C415.939 118.765 416.052 119.128 416.052 119.589C416.052 120.005 415.939 120.376 415.712 120.706C415.485 121.027 415.165 121.282 414.75 121.471C414.344 121.651 413.872 121.741 413.334 121.741L413.434 121.575Z" fill="#00A2FF"/>
<path d="M270.243 234.181V224.269H273.457C274.637 224.269 275.6 224.472 276.345 224.878C277.101 225.284 277.657 225.86 278.016 226.606C278.375 227.351 278.554 228.229 278.554 229.239C278.554 230.278 278.365 231.165 277.988 231.901C277.61 232.638 277.044 233.204 276.289 233.6C275.534 233.987 274.59 234.181 273.457 234.181H270.243ZM271.744 232.907H273.4C274.297 232.907 275.005 232.76 275.524 232.468C276.053 232.175 276.43 231.755 276.657 231.207C276.893 230.66 277.011 230.004 277.011 229.239C277.011 227.974 276.718 227.04 276.133 226.436C275.548 225.832 274.637 225.529 273.4 225.529H271.744V232.907ZM283.102 234.351C282.413 234.351 281.804 234.195 281.276 233.884C280.747 233.572 280.332 233.138 280.03 232.581C279.737 232.024 279.591 231.387 279.591 230.669C279.591 229.924 279.737 229.277 280.03 228.729C280.322 228.182 280.733 227.757 281.261 227.455C281.8 227.144 282.418 226.988 283.116 226.988C283.796 226.988 284.391 227.139 284.9 227.441C285.41 227.734 285.807 228.135 286.09 228.645C286.383 229.154 286.529 229.735 286.529 230.386C286.529 230.518 286.524 230.632 286.515 230.726C286.515 230.82 286.505 230.934 286.486 231.066H281.092C281.12 231.462 281.219 231.816 281.389 232.128C281.559 232.43 281.79 232.671 282.083 232.85C282.375 233.02 282.71 233.105 283.088 233.105C283.494 233.105 283.839 233.015 284.122 232.836C284.414 232.647 284.631 232.383 284.773 232.043H286.331C286.208 232.468 286 232.855 285.708 233.204C285.424 233.553 285.066 233.832 284.631 234.039C284.197 234.247 283.687 234.351 283.102 234.351ZM281.106 230.004H285C284.981 229.456 284.787 229.027 284.419 228.715C284.051 228.394 283.603 228.234 283.074 228.234C282.602 228.234 282.172 228.38 281.785 228.673C281.398 228.965 281.172 229.409 281.106 230.004ZM290.43 234.351C289.883 234.351 289.383 234.256 288.93 234.068C288.476 233.869 288.108 233.591 287.825 233.232C287.542 232.874 287.377 232.453 287.33 231.972H288.845C288.911 232.312 289.085 232.59 289.368 232.807C289.652 233.025 290.006 233.133 290.43 233.133C290.808 233.133 291.114 233.053 291.35 232.892C291.586 232.722 291.704 232.501 291.704 232.227C291.704 231.991 291.624 231.807 291.464 231.675C291.313 231.543 291.114 231.439 290.869 231.364C290.633 231.288 290.373 231.222 290.09 231.165C289.656 231.061 289.244 230.934 288.857 230.783C288.48 230.632 288.173 230.424 287.937 230.16C287.701 229.895 287.583 229.541 287.583 229.098C287.583 228.663 287.696 228.291 287.923 227.979C288.159 227.658 288.48 227.413 288.886 227.243C289.292 227.073 289.75 226.988 290.26 226.988C291.024 226.988 291.662 227.181 292.171 227.568C292.681 227.946 292.964 228.503 293.021 229.239H291.577C291.539 228.909 291.397 228.654 291.152 228.475C290.916 228.286 290.595 228.192 290.188 228.192C289.81 228.192 289.509 228.272 289.282 228.433C289.056 228.584 288.943 228.814 288.943 229.126C288.943 229.362 289.013 229.55 289.154 229.691C289.306 229.823 289.504 229.927 289.75 230.003C290.004 230.078 290.279 230.158 290.571 230.242C291.006 230.346 291.412 230.473 291.79 230.624C292.176 230.775 292.483 230.987 292.71 231.261C292.937 231.525 293.05 231.879 293.05 232.322C293.05 232.738 292.937 233.109 292.71 233.439C292.492 233.76 292.171 234.015 291.747 234.205C291.332 234.385 290.869 234.475 290.359 234.475L290.43 234.351Z" fill="#00A2FF"/>
<path d="M261.408 333.999L260.417 333.051C260.001 333.353 259.534 333.589 259.015 333.759C258.505 333.928 257.958 334.013 257.372 334.013C256.664 334.013 256.008 333.891 255.404 333.645C254.8 333.39 254.271 333.036 253.818 332.583C253.375 332.13 253.025 331.592 252.77 330.969C252.525 330.337 252.402 329.643 252.402 328.888C252.402 328.123 252.525 327.429 252.77 326.806C253.025 326.174 253.375 325.631 253.818 325.178C254.271 324.725 254.8 324.376 255.404 324.13C256.008 323.885 256.664 323.762 257.372 323.762C258.09 323.762 258.75 323.885 259.355 324.13C259.959 324.366 260.483 324.711 260.926 325.164C261.379 325.617 261.729 326.16 261.974 326.792C262.229 327.415 262.356 328.114 262.356 328.888C262.356 329.52 262.271 330.105 262.102 330.643C261.932 331.182 261.686 331.658 261.365 332.074L262.356 333.008L261.408 333.999ZM253.946 328.888C253.946 329.671 254.097 330.346 254.399 330.912C254.701 331.479 255.112 331.913 255.631 332.215C256.15 332.517 256.73 332.668 257.372 332.668C257.778 332.668 258.151 332.621 258.491 332.527C258.84 332.423 259.152 332.272 259.425 332.074L257.882 330.601L258.845 329.61L260.317 331.054C260.478 330.771 260.601 330.45 260.686 330.091C260.771 329.733 260.813 329.331 260.813 328.888C260.813 328.085 260.662 327.401 260.36 326.835C260.058 326.268 259.647 325.839 259.128 325.546C258.609 325.253 258.024 325.107 257.372 325.107C256.73 325.107 256.15 325.258 255.631 325.56C255.112 325.853 254.701 326.282 254.399 326.849C254.097 327.415 253.946 328.095 253.946 328.888ZM262.998 333.844L266.637 323.932H268.28L271.919 333.844H270.319L269.484 331.436H265.42L264.57 333.844H262.998ZM265.859 330.233H269.045L267.445 325.716L265.859 330.233ZM279.113 334.013C278.65 334.013 278.225 333.943 277.838 333.801C277.451 333.65 277.116 333.442 276.833 333.178C276.55 332.914 276.328 332.607 276.167 332.258C276.016 331.899 275.941 331.507 275.941 331.082C275.941 330.714 276.007 330.37 276.139 330.049C276.271 329.718 276.446 329.416 276.663 329.143C276.89 328.869 277.144 328.637 277.427 328.445C277.719 328.253 278.02 328.109 278.331 328.014C278.243 327.749 278.199 327.466 278.199 327.164C278.199 326.655 278.35 326.273 278.652 326.019C278.954 325.765 279.35 325.638 279.839 325.638C280.31 325.638 280.692 325.765 280.985 326.019C281.278 326.273 281.424 326.631 281.424 327.094C281.424 327.406 281.353 327.68 281.21 327.917C281.067 328.153 280.882 328.346 280.653 328.496L282.054 330.205C282.176 329.96 282.27 329.696 282.336 329.412C282.412 329.128 282.449 328.82 282.449 328.488H283.881C283.881 329.01 283.82 329.485 283.699 329.912C283.577 330.34 283.399 330.729 283.163 331.082L284.859 333.114L283.582 333.844L282.351 332.287C281.999 332.663 281.609 332.947 281.182 333.136C280.755 333.325 280.266 333.42 279.717 333.42L279.113 334.013ZM279.717 332.203C280.095 332.203 280.45 332.137 280.78 332.004C281.111 331.872 281.408 331.682 281.672 331.436L279.915 329.27C279.773 329.375 279.626 329.509 279.474 329.669C279.332 329.82 279.218 330.004 279.132 330.219C279.046 330.435 279.004 330.681 279.004 330.959C279.004 331.436 279.146 331.814 279.432 332.09C279.717 332.367 280.155 332.506 280.744 332.506L279.717 332.203ZM279.321 327.094C279.321 327.154 279.331 327.216 279.35 327.279C279.369 327.343 279.398 327.401 279.439 327.452L280.095 326.642C280.008 326.6 279.92 326.574 279.83 326.56C279.74 326.546 279.654 326.541 279.57 326.541C279.408 326.541 279.28 326.584 279.185 326.67C279.089 326.747 279.042 326.858 279.042 327.003L279.321 327.094Z" fill="#00A2FF"/>
<path d="M161.61 521.974C160.931 521.974 160.312 521.856 159.755 521.62C159.208 521.374 158.774 521.02 158.453 520.558C158.132 520.086 157.966 519.505 157.957 518.816H159.529C159.538 519.382 159.732 519.84 160.109 520.19C160.487 520.529 160.987 520.699 161.61 520.699C162.148 520.699 162.587 520.572 162.927 520.317C163.276 520.053 163.451 519.689 163.451 519.227C163.451 518.943 163.404 518.712 163.309 518.533C163.215 518.344 163.059 518.179 162.842 518.037C162.634 517.896 162.356 517.764 162.007 517.641C161.657 517.509 161.228 517.358 160.718 517.188C160.152 516.989 159.684 516.768 159.316 516.522C158.958 516.267 158.689 515.975 158.509 515.644C158.33 515.304 158.24 514.922 158.24 514.497C158.24 513.893 158.382 513.388 158.665 512.982C158.958 512.567 159.349 512.255 159.84 512.048C160.331 511.831 160.874 511.722 161.469 511.722C162.073 511.722 162.615 511.831 163.097 512.048C163.588 512.255 163.98 512.572 164.272 512.996C164.574 513.412 164.73 513.922 164.739 514.526H163.139C163.139 514.091 162.979 513.728 162.658 513.435C162.346 513.143 161.931 512.996 161.412 512.996C160.968 512.987 160.591 513.1 160.279 513.336C159.968 513.572 159.812 513.917 159.812 514.37C159.812 514.691 159.902 514.951 160.081 515.149C160.26 515.347 160.529 515.522 160.888 515.673C161.247 515.824 161.695 515.994 162.233 516.182C162.582 516.296 162.922 516.428 163.253 516.579C163.592 516.73 163.895 516.919 164.159 517.145C164.423 517.362 164.631 517.631 164.782 517.952C164.942 518.273 165.023 518.665 165.023 519.128C165.023 519.732 164.867 520.246 164.555 520.671C164.253 521.086 163.843 521.407 163.323 521.634C162.814 521.86 162.243 521.974 161.61 521.974ZM168.959 521.974C168.383 521.974 167.887 521.856 167.472 521.62C167.057 521.374 166.736 521.025 166.509 520.572C166.283 520.109 166.169 519.557 166.169 518.915V514.781H167.656V518.717C167.656 519.34 167.798 519.826 168.081 520.175C168.373 520.525 168.798 520.699 169.355 520.699C169.931 520.699 170.384 520.51 170.715 520.133C171.045 519.746 171.21 519.198 171.21 518.49V514.781H172.683V521.804H171.239L171.196 520.756C170.96 521.115 170.649 521.393 170.263 521.591C169.876 521.789 169.441 521.888 168.959 521.888V521.974ZM177.695 521.974C177.109 521.974 176.58 521.856 176.108 521.62C175.636 521.374 175.258 521.029 174.975 520.586C174.692 520.133 174.55 519.595 174.55 518.972C174.55 518.321 174.692 517.764 174.975 517.302C175.268 516.839 175.655 516.489 176.137 516.253C176.619 516.007 177.147 515.884 177.723 515.884C178.29 515.884 178.804 516.007 179.267 516.253C179.73 516.489 180.097 516.839 180.37 517.302C180.652 517.755 180.794 518.302 180.794 518.943C180.794 519.057 180.789 519.17 180.78 519.283C180.78 519.387 180.77 519.491 180.751 519.595H176.051C176.08 520.052 176.235 520.424 176.518 520.713C176.81 521.001 177.181 521.145 177.638 521.145C177.987 521.145 178.28 521.072 178.516 520.928C178.761 520.774 178.931 520.557 179.025 520.276H180.597C180.503 520.699 180.313 521.067 180.03 521.379C179.747 521.69 179.398 521.936 178.983 522.115C178.568 522.295 178.147 522.384 177.723 522.384L177.695 521.974ZM176.066 518.548H179.295C179.276 518.128 179.135 517.793 178.871 517.542C178.606 517.292 178.252 517.166 177.809 517.166C177.394 517.166 177.045 517.292 176.762 517.542C176.488 517.793 176.313 518.128 176.237 518.548H176.066ZM184.643 521.974C184.095 521.974 183.595 521.879 183.142 521.691C182.689 521.493 182.321 521.214 182.038 520.856C181.755 520.497 181.59 520.076 181.543 519.595H183.058C183.124 519.935 183.299 520.214 183.582 520.431C183.865 520.648 184.219 520.756 184.643 520.756C185.021 520.756 185.327 520.676 185.563 520.515C185.799 520.345 185.917 520.123 185.917 519.85C185.917 519.614 185.837 519.43 185.677 519.297C185.526 519.165 185.327 519.061 185.082 518.986C184.846 518.91 184.586 518.844 184.303 518.787C183.869 518.683 183.458 518.557 183.071 518.405C182.694 518.254 182.387 518.047 182.151 517.783C181.915 517.518 181.797 517.164 181.797 516.721C181.797 516.286 181.91 515.913 182.137 515.602C182.373 515.281 182.694 515.035 183.1 514.865C183.506 514.695 183.964 514.61 184.474 514.61C185.238 514.61 185.875 514.803 186.385 515.19C186.895 515.568 187.178 516.125 187.235 516.862H185.791C185.753 516.532 185.611 516.276 185.366 516.097C185.13 515.909 184.808 515.815 184.401 515.815C184.023 515.815 183.722 515.895 183.495 516.056C183.269 516.206 183.156 516.437 183.156 516.749C183.156 516.985 183.226 517.173 183.367 517.314C183.519 517.446 183.717 517.55 183.964 517.626C184.217 517.701 184.492 517.781 184.786 517.865C185.22 517.969 185.63 518.095 186.017 518.246C186.404 518.397 186.71 518.609 186.937 518.882C187.164 519.147 187.277 519.501 187.277 519.943C187.277 520.359 187.164 520.73 186.937 521.058C186.719 521.379 186.399 521.634 185.975 521.824C185.56 522.004 185.088 522.094 184.557 522.094L184.643 521.974Z" fill="#00A2FF"/>
<path d="M203.8 417.77V407.858H207.014C208.194 407.858 209.157 408.061 209.903 408.467C210.658 408.873 211.215 409.449 211.574 410.195C211.933 410.940 212.112 411.818 212.112 412.828C212.112 413.867 211.923 414.754 211.546 415.49C211.168 416.227 210.602 416.793 209.846 417.189C209.091 417.577 208.147 417.77 207.014 417.77H203.8ZM205.301 416.496H206.958C207.855 416.496 208.563 416.349 209.082 416.057C209.61 415.764 209.988 415.344 210.215 414.797C210.45 414.249 210.568 413.593 210.568 412.828C210.568 411.563 210.276 410.629 209.691 410.025C209.105 409.421 208.194 409.119 206.958 409.119H205.301V416.496ZM216.66 417.94C215.971 417.94 215.362 417.784 214.833 417.473C214.305 417.161 213.889 416.727 213.587 416.17C213.295 415.613 213.148 414.976 213.148 414.258C213.148 413.513 213.295 412.866 213.587 412.319C213.88 411.771 214.29 411.346 214.819 411.044C215.357 410.733 215.975 410.577 216.674 410.577C217.354 410.577 217.948 410.728 218.458 411.03C218.968 411.323 219.364 411.724 219.648 412.234C219.94 412.743 220.086 413.324 220.086 413.975C220.086 414.107 220.082 414.221 220.072 414.315C220.072 414.409 220.063 414.523 220.044 414.655H214.649C214.678 415.051 214.777 415.405 214.947 415.717C215.116 416.019 215.348 416.260 215.64 416.439C215.933 416.609 216.268 416.694 216.646 416.694C217.052 416.694 217.396 416.604 217.679 416.425C217.972 416.236 218.189 415.972 218.331 415.632H219.888C219.766 416.057 219.558 416.444 219.265 416.793C218.982 417.142 218.623 417.421 218.189 417.628C217.755 417.836 217.245 417.94 216.66 417.94ZM214.663 413.593H218.557C218.538 413.045 218.345 412.616 217.977 412.304C217.609 411.984 217.160 411.823 216.632 411.823C216.16 411.823 215.73 411.969 215.343 412.262C214.956 412.555 214.729 412.998 214.663 413.593ZM221.199 420.885V410.747H222.643L222.7 411.809C222.945 411.45 223.275 411.158 223.691 410.931C224.106 410.695 224.597 410.577 225.163 410.577C225.862 410.577 226.461 410.742 226.962 411.073C227.462 411.394 227.849 411.832 228.123 412.389C228.396 412.945 228.533 413.6 228.533 414.355C228.533 415.11 228.396 415.765 228.123 416.321C227.849 416.878 227.462 417.316 226.962 417.638C226.461 417.959 225.862 418.119 225.163 418.119C224.606 418.119 224.125 418.01 223.719 417.793C223.323 417.577 223.001 417.285 222.757 416.916V420.885H221.199ZM224.989 416.863C225.432 416.863 225.824 416.769 226.163 416.581C226.503 416.384 226.771 416.11 226.969 415.761C227.176 415.412 227.279 414.996 227.279 414.512C227.279 414.021 227.176 413.6 226.969 413.251C226.771 412.902 226.503 412.635 226.163 412.448C225.824 412.252 225.432 412.153 224.989 412.153C224.554 412.153 224.167 412.252 223.828 412.448C223.488 412.635 223.22 412.902 223.023 413.251C222.825 413.6 222.726 414.021 222.726 414.512C222.726 414.996 222.825 415.412 223.023 415.761C223.22 416.11 223.488 416.384 223.828 416.581C224.167 416.769 224.554 416.863 224.989 416.863ZM232.076 417.94C231.388 417.94 230.778 417.784 230.25 417.473C229.721 417.161 229.306 416.727 229.004 416.17C228.711 415.613 228.565 414.976 228.565 414.258C228.565 413.513 228.711 412.866 229.004 412.319C229.296 411.771 229.707 411.346 230.235 411.044C230.773 410.733 231.392 410.577 232.09 410.577C232.77 410.577 233.365 410.728 233.874 411.03C234.384 411.323 234.781 411.724 235.064 412.234C235.357 412.743 235.503 413.324 235.503 413.975C235.503 414.107 235.498 414.221 235.489 414.315C235.489 414.409 235.479 414.523 235.46 414.655H230.066C230.094 415.051 230.193 415.405 230.363 415.717C230.533 416.019 230.764 416.260 231.057 416.439C231.349 416.609 231.684 416.694 232.062 416.694C232.468 416.694 232.813 416.604 233.096 416.425C233.388 416.236 233.605 415.972 233.747 415.632H235.305C235.183 416.057 234.975 416.444 234.682 416.793C234.398 417.142 234.04 417.421 233.605 417.628C233.171 417.836 232.661 417.94 232.076 417.94ZM230.079 413.593H233.973C233.955 413.045 233.761 412.616 233.393 412.304C233.025 411.984 232.577 411.823 232.048 411.823C231.576 411.823 231.146 411.969 230.759 412.262C230.372 412.555 230.146 412.998 230.079 413.593ZM236.616 417.77V410.747H238.06L238.117 411.809C238.362 411.45 238.691 411.158 239.107 410.931C239.522 410.695 240.013 410.577 240.579 410.577C241.278 410.577 241.877 410.742 242.377 411.073C242.878 411.394 243.265 411.832 243.539 412.389C243.812 412.945 243.948 413.6 243.948 414.355C243.948 415.11 243.812 415.765 243.539 416.321C243.265 416.878 242.878 417.316 242.377 417.638C241.877 417.959 241.278 418.119 240.579 418.119C240.023 418.119 239.541 418.01 239.135 417.793C238.739 417.577 238.417 417.285 238.173 416.916V417.77H236.616ZM240.406 416.863C240.848 416.863 241.24 416.769 241.58 416.581C241.919 416.384 242.187 416.11 242.385 415.761C242.592 415.412 242.695 414.996 242.695 414.512C242.695 414.021 242.592 413.6 242.385 413.251C242.187 412.902 241.919 412.635 241.58 412.448C241.24 412.252 240.848 412.153 240.406 412.153C239.971 412.153 239.584 412.252 239.244 412.448C238.905 412.635 238.636 412.902 238.439 413.251C238.241 413.6 238.142 414.021 238.142 414.512C238.142 414.996 238.241 415.412 238.439 415.761C238.636 416.11 238.905 416.384 239.244 416.581C239.584 416.769 239.971 416.863 240.406 416.863Z" fill="#00A2FF"/>
<path d="M356.032 191.367C355.438 191.367 354.897 191.263 354.409 191.057C353.93 190.842 353.55 190.532 353.269 190.128C352.989 189.715 352.844 189.207 352.836 188.604H354.211C354.219 189.099 354.389 189.5 354.719 189.805C355.049 190.103 355.487 190.252 356.032 190.252C356.503 190.252 356.887 190.14 357.185 189.917C357.49 189.686 357.643 189.368 357.643 188.963C357.643 188.715 357.602 188.513 357.519 188.356C357.436 188.191 357.3 188.046 357.11 187.922C356.928 187.798 356.685 187.683 356.379 187.575C356.074 187.460 355.698 187.328 355.252 187.179C354.756 187.005 354.347 186.811 354.025 186.597C353.711 186.374 353.476 186.118 353.319 185.828C353.162 185.531 353.084 185.197 353.084 184.825C353.084 184.296 353.207 183.854 353.455 183.499C353.711 183.136 354.054 182.863 354.484 182.681C354.913 182.492 355.388 182.397 355.908 182.397C356.437 182.397 356.912 182.492 357.333 182.681C357.763 182.863 358.105 183.140 358.362 183.512C358.626 183.875 358.762 184.321 358.77 184.850H357.37C357.37 184.470 357.23 184.152 356.949 183.896C356.677 183.640 356.313 183.512 355.859 183.512C355.471 183.503 355.140 183.602 354.868 183.809C354.595 184.015 354.459 184.317 354.459 184.713C354.459 184.994 354.537 185.221 354.694 185.395C354.851 185.568 355.087 185.721 355.400 185.853C355.714 185.985 356.107 186.134 356.577 186.299C356.883 186.398 357.180 186.514 357.469 186.646C357.767 186.778 358.031 186.943 358.262 187.142C358.494 187.332 358.675 187.567 358.808 187.848C358.948 188.129 359.018 188.472 359.018 188.876C359.018 189.405 358.882 189.855 358.609 190.227C358.345 190.590 357.986 190.871 357.531 191.069C357.085 191.267 356.586 191.367 356.032 191.367ZM362.561 191.218C361.950 191.218 361.479 191.069 361.149 190.772C360.819 190.475 360.653 189.987 360.653 189.310V186.175H359.724V185.073H360.653V183.586H361.967V185.073H363.528V186.175H361.967V189.310C361.967 189.624 362.037 189.834 362.177 189.942C362.318 190.049 362.537 190.103 362.834 190.103H363.528V191.218H362.561ZM364.583 191.218V185.073H365.840L365.898 186.010C366.060 185.71 366.291 185.463 366.588 185.27C366.886 185.078 367.238 184.981 367.643 184.981C367.717 184.981 367.791 184.985 367.866 184.993C367.948 185.002 368.023 185.015 368.089 185.032V186.465C368.023 186.448 367.94 186.432 367.841 186.415C367.742 186.398 367.643 186.39 367.544 186.39C367.205 186.39 366.898 186.465 366.621 186.613C366.345 186.753 366.126 186.959 365.965 187.23C365.804 187.501 365.723 187.823 365.723 188.194V191.218H364.583ZM371.839 191.367C371.245 191.367 370.705 191.263 370.216 191.057C369.737 190.842 369.357 190.532 369.077 190.128C368.796 189.715 368.651 189.207 368.643 188.604H370.018C370.027 189.099 370.196 189.5 370.526 189.805C370.856 190.103 371.294 190.252 371.839 190.252C372.310 190.252 372.694 190.140 372.992 189.917C373.297 189.686 373.450 189.368 373.450 188.963C373.450 188.715 373.409 188.513 373.326 188.356C373.243 188.191 373.107 188.046 372.917 187.922C372.736 187.798 372.493 187.683 372.186 187.575C371.881 187.460 371.505 187.328 371.059 187.179C370.563 187.005 370.154 186.811 369.832 186.597C369.518 186.374 369.283 186.118 369.126 185.828C368.969 185.531 368.891 185.197 368.891 184.825C368.891 184.296 369.014 183.854 369.262 183.499C369.518 183.136 369.861 182.863 370.291 182.681C370.720 182.492 371.195 182.397 371.715 182.397C372.244 182.397 372.719 182.492 373.140 182.681C373.570 182.863 373.912 183.140 374.169 183.512C374.433 183.875 374.569 184.321 374.577 184.850H373.177C373.177 184.470 373.037 184.152 372.756 183.896C372.484 183.640 372.120 183.512 371.666 183.512C371.278 183.503 370.947 183.602 370.675 183.809C370.402 184.015 370.266 184.317 370.266 184.713C370.266 184.994 370.344 185.221 370.501 185.395C370.658 185.568 370.894 185.721 371.207 185.853C371.521 185.985 371.914 186.134 372.384 186.299C372.690 186.398 372.987 186.514 373.276 186.646C373.574 186.778 373.838 186.943 374.069 187.142C374.301 187.332 374.482 187.567 374.615 187.848C374.755 188.129 374.825 188.472 374.825 188.876C374.825 189.405 374.689 189.855 374.416 190.227C374.152 190.590 373.793 190.871 373.338 191.069C372.892 191.267 372.393 191.367 371.839 191.367ZM379.318 191.367C378.723 191.367 378.183 191.263 377.694 191.057C377.215 190.842 376.835 190.532 376.555 190.128C376.274 189.715 376.129 189.207 376.121 188.604H377.496C377.505 189.099 377.674 189.5 378.004 189.805C378.334 190.103 378.772 190.252 379.318 190.252C379.789 190.252 380.173 190.140 380.471 189.917C380.776 189.686 380.928 189.368 380.928 188.963C380.928 188.715 380.887 188.513 380.804 188.356C380.721 188.191 380.585 188.046 380.395 187.922C380.214 187.798 379.971 187.683 379.665 187.575C379.359 187.460 378.983 187.328 378.537 187.179C378.041 187.005 377.632 186.811 377.310 186.597C376.996 186.374 376.761 186.118 376.604 185.828C376.448 185.531 376.369 185.197 376.369 184.825C376.369 184.296 376.492 183.854 376.74 183.499C376.996 183.136 377.339 182.863 377.769 182.681C378.198 182.492 378.673 182.397 379.193 182.397C379.722 182.397 380.197 182.492 380.618 182.681C381.048 182.863 381.390 183.140 381.647 183.512C381.911 183.875 382.047 184.321 382.055 184.850H380.655C380.655 184.470 380.515 184.152 380.234 183.896C379.962 183.640 379.598 183.512 379.144 183.512C378.756 183.503 378.425 183.602 378.153 183.809C377.880 184.015 377.744 184.317 377.744 184.713C377.744 184.994 377.822 185.221 377.979 185.395C378.136 185.568 378.372 185.721 378.686 185.853C378.999 185.985 379.392 186.134 379.862 186.299C380.168 186.398 380.465 186.514 380.754 186.646C381.052 186.778 381.316 186.943 381.548 187.142C381.779 187.332 381.960 187.567 382.093 187.848C382.233 188.129 382.303 188.472 382.303 188.876C382.303 189.405 382.167 189.855 381.895 190.227C381.630 190.590 381.271 190.871 380.816 191.069C380.370 191.267 379.871 191.367 379.318 191.367Z" fill="#00A2FF"/>
<path d="M384.759 146.097C384.885 145.972 385.057 145.892 385.256 145.892L393.206 145.889C393.59 145.889 393.908 146.207 393.908 146.591C393.908 146.975 393.59 147.293 393.206 147.293L385.959 147.296L385.961 154.543C385.961 154.928 385.643 155.246 385.259 155.246C384.875 155.246 384.557 154.928 384.557 154.544L384.554 146.594C384.554 146.396 384.633 146.223 384.759 146.097Z" fill="#9AE5F5"/>
<path d="M250.129 233.521C250.255 233.395 250.427 233.315 250.626 233.315L258.576 233.312C258.96 233.312 259.278 233.63 259.278 234.014C259.278 234.398 258.96 234.716 258.576 234.717L251.329 234.719L251.331 241.967C251.331 242.351 251.014 242.669 250.629 242.669C250.245 242.669 249.927 242.351 249.927 241.967L249.924 234.018C249.924 233.819 250.004 233.647 250.129 233.521Z" fill="#9AE5F5"/>
<path d="M179.315 432.846C179.441 432.72 179.613 432.64 179.812 432.64L187.761 432.637C188.146 432.637 188.464 432.955 188.464 433.339C188.464 433.723 188.146 434.042 187.762 434.042L180.514 434.044L180.517 441.292C180.517 441.676 180.199 441.994 179.815 441.994C179.431 441.994 179.113 441.677 179.112 441.292L179.11 433.343C179.11 433.144 179.189 432.972 179.315 432.846Z" fill="#9AE5F5"/>
<circle cx="383.351" cy="142.937" r="3.05982" fill="#00A2FF"/>
<circle cx="332.645" cy="202.385" r="3.05982" fill="#00A2FF"/>
<circle cx="248.721" cy="231.235" r="3.05982" fill="#00A2FF"/>
<circle cx="229.487" cy="347.508" r="3.05982" fill="#00A2FF"/>
<circle cx="136.818" cy="528.474" r="3.05982" fill="#00A2FF"/>
<circle cx="177.032" cy="431.434" r="3.05982" fill="#00A2FF"/>
</svg>
