<svg width="25" height="25" viewBox="0 0 25 25" fill="none" xmlns="http://www.w3.org/2000/svg">
<path d="M22.9437 10.9404C22.3332 10.9404 21.8216 11.3786 21.7095 11.9553L12.8541 11.9543V9.9356H17.8499C17.9284 9.9356 17.9987 9.89892 18.0456 9.83676L20.7167 6.25995C20.8808 6.33842 21.0632 6.38733 21.2569 6.38733C21.9509 6.38733 22.5165 5.82074 22.5165 5.12782C22.5165 4.43385 21.9499 3.86831 21.2569 3.86831C20.5628 3.86831 19.9972 4.43489 19.9972 5.12782C19.9972 5.45086 20.1226 5.74332 20.3264 5.96751L17.7276 9.44753H12.8539V7.42883H15.8809C16.0164 7.42883 16.1265 7.31878 16.1265 7.18325L16.1255 3.67479C16.7023 3.55964 17.1405 3.05115 17.1405 2.44074C17.1405 1.74677 16.5739 1.18123 15.8809 1.18123C15.1868 1.18123 14.6212 1.74781 14.6212 2.44074C14.6212 3.05113 15.0595 3.56269 15.6363 3.67479V6.93881L12.854 6.93779V3.29368C12.854 1.58782 11.4659 0.200012 9.75997 0.200012C8.34029 0.200012 7.14076 1.15994 6.77785 2.46429C5.69552 2.26864 4.59177 2.64466 3.85286 3.48127C3.28926 4.1202 3.01001 4.93949 3.07015 5.7904C3.09054 6.06961 3.14557 6.34068 3.23424 6.59644C1.41097 7.37091 0.200195 9.18478 0.200195 11.1799C0.200195 13.2537 1.46803 15.0849 3.38295 15.8237C3.24435 16.0846 3.14039 16.3638 3.07008 16.6563C2.82752 17.6661 3.03339 18.73 3.63673 19.5757C4.25231 20.4367 5.21029 20.9819 6.26403 21.0675C6.39754 21.0777 6.52798 21.0808 6.65843 21.0777C6.65334 21.8522 6.93971 22.6093 7.46457 23.1881C8.05364 23.8322 8.88832 24.2 9.75666 24.2C11.4627 24.2 12.8538 22.8121 12.8538 21.1032V17.4622H15.1449V20.7263C14.568 20.8414 14.1298 21.3499 14.1298 21.9603C14.1298 22.6543 14.6965 23.2198 15.3895 23.2198C16.0835 23.2198 16.6491 22.6532 16.6491 21.9603C16.6491 21.3499 16.2109 20.8383 15.6341 20.7263L15.6351 17.2168C15.6351 17.0812 15.525 16.9712 15.3895 16.9712H12.8538V14.9525H17.7692L19.7994 16.5309V18.2949C19.2225 18.41 18.7843 18.9185 18.7843 19.5289C18.7843 20.2229 19.3509 20.7884 20.044 20.7884C20.738 20.7884 21.3036 20.2219 21.3036 19.5289C21.3036 18.9185 20.8654 18.407 20.2886 18.2949V16.4117C20.2886 16.3363 20.2549 16.266 20.1948 16.2191L18.0036 14.5153C17.9618 14.4817 17.9068 14.4633 17.8528 14.4633L12.8539 14.4623V12.4436H21.7063C21.8215 13.0204 22.33 13.4586 22.9405 13.4586C23.6346 13.4586 24.2002 12.892 24.2002 12.1991C24.2002 11.503 23.6367 10.9404 22.9437 10.9404ZM21.258 4.35547C21.683 4.35547 22.0274 4.6999 22.0274 5.12483C22.0274 5.54976 21.683 5.89419 21.258 5.89419C20.833 5.89419 20.4885 5.54976 20.4885 5.12483C20.4885 4.6999 20.835 4.35547 21.258 4.35547ZM15.1085 2.44073C15.1085 2.01579 15.453 1.67136 15.878 1.67136C16.3029 1.67136 16.6474 2.01579 16.6474 2.44073C16.6474 2.86566 16.3029 3.21009 15.878 3.21009C15.453 3.21009 15.1085 2.86362 15.1085 2.44073ZM16.1603 21.9591C16.1603 22.384 15.8158 22.7285 15.3908 22.7285C14.9658 22.7285 14.6213 22.384 14.6213 21.9591C14.6213 21.5342 14.9658 21.1897 15.3908 21.1897C15.8158 21.1897 16.1603 21.5362 16.1603 21.9591ZM20.8169 19.5308C20.8169 19.9557 20.4724 20.3001 20.0474 20.3001C19.6224 20.3001 19.2779 19.9557 19.2779 19.5308C19.2779 19.1058 19.6224 18.7614 20.0474 18.7614C20.4724 18.7604 20.8169 19.1048 20.8169 19.5308ZM7.37017 17.3521C7.46699 17.4489 7.62089 17.4489 7.71668 17.3521C8.08969 16.9791 9.23216 16.6917 10.3288 17.1462C11.6415 17.6883 12.3641 19.0946 12.3641 21.1042C12.3641 22.542 11.1951 23.7098 9.75811 23.7098C9.02534 23.7098 8.32315 23.399 7.83294 22.8589C7.37941 22.3606 7.13583 21.7034 7.15417 21.0328C7.88491 20.9106 8.56876 20.5631 9.1028 20.0281C9.19962 19.9313 9.19962 19.7774 9.1028 19.6816C9.00599 19.5848 8.85209 19.5848 8.7563 19.6816C8.11218 20.3287 7.21942 20.6548 6.30932 20.5794C5.39921 20.504 4.57165 20.0342 4.03967 19.2903C3.52091 18.5627 3.34053 17.6446 3.54946 16.7702C3.75838 15.8959 4.33522 15.1581 5.13322 14.7403C5.57654 14.508 6.05963 14.3908 6.5631 14.3908C6.69864 14.3908 6.80871 14.2808 6.80871 14.1452C6.80871 14.0097 6.69864 13.8996 6.5631 13.8996C5.98627 13.8996 5.41554 14.0403 4.90594 14.3042C4.40248 14.5681 3.97241 14.9431 3.64831 15.3946C1.87396 14.7526 0.692803 13.0783 0.692803 11.1758C0.692803 9.37617 1.78635 7.73957 3.43229 7.04357C3.61777 7.39003 3.86544 7.70388 4.17628 7.96681C4.52278 8.26131 4.92027 8.47531 5.35543 8.59862C5.48588 8.63531 5.62142 8.5599 5.65813 8.4315C5.69482 8.30106 5.6194 8.16554 5.49099 8.12884C5.12306 8.0249 4.78879 7.84454 4.49731 7.59384C3.949 7.12712 3.61778 6.47189 3.56886 5.75246C3.51892 5.03506 3.75129 4.34109 4.22926 3.80101C4.85298 3.09687 5.78142 2.77587 6.69459 2.93993C6.68134 3.05508 6.67624 3.16921 6.67624 3.28639C6.67624 4.25957 7.11957 5.15428 7.8921 5.74633C7.99911 5.82989 8.153 5.80849 8.23657 5.69945C8.32014 5.5894 8.29874 5.43858 8.18969 5.35502C7.54048 4.85671 7.16442 4.10263 7.16442 3.28334C7.16442 1.84855 8.3334 0.679718 9.76836 0.679718C11.2033 0.679718 12.3723 1.84855 12.3723 3.28334V18.524C11.8658 17.4203 11.078 16.9118 10.5256 16.6826C9.28632 16.169 7.92678 16.4451 7.37938 16.9954C7.27339 17.1014 7.27335 17.2553 7.37017 17.3521ZM22.9437 12.9692C22.5188 12.9692 22.1743 12.6247 22.1743 12.1998C22.1743 11.7749 22.5188 11.4304 22.9437 11.4304C23.3687 11.4304 23.7132 11.7749 23.7132 12.1998C23.7132 12.6247 23.3687 12.9692 22.9437 12.9692ZM5.10554 11.782C4.811 11.782 4.492 11.7637 4.1404 11.7249C4.00486 11.7096 3.91109 11.5894 3.92434 11.4539C3.93963 11.3183 4.05989 11.2215 4.19545 11.2378C6.14917 11.462 7.40977 10.9902 7.74425 9.9131C8.03675 8.97151 7.54857 7.91172 7.18373 7.71912C7.06347 7.65696 7.01964 7.50818 7.08181 7.38794C7.14398 7.2677 7.29278 7.22388 7.41303 7.28604C7.91649 7.552 8.32619 8.43653 8.31805 9.32817C9.76322 9.65425 10.7599 10.9199 10.765 12.479C10.765 12.6145 10.655 12.7246 10.5194 12.7246C10.3839 12.7246 10.2738 12.6145 10.2738 12.479C10.2707 11.1542 9.4758 10.1128 8.27014 9.81521C8.25486 9.89571 8.23651 9.97724 8.21001 10.0557C8.00414 10.7364 7.32003 11.782 5.10554 11.782ZM9.78353 3.53404C9.68467 3.44232 9.67651 3.28845 9.76824 3.18757C9.85996 3.08873 10.0139 3.08057 10.1147 3.17229C10.1698 3.22222 11.4295 4.41448 10.4776 6.77961C10.4388 6.87642 10.3471 6.93349 10.2503 6.93349C10.2187 6.93349 10.1881 6.92839 10.1586 6.91514C10.0332 6.86521 9.97308 6.72255 10.023 6.59719C10.8506 4.54283 9.79372 3.54421 9.78353 3.53404Z" fill="white" stroke="white" stroke-width="0.4"/>
</svg>
