<svg width="24" height="24" viewBox="0 0 24 24" fill="none" xmlns="http://www.w3.org/2000/svg">
<path fill-rule="evenodd" clip-rule="evenodd" d="M10.219 9.59654H10.326V8.78593C10.326 8.6326 10.4508 8.50661 10.6052 8.50661C10.7597 8.50661 10.8845 8.63141 10.8845 8.78593V9.59654H11.7212V8.78593C11.7212 8.6326 11.846 8.50661 12.0005 8.50661C12.155 8.50661 12.2797 8.63141 12.2797 8.78593V9.59654H13.1164V8.78593C13.1164 8.6326 13.2412 8.50661 13.3957 8.50661C13.5502 8.50661 13.675 8.63141 13.675 8.78593V9.59654H13.7819C13.953 9.59654 14.1099 9.66667 14.2216 9.77958C14.3345 9.89249 14.4046 10.0482 14.4046 10.2193V10.3263H15.2152C15.3697 10.3263 15.4944 10.4511 15.4944 10.6056C15.4944 10.7601 15.3697 10.8849 15.2152 10.8849H14.4046V11.7217H15.2152C15.3697 11.7217 15.4944 11.8465 15.4944 12.001C15.4944 12.1555 15.3697 12.2803 15.2152 12.2803H14.4046V13.1171H15.2152C15.3697 13.1171 15.4944 13.2419 15.4944 13.3964C15.4944 13.5509 15.3697 13.6757 15.2152 13.6757H14.4046V13.7827C14.4046 13.955 14.3345 14.1107 14.2216 14.2224C14.1087 14.3354 13.953 14.4055 13.7819 14.4055L13.404 14.4031V15.2137C13.404 15.3682 13.2792 15.493 13.1247 15.493C12.9714 15.493 12.8454 15.3682 12.8454 15.2137V14.4031H12.0088V15.2137C12.0088 15.3682 11.884 15.493 11.7295 15.493C11.575 15.493 11.4502 15.3682 11.4502 15.2137V14.4031H10.6136V15.2137C10.6136 15.3682 10.4888 15.493 10.3343 15.493C10.1798 15.493 10.055 15.3682 10.055 15.2137V14.3817C9.94805 14.3532 9.85297 14.2961 9.77691 14.2201C9.66401 14.1072 9.5939 13.9515 9.5939 13.7803V13.6733H8.78338C8.63007 13.6733 8.5041 13.5485 8.5041 13.394C8.5041 13.2395 8.62888 13.1147 8.78338 13.1147H9.5939V12.278H8.78338C8.63007 12.278 8.5041 12.1532 8.5041 11.9986C8.5041 11.8441 8.62888 11.7193 8.78338 11.7193H9.5939V10.8826H8.78338C8.63007 10.8826 8.5041 10.7578 8.5041 10.6033C8.5041 10.4487 8.62888 10.3239 8.78338 10.3239H9.5939V10.217C9.5939 10.0458 9.66401 9.88894 9.77691 9.77721C9.89219 9.66667 10.0479 9.59654 10.219 9.59654ZM20.9102 4.82097C21.7159 5.82057 22.3577 6.958 22.7927 8.19293C23.2122 9.3827 23.4404 10.664 23.4404 12C23.4404 15.1605 22.1592 18.0201 20.0889 20.0919C18.0186 22.1623 15.1581 23.4437 11.9992 23.4437C10.6634 23.4437 9.38349 23.2155 8.19383 22.796C7.17059 22.4346 6.21392 21.9331 5.34873 21.3126L6.64529 21.132C6.79741 21.1106 6.90318 20.9703 6.88298 20.8182C6.86159 20.6661 6.72135 20.5603 6.56925 20.5805L4.61072 20.8539C4.54298 20.8634 4.47881 20.8978 4.43246 20.9549C4.37898 21.0214 4.36115 21.1046 4.37661 21.1831L4.67609 23.0539C4.69986 23.206 4.84247 23.3094 4.9946 23.2845C5.14671 23.2607 5.25011 23.1181 5.22515 22.9659L5.03381 21.7702C5.94059 22.418 6.94122 22.9434 8.01083 23.3201C9.25987 23.7611 10.604 24 12.0015 24C15.3149 24 18.3144 22.6569 20.4858 20.4853C22.6571 18.3138 24 15.3139 24 12.0001C24 10.6023 23.7599 9.25803 23.3202 8.0089C22.8639 6.71455 22.1912 5.52122 21.3462 4.47293C21.25 4.35289 21.0753 4.33387 20.9552 4.43015C20.8328 4.52642 20.8139 4.7021 20.9102 4.82097ZM3.08861 19.179C2.28287 18.1794 1.64111 17.042 1.20615 15.8071C0.786635 14.6173 0.558457 13.336 0.558457 12C0.558457 8.83951 1.83957 5.97995 3.90993 3.90815C5.98017 1.83765 8.8407 0.556267 12.0008 0.556267C13.3354 0.556267 14.6165 0.784472 15.8062 1.20404C16.8294 1.56536 17.7861 2.06692 18.6525 2.68737L17.3559 2.86803C17.2038 2.88943 17.098 3.02968 17.1182 3.1818C17.1396 3.33394 17.2799 3.43972 17.432 3.41951L19.3905 3.14614C19.4582 3.13663 19.5224 3.10216 19.5688 3.04511C19.6222 2.97855 19.6401 2.89535 19.6246 2.81691L19.3251 0.946111C19.3014 0.793975 19.1587 0.69057 19.0066 0.71553C18.8545 0.739302 18.7511 0.881931 18.7761 1.03407L18.9674 2.22978C18.0606 1.58201 17.06 1.05665 15.9904 0.679869C14.7413 0.238916 13.3973 0 11.9997 0C8.68627 0 5.6868 1.34309 3.51546 3.51467C1.34412 5.68624 0 8.6861 0 11.9999C0 13.3977 0.240061 14.742 0.679787 15.9911C1.13614 17.2855 1.80878 18.4788 2.65377 19.5271C2.75003 19.6471 2.92473 19.6661 3.04477 19.5699C3.16599 19.4736 3.18488 19.2979 3.08861 19.179ZM11.9994 6.73485C10.546 6.73485 9.22918 7.32438 8.27616 8.27761C7.32304 9.23084 6.73358 10.5466 6.73358 12.0013C6.73358 13.4549 7.32304 14.7719 8.27616 15.725C9.22927 16.6782 10.5449 17.2678 11.9994 17.2678C13.4528 17.2678 14.7696 16.6782 15.7214 15.725C16.6746 14.7718 17.264 13.4549 17.264 12.0013C17.264 10.5478 16.6746 9.23074 15.7214 8.27761C14.7695 7.32438 13.4527 6.73485 11.9994 6.73485ZM15.3281 8.67103C14.476 7.81882 13.2994 7.29231 11.9994 7.29231C10.6994 7.29231 9.52273 7.81885 8.67075 8.67103C7.81864 9.52324 7.29219 10.6999 7.29219 12.0001C7.29219 13.3003 7.81867 14.4771 8.67075 15.3292C9.52286 16.1814 10.6994 16.7079 11.9994 16.7079C13.2994 16.7079 14.4761 16.1813 15.3281 15.3292C16.1802 14.4769 16.7066 13.3003 16.7066 12.0001C16.7066 10.6999 16.1801 9.52312 15.3281 8.67103ZM11.9994 21.6943C12.1171 21.6943 12.249 21.6907 12.3952 21.6847C12.539 21.6788 12.6721 21.6705 12.7921 21.661C13.0333 21.6408 13.2508 21.5445 13.4184 21.3935C13.586 21.2426 13.7048 21.0358 13.7488 20.7969L13.8902 20.0338C13.908 19.9352 13.952 19.8496 14.0138 19.7819H14.0126C14.0732 19.7165 14.1564 19.6666 14.2538 19.6404C14.5878 19.5513 14.9122 19.4396 15.2283 19.3088C15.5469 19.1769 15.8558 19.0236 16.153 18.8524C16.2397 18.8025 16.3336 18.7787 16.4239 18.7823C16.5154 18.7859 16.6057 18.8168 16.6889 18.8738L17.2249 19.2423C17.4305 19.3837 17.667 19.4455 17.8987 19.4289C18.1305 19.4134 18.3575 19.3195 18.5405 19.1507C18.6902 19.0129 18.8328 18.875 18.9671 18.7371C19.105 18.5945 19.2381 18.4483 19.3652 18.2997C19.5233 18.1155 19.6089 17.8932 19.6208 17.6662C19.6326 17.4404 19.5708 17.2098 19.433 17.0101L19.0741 16.4884C19.017 16.4064 18.9873 16.3148 18.9838 16.2233C18.9802 16.1318 19.004 16.0391 19.0539 15.9523C19.225 15.6552 19.3783 15.3462 19.5102 15.0276C19.641 14.7114 19.7527 14.3858 19.8418 14.053C19.8679 13.9543 19.9178 13.8723 19.9832 13.8105C20.0498 13.7487 20.1353 13.7059 20.2351 13.6881L20.8068 13.5823C21.048 13.5371 21.2572 13.4159 21.4093 13.2436C21.5614 13.0712 21.6577 12.849 21.672 12.6041C21.6779 12.5126 21.6815 12.4116 21.685 12.3022C21.6886 12.1798 21.691 12.0799 21.691 12.0003C21.691 11.9219 21.6886 11.8208 21.685 11.6996C21.6815 11.5903 21.6767 11.4892 21.672 11.3977C21.6565 11.1529 21.5614 10.9306 21.4093 10.7582C21.2572 10.5859 21.048 10.4647 20.8068 10.4195L20.2351 10.3137C20.1365 10.2959 20.0498 10.2531 19.9832 10.1913C19.9167 10.1295 19.8679 10.0475 19.8418 9.94882C19.7527 9.61482 19.6409 9.28915 19.5102 8.9742C19.3783 8.65566 19.225 8.34664 19.0539 8.04948C19.004 7.96272 18.9802 7.86882 18.9838 7.77849C18.9873 7.68697 19.017 7.59664 19.0741 7.51344L19.433 6.99167C19.5708 6.79199 19.6326 6.5614 19.6208 6.3356C19.6089 6.10858 19.5233 5.88631 19.3652 5.7021C19.2369 5.55234 19.1038 5.40614 18.9659 5.26352L18.9647 5.26233C18.8316 5.12446 18.6902 4.98658 18.5405 4.84989C18.3563 4.68111 18.1305 4.58721 17.8987 4.57176C17.667 4.55631 17.4305 4.61693 17.2249 4.75837L16.6889 5.12681C16.6069 5.18386 16.5154 5.21358 16.4239 5.21715C16.3372 5.22071 16.248 5.19932 16.1636 5.15415L16.1518 5.14702C15.8606 4.97943 15.5576 4.82848 15.2414 4.69654L15.2272 4.6906C14.911 4.55986 14.5854 4.44813 14.2527 4.359C14.1552 4.33285 14.0732 4.28412 14.0114 4.21756C13.9484 4.14981 13.9056 4.06424 13.8878 3.96559L13.7464 3.20135C13.7024 2.96244 13.5836 2.75683 13.416 2.6047C13.2485 2.45375 13.031 2.35628 12.7897 2.33727C12.6697 2.32776 12.5378 2.31944 12.3928 2.31349C12.2466 2.30755 12.1147 2.30399 11.9958 2.30399C11.8782 2.30399 11.7451 2.30755 11.6001 2.31349C11.4563 2.31944 11.3244 2.32776 11.2032 2.33727C10.9619 2.35747 10.7444 2.45375 10.5769 2.6047L10.578 2.60588H10.5769C10.4093 2.75802 10.2904 2.96365 10.2465 3.20135L10.1051 3.9644C10.0884 4.05711 10.0492 4.13912 9.99335 4.20331L9.98147 4.21638C9.91967 4.28294 9.83766 4.33286 9.74021 4.35782C9.40744 4.44696 9.08182 4.55869 8.76571 4.68942C8.44721 4.82135 8.13823 4.97468 7.84111 5.14583C7.75435 5.19575 7.66166 5.21833 7.57015 5.21595H7.56896C7.47745 5.21239 7.38713 5.18149 7.30394 5.12562L6.76797 4.75718C6.56237 4.61574 6.32588 4.55393 6.09414 4.57057C5.8624 4.58721 5.63542 4.67992 5.45239 4.8487C5.30265 4.98538 5.16003 5.12326 5.02694 5.26114C4.88909 5.40377 4.75598 5.54996 4.62763 5.69972C4.46957 5.88395 4.38401 6.1062 4.37212 6.33322C4.36024 6.55905 4.42203 6.78963 4.55989 6.98929L4.9188 7.51106C4.97466 7.59307 5.00556 7.6834 5.00912 7.77373V7.77611C5.01269 7.86644 4.98892 7.96034 4.93901 8.0471C4.76787 8.34425 4.61457 8.65328 4.48265 8.97182C4.35192 9.28799 4.24021 9.61366 4.15109 9.94763C4.12495 10.0463 4.07503 10.1283 4.00967 10.1901C3.94312 10.2519 3.85755 10.2947 3.75773 10.3125L3.1861 10.4183C2.94485 10.4623 2.73567 10.5847 2.58356 10.7571C2.43144 10.9294 2.33517 11.1517 2.32091 11.3965C2.31497 11.488 2.31141 11.5891 2.30784 11.6984C2.30428 11.8208 2.3019 11.9207 2.3019 11.9991C2.3019 12.0776 2.30428 12.1786 2.30784 12.301C2.31141 12.4104 2.31616 12.5114 2.32091 12.6029C2.33636 12.8478 2.43144 13.07 2.58356 13.2424C2.73567 13.4147 2.94484 13.5359 3.1861 13.5811L3.75773 13.6869C3.85637 13.7047 3.94193 13.7487 4.00967 13.8105V13.8093C4.07622 13.8699 4.12495 13.9531 4.15109 14.0506C4.24023 14.3846 4.35194 14.7103 4.48265 15.0252C4.61456 15.3438 4.76787 15.6528 4.93901 15.9499C4.98892 16.0367 5.01269 16.1294 5.00912 16.2198V16.2209C5.00556 16.3125 4.97466 16.4028 4.9188 16.486L4.55989 17.0078C4.42204 17.2074 4.36024 17.438 4.37212 17.6638C4.38401 17.8908 4.46957 18.1131 4.62763 18.2973C4.75598 18.4471 4.88909 18.5933 5.02694 18.7359C5.16005 18.8738 5.30266 19.0117 5.45239 19.1484C5.63659 19.3171 5.86241 19.411 6.09414 19.4265C6.3247 19.4419 6.5624 19.3813 6.76797 19.2399L7.30394 18.8714C7.38713 18.8144 7.47745 18.7847 7.56896 18.7799C7.66047 18.7763 7.75317 18.8001 7.83992 18.85C8.13703 19.0212 8.44602 19.1745 8.76453 19.3064C9.08066 19.4372 9.40628 19.5489 9.73903 19.638C9.83767 19.6642 9.91967 19.7141 9.98147 19.7795C10.0433 19.846 10.086 19.9316 10.1039 20.0315L10.2453 20.7945C10.2893 21.0334 10.4081 21.239 10.5757 21.3912C10.7444 21.5433 10.9607 21.6396 11.202 21.6598C11.3232 21.6693 11.4551 21.6776 11.5989 21.6836C11.7486 21.6919 11.8818 21.6943 11.9994 21.6943ZM11.625 21.1297C11.7344 21.1344 11.8592 21.1368 11.9994 21.1368C12.1397 21.1368 12.2644 21.1344 12.3738 21.1297C12.489 21.1249 12.6138 21.1166 12.7493 21.1059C12.8646 21.0964 12.968 21.0512 13.0464 20.9799C13.1261 20.9086 13.1819 20.8111 13.2021 20.697L13.3435 19.934C13.3816 19.7284 13.4731 19.5489 13.605 19.4051C13.7381 19.2612 13.9104 19.1555 14.1101 19.102C14.4214 19.0188 14.7233 18.9154 15.0157 18.7941C15.3128 18.6705 15.6004 18.5291 15.8749 18.3698C16.0543 18.2664 16.2516 18.2177 16.4465 18.226C16.6414 18.2331 16.8339 18.2973 17.0051 18.415L17.541 18.7834C17.6385 18.85 17.7514 18.8797 17.8619 18.8726C17.9713 18.8654 18.0782 18.8203 18.1662 18.7406C18.2993 18.6182 18.4336 18.4887 18.5667 18.3508L18.5679 18.3496C18.6962 18.2165 18.8222 18.0786 18.9434 17.9372C19.0195 17.8492 19.0599 17.7434 19.0658 17.6365C19.0718 17.5295 19.042 17.4202 18.9755 17.3251L18.6166 16.8045C18.4989 16.6333 18.4359 16.4408 18.4276 16.2459V16.2447C18.4205 16.0498 18.468 15.8536 18.5714 15.6742C18.7295 15.3996 18.8721 15.112 18.9957 14.8149C19.1169 14.5225 19.2191 14.2206 19.3035 13.9092C19.357 13.7095 19.4627 13.5371 19.6065 13.404C19.7503 13.2709 19.931 13.1794 20.1354 13.1413L20.707 13.0355C20.8235 13.0141 20.9221 12.9571 20.9934 12.8763C21.0647 12.7954 21.1099 12.6897 21.117 12.572C21.123 12.4686 21.1277 12.3735 21.1301 12.2867C21.1325 12.2142 21.1337 12.1192 21.1337 12.0003C21.1337 11.8826 21.1325 11.7875 21.1301 11.7138C21.1277 11.6271 21.123 11.532 21.117 11.4286C21.1099 11.3109 21.0647 11.2051 20.9934 11.1243C20.9221 11.0435 20.8223 10.9864 20.707 10.965L20.1354 10.8593C19.931 10.8212 19.7503 10.7297 19.6065 10.5966C19.4627 10.4635 19.357 10.2911 19.3035 10.0914C19.2203 9.78004 19.1169 9.47814 18.9957 9.18573C18.8721 8.88859 18.7307 8.60214 18.5714 8.3264C18.4668 8.14693 18.4193 7.94962 18.4276 7.75471C18.4348 7.55978 18.4989 7.36724 18.6166 7.19609L18.9755 6.67432C19.0409 6.57923 19.0706 6.46989 19.0658 6.36174C19.0599 6.25596 19.0195 6.15018 18.9434 6.06103C18.8222 5.91959 18.6962 5.78053 18.5667 5.6474C18.4336 5.50953 18.3005 5.37997 18.1674 5.25757C18.0794 5.17793 17.9725 5.13277 17.8631 5.12564C17.7526 5.11851 17.6397 5.14703 17.5422 5.21478L17.0063 5.58323C16.8351 5.70089 16.6426 5.76508 16.4477 5.77221C16.2588 5.77934 16.0698 5.73536 15.8939 5.6379C15.888 5.63433 15.8808 5.63195 15.8749 5.62839C15.6027 5.4715 15.3199 5.33125 15.0299 5.21001L15.0157 5.20526C14.7233 5.08402 14.4215 4.98062 14.1101 4.89742C13.9092 4.84394 13.7369 4.73816 13.6038 4.59434C13.4719 4.45171 13.3804 4.27105 13.3424 4.06542L13.2009 3.30118C13.1795 3.18826 13.1237 3.0908 13.0452 3.0183C12.9656 2.94698 12.8634 2.90063 12.7481 2.89231C12.6138 2.88161 12.4879 2.87329 12.3738 2.86854C12.2644 2.86378 12.1397 2.86141 11.9994 2.86141C11.8592 2.86141 11.7344 2.86378 11.6251 2.86854C11.511 2.87329 11.385 2.88161 11.2507 2.89231C11.1354 2.90182 11.032 2.94698 10.9536 3.0183C10.8751 3.08961 10.8193 3.18707 10.7979 3.30118L10.6565 4.06423C10.6208 4.25916 10.5353 4.43387 10.4105 4.57414C10.4057 4.58008 10.401 4.58721 10.395 4.59315C10.2619 4.73697 10.0896 4.84275 9.88874 4.89624C9.57858 4.97944 9.27552 5.08284 8.98434 5.20407C8.68723 5.32768 8.39963 5.46912 8.12511 5.62838H8.12392C7.94566 5.73179 7.75075 5.77933 7.55704 5.7722H7.55229C7.35739 5.76388 7.16487 5.70088 6.99374 5.58322L6.45776 5.21477C6.36031 5.14702 6.24741 5.1185 6.13689 5.12563C6.02755 5.13276 5.92059 5.17793 5.83265 5.25756C5.69954 5.37998 5.56525 5.51072 5.43096 5.64861C5.30261 5.78173 5.17664 5.9196 5.05541 6.06106C4.97936 6.14901 4.93776 6.25479 4.93301 6.36176C4.92707 6.46873 4.95678 6.57808 5.02214 6.67434L5.38105 7.19611C5.49751 7.36608 5.5605 7.55744 5.57001 7.75117V7.75473C5.57714 7.94966 5.5296 8.14697 5.42621 8.32643C5.26696 8.60099 5.12554 8.88864 5.00313 9.18576C4.88191 9.47815 4.77852 9.78004 4.69534 10.0915C4.64186 10.2911 4.53609 10.4635 4.39229 10.5966C4.24849 10.7297 4.06785 10.8213 3.86344 10.8593L3.29181 10.9651C3.17653 10.9865 3.0767 11.0435 3.00539 11.1243C2.93409 11.2052 2.88893 11.311 2.8818 11.4286C2.87586 11.532 2.8711 11.6271 2.86872 11.7139C2.86635 11.7876 2.86516 11.8815 2.86516 12.0003C2.86516 12.118 2.86635 12.2131 2.86872 12.2868C2.8711 12.3735 2.87586 12.4686 2.8818 12.572C2.88893 12.6897 2.93409 12.7955 3.00539 12.8763C3.0767 12.9571 3.17653 13.0142 3.29181 13.0356L3.86344 13.1414C4.06903 13.1794 4.24966 13.2709 4.39229 13.4028V13.404C4.53609 13.5371 4.64186 13.7095 4.69534 13.9092C4.77853 14.2206 4.88192 14.5225 5.00313 14.8149C5.12673 15.112 5.26815 15.3997 5.42739 15.6742C5.53078 15.8525 5.57832 16.0474 5.57119 16.2412V16.2459C5.56406 16.4408 5.49989 16.6334 5.38223 16.8045L5.02451 17.3251C4.95915 17.4202 4.92944 17.5307 4.93419 17.6377C4.94013 17.7435 4.98054 17.8493 5.0566 17.9384C5.17782 18.081 5.30379 18.2189 5.43215 18.3509C5.56644 18.4887 5.69954 18.6195 5.83383 18.7419C5.92177 18.8215 6.02873 18.8667 6.13807 18.8738C6.24859 18.881 6.36149 18.8524 6.45895 18.7847L6.99492 18.4162C7.16606 18.2986 7.35858 18.2344 7.55347 18.2273C7.74956 18.2189 7.94566 18.2677 8.1251 18.3711C8.39963 18.5292 8.68724 18.6718 8.98433 18.7954C9.27668 18.9166 9.57853 19.02 9.88992 19.1032C10.0896 19.1567 10.2619 19.2625 10.395 19.4063C10.5281 19.5501 10.6196 19.7308 10.6577 19.9352L10.7991 20.6983C10.8205 20.8112 10.8763 20.9098 10.9548 20.9812L10.9536 20.9824H10.9548C11.0332 21.0525 11.1354 21.0976 11.2519 21.1083C11.385 21.1178 11.5098 21.1261 11.625 21.1297ZM13.7796 10.1557H10.2216C10.2038 10.1557 10.1871 10.1629 10.1753 10.1748C10.1634 10.1866 10.1562 10.2033 10.1562 10.2211V13.7796C10.1562 13.7974 10.1634 13.8141 10.1753 13.8259C10.1871 13.8378 10.2038 13.845 10.2216 13.845H13.7809C13.7987 13.845 13.8153 13.8378 13.8272 13.8259C13.8391 13.8141 13.8462 13.7974 13.8462 13.7796V10.2211C13.8462 10.2033 13.8391 10.1866 13.8272 10.1748C13.813 10.1629 13.7975 10.1557 13.7796 10.1557Z" fill="white"/>
</svg>
