<svg width="40" height="40" viewBox="0 0 40 40" fill="none" xmlns="http://www.w3.org/2000/svg">
<rect width="40" height="40" rx="20" fill="#00A2FF"/>
<path d="M19.0987 20.901C20.2508 21.9273 21.9153 23.4786 22.9801 22.346L23.4395 21.845C23.5468 21.7281 23.6767 21.634 23.8213 21.5686C23.9659 21.5031 24.1222 21.4676 24.2809 21.4642C24.4396 21.4607 24.5973 21.4895 24.7446 21.5486C24.8919 21.6078 25.0257 21.6961 25.1379 21.8083L27.0011 23.6714C28.0514 24.8741 26.4863 25.8212 25.5789 26.6003C23.0114 28.5958 19.4756 26.291 16.5327 23.4669C13.7068 20.5202 11.4047 16.9931 13.3991 14.4209C14.1754 13.5119 15.127 11.9485 16.3282 12.9987L18.1913 14.8618C18.3035 14.974 18.3919 15.1078 18.451 15.2551C18.5102 15.4024 18.5389 15.5601 18.5355 15.7188C18.532 15.8775 18.4965 16.0338 18.4311 16.1784C18.3656 16.323 18.2716 16.4529 18.1546 16.5602L17.6537 17.0195C16.5203 18.0808 18.0734 19.7515 19.0987 20.901Z" fill="white"/>
</svg>
