<svg width="27" height="23" viewBox="0 0 27 23" fill="none" xmlns="http://www.w3.org/2000/svg">
<path d="M3.74029 13.9173H7.64031V16.8968L5.72332 19.1883C5.52781 19.1231 5.33358 19.0579 5.13805 19.0899C4.81305 19.1231 4.55279 19.2868 4.32555 19.5476C3.90279 20.0719 4.00055 20.8238 4.52106 21.2177C4.74831 21.3814 5.00856 21.4798 5.26882 21.4798C5.62684 21.4798 5.95185 21.3162 6.21081 21.0221C6.53581 20.5962 6.53581 20.0067 6.24382 19.5822L8.22685 17.2255C8.29159 17.1602 8.29159 17.095 8.29159 17.0285V13.9186L12.8735 13.9173V19.8432C12.386 19.9736 11.9962 20.4327 11.9962 20.989C11.9962 21.6437 12.5167 22.2 13.1985 22.2C13.8815 22.2 14.4007 21.6756 14.4007 20.989C14.4007 20.4327 14.0427 19.9736 13.5235 19.8432V13.9173H18.1066V17.0272C18.1066 17.0925 18.1397 17.1909 18.1714 17.2242L20.1544 19.5809C19.8624 20.0067 19.8624 20.5963 20.1874 21.0208C20.4147 21.3149 20.7727 21.4786 21.1294 21.4786C21.3897 21.4786 21.6499 21.3801 21.8772 21.2164C22.3977 20.7906 22.4624 20.0374 22.0727 19.5464C21.8772 19.2842 21.5852 19.1538 21.2602 19.0886C21.0647 19.0553 20.8374 19.0886 20.6749 19.187L18.7579 16.8955V13.916H22.658C23.5999 13.916 24.5102 13.5554 25.1602 12.8687C25.8432 12.1807 26.2 11.2971 26.2 10.3483C26.2 8.58105 24.8669 7.07467 23.1455 6.81245C22.7557 4.61939 20.8374 2.98265 18.5954 2.98265C17.8477 2.98265 17.0999 3.17958 16.4499 3.50695C15.5079 1.47758 13.4919 0.199951 11.283 0.199951C9.46249 0.199951 7.77268 1.05161 6.69984 2.52474C6.43959 2.45952 6.1476 2.42628 5.88734 2.42628C3.93733 2.42628 2.34547 4.02982 2.34547 5.99386C2.34547 6.35448 2.37848 6.68184 2.47496 7.0092C2.02048 7.17288 1.59772 7.46698 1.2397 7.82761C0.556674 8.51559 0.199952 9.3992 0.199952 10.348C0.198682 12.3122 1.79067 13.9169 3.74085 13.9169L3.74029 13.9173ZM5.6903 20.6282C5.49479 20.8571 5.16978 20.8903 4.94253 20.7266C4.71529 20.5297 4.68228 20.2023 4.84478 19.9735C4.94253 19.875 5.07203 19.7765 5.2028 19.7765H5.26755C5.39704 19.7765 5.4948 19.8098 5.59255 19.907C5.82107 20.0387 5.88581 20.3993 5.6903 20.6282ZM20.8029 19.875C20.9006 19.8098 21.0301 19.7446 21.1279 19.7446H21.1926C21.3221 19.7446 21.4529 19.8431 21.5506 19.9416C21.7462 20.1704 21.6814 20.5297 21.4542 20.6951C21.2269 20.8587 20.9019 20.8255 20.7394 20.5963C20.5439 20.3342 20.5756 19.9735 20.8029 19.875ZM3.74029 12.8037C2.37719 12.8037 1.27472 11.6996 1.27472 10.3483C1.27472 9.59539 1.56671 8.9416 2.08722 8.4173C2.41223 8.09123 2.80198 7.89429 3.22474 7.7958C3.32249 7.76256 3.38724 7.66407 3.38724 7.56557C3.38724 7.50034 3.35423 7.40185 3.32122 7.33663C3.19172 6.94278 3.12697 6.48217 3.12697 5.98859C3.12697 4.48355 4.38458 3.22585 5.88734 3.22585C6.08285 3.22585 6.31009 3.2591 6.50561 3.29234C6.63511 3.32558 6.73286 3.22585 6.79761 3.12735C7.77193 1.55409 9.42873 0.999507 11.2813 0.999507C13.2633 0.999507 15.0189 2.03226 15.7983 3.63875C15.8631 3.76952 15.9948 3.83474 16.1243 3.76952C16.7425 3.47542 17.6544 3.27972 18.5954 3.27972C20.5774 3.27972 22.2343 4.6821 22.5262 6.64613C22.5593 6.84183 22.6901 6.97262 22.8849 6.97262C24.2497 6.97262 25.4174 8.14707 25.4174 10.3467C25.4174 11.0005 25.1902 11.5905 24.7692 12.0509C24.3465 12.4761 23.5669 12.8037 22.6562 12.8037H3.74029Z" fill="white"/>
</svg>
