<svg width="468" height="468" viewBox="0 0 468 468" fill="none" xmlns="http://www.w3.org/2000/svg">
<circle cx="233.857" cy="233.857" r="233.857" fill="white"/>
<circle cx="233.857" cy="233.857" r="233.415" stroke="#B3B3B3" stroke-opacity="0.4" stroke-width="0.884969"/>
<path d="M125.12 409.902V399.99H128.334C129.514 399.99 130.477 400.193 131.222 400.599C131.978 401.005 132.534 401.581 132.893 402.327C133.252 403.072 133.431 403.95 133.431 404.96C133.431 405.999 133.242 406.886 132.865 407.622C132.487 408.358 131.921 408.925 131.166 409.321C130.411 409.708 129.467 409.902 128.334 409.902H125.12ZM126.62 408.627H128.277C129.174 408.627 129.882 408.481 130.401 408.189C130.93 407.896 131.307 407.476 131.534 406.928C131.77 406.381 131.888 405.725 131.888 404.96C131.888 403.695 131.595 402.761 131.01 402.157C130.425 401.552 129.514 401.25 128.277 401.25H126.62V408.627ZM137.979 410.072C137.29 410.072 136.681 409.916 136.153 409.605C135.624 409.293 135.209 408.859 134.907 408.302C134.614 407.745 134.468 407.108 134.468 406.39C134.468 405.645 134.614 404.998 134.907 404.45C135.199 403.903 135.61 403.478 136.138 403.176C136.677 402.865 137.295 402.709 137.993 402.709C138.673 402.709 139.268 402.86 139.777 403.162C140.287 403.455 140.684 403.856 140.967 404.365C141.259 404.875 141.406 405.456 141.406 406.107C141.406 406.239 141.401 406.353 141.392 406.447C141.392 406.541 141.382 406.655 141.363 406.787H135.969C135.997 407.183 136.096 407.537 136.266 407.849C136.436 408.151 136.667 408.392 136.96 408.571C137.252 408.741 137.587 408.826 137.965 408.826C138.371 408.826 138.715 408.736 138.999 408.557C139.291 408.368 139.508 408.104 139.65 407.764H141.208C141.085 408.189 140.877 408.576 140.585 408.925C140.301 409.274 139.943 409.553 139.508 409.76C139.074 409.968 138.564 410.072 137.979 410.072ZM135.983 405.725H139.877C139.858 405.177 139.664 404.748 139.296 404.436C138.928 404.115 138.479 403.955 137.951 403.955C137.479 403.955 137.049 404.101 136.662 404.394C136.275 404.686 136.049 405.13 135.983 405.725ZM142.518 413.017V402.879H143.962L144.019 403.941C144.264 403.582 144.595 403.289 145.01 403.063C145.425 402.827 145.916 402.709 146.483 402.709C147.181 402.709 147.781 402.874 148.281 403.204C148.781 403.525 149.168 403.964 149.442 404.521C149.716 405.069 149.853 405.687 149.853 406.376C149.853 407.065 149.716 407.693 149.442 408.259C149.168 408.816 148.776 409.26 148.267 409.59C147.766 409.911 147.172 410.072 146.483 410.072C145.897 410.072 145.392 409.954 144.968 409.718C144.552 409.472 144.236 409.175 144.019 408.826V413.017H142.518ZM146.171 408.755C146.605 408.755 146.983 408.651 147.304 408.443C147.625 408.236 147.875 407.953 148.054 407.594C148.234 407.235 148.323 406.829 148.323 406.376C148.323 405.904 148.229 405.494 148.04 405.144C147.861 404.786 147.611 404.507 147.29 404.309C146.969 404.111 146.596 404.011 146.171 404.011C145.756 404.011 145.388 404.115 145.067 404.323C144.746 404.521 144.491 404.8 144.302 405.158C144.123 405.508 144.033 405.918 144.033 406.39C144.033 406.825 144.123 407.226 144.302 407.594C144.481 407.953 144.732 408.236 145.053 408.443C145.373 408.651 145.746 408.755 146.171 408.755ZM151.019 409.902V399.99H152.52V409.902H151.019ZM157.302 410.072C156.623 410.072 156.009 409.925 155.462 409.633C154.923 409.331 154.494 408.901 154.173 408.344C153.862 407.787 153.706 407.131 153.706 406.376C153.706 405.621 153.866 404.97 154.187 404.422C154.518 403.875 154.957 403.455 155.504 403.162C156.061 402.86 156.679 402.709 157.359 402.709C158.039 402.709 158.652 402.855 159.2 403.148C159.747 403.44 160.186 403.86 160.516 404.408C160.847 404.955 161.012 405.612 161.012 406.376C161.012 407.094 160.852 407.731 160.531 408.288C160.219 408.845 159.785 409.284 159.228 409.605C158.671 409.916 158.029 410.072 157.302 410.072ZM157.316 408.769C157.732 408.769 158.1 408.665 158.421 408.458C158.751 408.25 159.011 407.967 159.2 407.608C159.388 407.24 159.483 406.825 159.483 406.362C159.483 405.89 159.388 405.479 159.2 405.13C159.02 404.771 158.77 404.498 158.449 404.309C158.128 404.111 157.755 404.011 157.331 404.011C156.887 404.011 156.505 404.115 156.184 404.323C155.872 404.531 155.631 404.814 155.462 405.173C155.301 405.522 155.221 405.923 155.221 406.376C155.221 406.895 155.315 407.334 155.504 407.693C155.702 408.052 155.962 408.321 156.283 408.5C156.604 408.679 156.948 408.769 157.316 408.769ZM162.395 413.017L163.952 409.59L161.021 402.879H162.678L164.745 408.004L166.898 402.879H168.469L163.981 413.017H162.395ZM169.275 409.902V402.879H170.719L170.762 403.785C170.988 403.436 171.286 403.171 171.654 402.992C172.031 402.803 172.442 402.709 172.886 402.709C173.424 402.709 173.905 402.822 174.33 403.049C174.764 403.266 175.099 403.61 175.335 404.082C175.581 403.648 175.916 403.313 176.341 403.077C176.765 402.832 177.228 402.709 177.728 402.709C178.276 402.709 178.762 402.822 179.187 403.049C179.611 403.266 179.942 403.601 180.178 404.054C180.423 404.507 180.546 405.078 180.546 405.767V409.902H179.059V405.966C179.059 405.333 178.922 404.847 178.649 404.507C178.375 404.167 177.969 403.997 177.431 403.997C176.893 403.997 176.463 404.186 176.142 404.564C175.821 404.941 175.661 405.465 175.661 406.135V409.902H174.174V405.966C174.174 405.333 174.033 404.847 173.749 404.507C173.466 404.167 173.065 403.997 172.546 403.997C172.055 403.997 171.635 404.177 171.286 404.535C170.946 404.885 170.776 405.418 170.776 406.135V409.902H169.275ZM185.153 410.072C184.464 410.072 183.855 409.916 183.326 409.605C182.798 409.293 182.382 408.859 182.08 408.302C181.788 407.745 181.641 407.108 181.641 406.39C181.641 405.645 181.788 404.998 182.08 404.45C182.373 403.903 182.784 403.478 183.312 403.176C183.85 402.865 184.469 402.709 185.167 402.709C185.847 402.709 186.442 402.86 186.951 403.162C187.461 403.455 187.857 403.856 188.141 404.365C188.433 404.875 188.58 405.456 188.58 406.107C188.58 406.239 188.575 406.353 188.565 406.447C188.565 406.541 188.556 406.655 188.537 406.787H183.142C183.171 407.183 183.27 407.537 183.44 407.849C183.61 408.151 183.841 408.392 184.134 408.571C184.426 408.741 184.761 408.826 185.139 408.826C185.545 408.826 185.889 408.736 186.173 408.557C186.465 408.368 186.682 408.104 186.824 407.764H188.381C188.259 408.189 188.051 408.576 187.758 408.925C187.475 409.274 187.116 409.553 186.682 409.76C186.248 409.968 185.738 410.072 185.153 410.072ZM183.157 405.725H187.05C187.032 405.177 186.838 404.748 186.47 404.436C186.102 404.115 185.653 403.955 185.125 403.955C184.653 403.955 184.223 404.101 183.836 404.394C183.449 404.686 183.223 405.13 183.157 405.725ZM189.692 409.902V402.879H191.136L191.164 403.912C191.4 403.525 191.726 403.228 192.141 403.02C192.566 402.813 193.015 402.709 193.487 402.709C194.308 402.709 194.973 402.968 195.483 403.488C195.993 403.997 196.248 404.762 196.248 405.781V409.902H194.747V405.966C194.747 405.333 194.605 404.847 194.322 404.507C194.039 404.158 193.614 403.983 193.048 403.983C192.491 403.983 192.042 404.177 191.702 404.564C191.363 404.941 191.193 405.465 191.193 406.135V409.902H189.692ZM200.373 409.902C199.675 409.902 199.137 409.732 198.759 409.392C198.381 409.052 198.193 408.495 198.193 407.721V404.139H197.131V402.879H198.193V401.18H199.694V402.879H201.478V404.139H199.694V407.721C199.694 408.08 199.774 408.321 199.934 408.443C200.095 408.566 200.345 408.627 200.685 408.627H201.478V409.902H200.373ZM127.937 427.072C127.475 427.072 127.05 427.001 126.663 426.859C126.276 426.708 125.941 426.501 125.658 426.236C125.374 425.972 125.153 425.665 124.992 425.316C124.841 424.957 124.766 424.566 124.766 424.141C124.766 423.773 124.832 423.428 124.964 423.107C125.096 422.777 125.271 422.475 125.488 422.201C125.714 421.927 125.969 421.691 126.252 421.493L126.351 421.408L126.252 421.266C126.026 420.974 125.851 420.681 125.728 420.388C125.615 420.086 125.559 419.77 125.559 419.44C125.559 418.93 125.677 418.482 125.913 418.095C126.158 417.698 126.498 417.387 126.932 417.16C127.366 416.934 127.871 416.82 128.447 416.82C129.032 416.82 129.542 416.934 129.976 417.16C130.411 417.387 130.75 417.708 130.996 418.123C131.241 418.529 131.364 419.02 131.364 419.596H129.891C129.891 419.312 129.835 419.062 129.721 418.845C129.618 418.628 129.457 418.458 129.24 418.335C129.023 418.203 128.754 418.137 128.433 418.137C128.131 418.137 127.876 418.198 127.668 418.321C127.461 418.444 127.305 418.604 127.201 418.803C127.097 419.001 127.045 419.218 127.045 419.454C127.045 419.85 127.192 420.228 127.484 420.587C127.786 420.945 128.173 421.361 128.645 421.833L130.529 423.702L132.001 421.167H133.587L131.491 424.665L133.743 426.902H131.86L130.698 425.741L130.599 425.868C130.259 426.236 129.868 426.529 129.424 426.746C128.99 426.963 128.494 427.072 127.937 427.072ZM128.022 425.727C128.372 425.727 128.683 425.656 128.957 425.514C129.231 425.363 129.504 425.132 129.778 424.82L127.272 422.357C126.951 422.583 126.701 422.838 126.521 423.121C126.342 423.395 126.252 423.702 126.252 424.042C126.252 424.344 126.328 424.622 126.479 424.877C126.63 425.132 126.838 425.34 127.102 425.5C127.376 425.651 127.682 425.727 128.022 425.727ZM138.291 426.902V416.99H139.792V426.902H138.291ZM141.436 426.902V419.879H142.88L142.909 420.912C143.145 420.525 143.47 420.228 143.886 420.02C144.31 419.813 144.759 419.709 145.231 419.709C146.052 419.709 146.718 419.968 147.227 420.488C147.737 420.997 147.992 421.762 147.992 422.781V426.902H146.491V422.966C146.491 422.333 146.349 421.847 146.066 421.507C145.783 421.158 145.358 420.983 144.792 420.983C144.235 420.983 143.787 421.177 143.447 421.564C143.107 421.941 142.937 422.465 142.937 423.135V426.902H141.436ZM152.117 426.902C151.419 426.902 150.881 426.732 150.503 426.392C150.126 426.052 149.937 425.495 149.937 424.721V421.139H148.875V419.879H149.937V418.18H151.438V419.879H153.222V421.139H151.438V424.721C151.438 425.08 151.518 425.321 151.679 425.443C151.839 425.566 152.089 425.627 152.429 425.627H153.222V426.902H152.117ZM157.504 427.072C156.815 427.072 156.206 426.916 155.678 426.605C155.149 426.293 154.734 425.859 154.432 425.302C154.139 424.745 153.993 424.108 153.993 423.39C153.993 422.645 154.139 421.998 154.432 421.45C154.724 420.903 155.135 420.478 155.664 420.176C156.202 419.865 156.82 419.709 157.519 419.709C158.198 419.709 158.793 419.86 159.303 420.162C159.812 420.455 160.209 420.856 160.492 421.365C160.785 421.875 160.931 422.456 160.931 423.107C160.931 423.239 160.926 423.353 160.917 423.447C160.917 423.541 160.907 423.655 160.888 423.787H155.494C155.522 424.183 155.621 424.537 155.791 424.849C155.961 425.151 156.192 425.392 156.485 425.571C156.778 425.741 157.113 425.826 157.49 425.826C157.896 425.826 158.241 425.736 158.524 425.557C158.816 425.368 159.034 425.104 159.175 424.764H160.733C160.61 425.189 160.402 425.576 160.11 425.925C159.827 426.274 159.468 426.553 159.034 426.76C158.599 426.968 158.09 427.072 157.504 427.072ZM155.508 422.725H159.402C159.383 422.177 159.189 421.748 158.821 421.436C158.453 421.115 158.005 420.955 157.476 420.955C157.004 420.955 156.575 421.101 156.188 421.394C155.801 421.686 155.574 422.13 155.508 422.725ZM164.919 430.187C164.324 430.187 163.772 430.116 163.263 429.974C162.753 429.833 162.342 429.597 162.031 429.266C161.729 428.946 161.578 428.516 161.578 427.978C161.578 427.619 161.658 427.317 161.818 427.072C161.979 426.826 162.205 426.623 162.498 426.463C162.262 426.331 162.078 426.161 161.946 425.953C161.814 425.745 161.747 425.505 161.747 425.231C161.747 424.636 162.021 424.169 162.569 423.829C162.37 423.612 162.215 423.367 162.101 423.093C161.988 422.819 161.932 422.522 161.932 422.201C161.932 421.691 162.054 421.252 162.3 420.884C162.545 420.506 162.88 420.219 163.305 420.02C163.73 419.813 164.216 419.709 164.763 419.709C165.169 419.709 165.542 419.765 165.882 419.879H168.346V421.054H167.312C167.397 421.233 167.463 421.417 167.51 421.606C167.567 421.795 167.595 421.993 167.595 422.201C167.595 422.72 167.468 423.168 167.213 423.546C166.968 423.914 166.632 424.202 166.208 424.41C165.783 424.608 165.302 424.707 164.763 424.707C164.518 424.707 164.291 424.684 164.084 424.636C163.876 424.58 163.668 424.504 163.461 424.41C163.234 424.523 163.121 424.698 163.121 424.934C163.121 425.377 163.494 425.599 164.24 425.599H165.471C166.019 425.599 166.491 425.675 166.887 425.826C167.293 425.967 167.605 426.199 167.822 426.52C168.048 426.84 168.162 427.261 168.162 427.78C168.162 428.289 168.011 428.724 167.709 429.082C167.416 429.441 167.024 429.715 166.533 429.904C166.043 430.092 165.504 430.187 164.919 430.187ZM164.905 428.983C165.415 428.983 165.849 428.894 166.208 428.714C166.566 428.535 166.746 428.261 166.746 427.893C166.746 427.213 166.307 426.874 165.429 426.874H164.31C163.895 426.874 163.569 426.958 163.333 427.128C163.097 427.298 162.979 427.553 162.979 427.893C162.979 428.157 163.069 428.37 163.248 428.53C163.428 428.691 163.664 428.804 163.956 428.87C164.249 428.946 164.565 428.983 164.905 428.983ZM164.749 423.504C165.174 423.504 165.519 423.381 165.783 423.135C166.057 422.89 166.194 422.578 166.194 422.201C166.194 421.833 166.057 421.526 165.783 421.281C165.519 421.035 165.174 420.912 164.749 420.912C164.324 420.912 163.98 421.035 163.716 421.281C163.461 421.526 163.333 421.833 163.333 422.201C163.333 422.578 163.456 422.89 163.701 423.135C163.956 423.381 164.306 423.504 164.749 423.504ZM169.313 426.902V419.879H170.757L170.8 421.068C171.036 420.643 171.357 420.313 171.763 420.077C172.178 419.832 172.664 419.709 173.221 419.709V421.281H172.811C172.14 421.281 171.64 421.455 171.31 421.804C170.979 422.144 170.814 422.668 170.814 423.376V426.902H169.313ZM176.346 427.072C175.892 427.072 175.477 426.992 175.1 426.831C174.722 426.661 174.42 426.416 174.193 426.095C173.967 425.774 173.854 425.387 173.854 424.934C173.854 424.396 173.986 423.966 174.25 423.645C174.524 423.315 174.887 423.074 175.34 422.923C175.803 422.763 176.308 422.682 176.855 422.682H178.639C178.639 422.276 178.573 421.951 178.441 421.705C178.309 421.45 178.13 421.266 177.903 421.153C177.677 421.03 177.412 420.969 177.11 420.969C176.714 420.969 176.364 421.063 176.062 421.252C175.77 421.432 175.586 421.719 175.51 422.116H173.995C174.042 421.606 174.212 421.172 174.505 420.813C174.807 420.455 175.189 420.181 175.652 419.992C176.114 419.803 176.605 419.709 177.124 419.709C177.804 419.709 178.366 419.836 178.809 420.091C179.262 420.337 179.598 420.681 179.815 421.125C180.041 421.568 180.154 422.073 180.154 422.64V424.792C180.164 425.066 180.221 425.269 180.324 425.401C180.438 425.524 180.636 425.594 180.919 425.613V426.902C180.542 426.902 180.211 426.859 179.928 426.774C179.654 426.689 179.428 426.562 179.248 426.392C179.069 426.213 178.927 425.986 178.824 425.712C178.597 426.09 178.267 426.411 177.832 426.675C177.398 426.94 176.903 427.072 176.346 427.072ZM176.7 425.84C177.087 425.84 177.426 425.745 177.719 425.557C178.012 425.358 178.238 425.104 178.399 424.792C178.559 424.471 178.639 424.127 178.639 423.758V423.73H176.969C176.695 423.73 176.435 423.763 176.19 423.829C175.954 423.895 175.76 424.009 175.609 424.169C175.468 424.32 175.397 424.532 175.397 424.806C175.397 425.165 175.524 425.429 175.779 425.599C176.034 425.76 176.341 425.84 176.7 425.84ZM184.43 426.902C183.731 426.902 183.193 426.732 182.816 426.392C182.438 426.052 182.249 425.495 182.249 424.721V421.139H181.187V419.879H182.249V418.18H183.75V419.879H185.534V421.139H183.75V424.721C183.75 425.08 183.83 425.321 183.991 425.443C184.151 425.566 184.402 425.627 184.741 425.627H185.534V426.902H184.43ZM187.589 418.647C187.316 418.647 187.08 418.552 186.881 418.364C186.693 418.165 186.598 417.925 186.598 417.642C186.598 417.368 186.693 417.137 186.881 416.948C187.08 416.759 187.316 416.665 187.589 416.665C187.873 416.665 188.109 416.759 188.297 416.948C188.496 417.137 188.595 417.368 188.595 417.642C188.595 417.925 188.496 418.165 188.297 418.364C188.109 418.552 187.873 418.647 187.589 418.647ZM186.839 426.902V419.879H188.34V426.902H186.839ZM193.245 427.072C192.565 427.072 191.952 426.925 191.404 426.633C190.866 426.331 190.436 425.901 190.115 425.344C189.804 424.787 189.648 424.131 189.648 423.376C189.648 422.621 189.809 421.97 190.13 421.422C190.46 420.875 190.899 420.455 191.446 420.162C192.003 419.86 192.622 419.709 193.301 419.709C193.981 419.709 194.595 419.855 195.142 420.148C195.69 420.44 196.129 420.86 196.459 421.408C196.789 421.955 196.955 422.612 196.955 423.376C196.955 424.094 196.794 424.731 196.473 425.288C196.162 425.845 195.727 426.284 195.17 426.605C194.613 426.916 193.972 427.072 193.245 427.072ZM193.259 425.769C193.674 425.769 194.042 425.665 194.363 425.458C194.694 425.25 194.953 424.967 195.142 424.608C195.331 424.24 195.425 423.825 195.425 423.362C195.425 422.89 195.331 422.479 195.142 422.13C194.963 421.771 194.713 421.498 194.392 421.309C194.071 421.111 193.698 421.011 193.273 421.011C192.829 421.011 192.447 421.115 192.126 421.323C191.815 421.531 191.574 421.814 191.404 422.173C191.244 422.522 191.163 422.923 191.163 423.376C191.163 423.895 191.258 424.334 191.446 424.693C191.645 425.052 191.904 425.321 192.225 425.5C192.546 425.679 192.891 425.769 193.259 425.769ZM198.155 426.902V419.879H199.599L199.627 420.912C199.863 420.525 200.189 420.228 200.604 420.02C201.029 419.813 201.478 419.709 201.95 419.709C202.771 419.709 203.436 419.968 203.946 420.488C204.456 420.997 204.711 421.762 204.711 422.781V426.902H203.21V422.966C203.21 422.333 203.068 421.847 202.785 421.507C202.502 421.158 202.077 420.983 201.511 420.983C200.954 420.983 200.505 421.177 200.166 421.564C199.826 421.941 199.656 422.465 199.656 423.135V426.902H198.155Z" fill="black"/>
<path d="M100.633 424.978C100.759 424.852 100.931 424.772 101.13 424.772L109.08 424.769C109.464 424.769 109.782 425.087 109.782 425.471C109.782 425.855 109.464 426.173 109.08 426.174L101.833 426.176L101.835 433.424C101.835 433.808 101.517 434.126 101.133 434.126C100.749 434.126 100.431 433.808 100.431 433.424L100.428 425.475C100.428 425.276 100.507 425.103 100.633 424.978Z" fill="#B3B3B3"/>
<circle cx="98.3508" cy="423.566" r="3.05982" fill="#00A2FF"/>
</svg>
