<svg width="278" height="278" viewBox="0 0 278 278" fill="none" xmlns="http://www.w3.org/2000/svg">
<circle cx="139.003" cy="139.003" r="139.003" fill="white"/>
<circle cx="139.003" cy="139.003" r="138.561" stroke="#B3B3B3" stroke-opacity="0.4" stroke-width="0.884969"/>
<path d="M35.0747 200.96V191.048H38.2889C39.4688 191.048 40.4317 191.251 41.1774 191.657C41.9326 192.063 42.4895 192.639 42.8482 193.385C43.2069 194.13 43.3863 195.008 43.3863 196.018C43.3863 197.057 43.1975 197.944 42.8199 198.68C42.4423 199.417 41.8759 199.983 41.1208 200.38C40.3656 200.767 39.4216 200.96 38.2889 200.96H35.0747ZM36.5756 199.686H38.2322C39.129 199.686 39.837 199.539 40.3562 199.247C40.8848 198.954 41.2624 198.534 41.4889 197.987C41.7249 197.439 41.8429 196.783 41.8429 196.018C41.8429 194.753 41.5503 193.819 40.965 193.215C40.3798 192.611 39.4688 192.309 38.2322 192.309H36.5756V199.686ZM47.9343 201.13C47.2452 201.13 46.6363 200.974 46.1077 200.663C45.5791 200.351 45.1637 199.917 44.8616 199.36C44.569 198.803 44.4227 198.166 44.4227 197.449C44.4227 196.703 44.569 196.056 44.8616 195.509C45.1543 194.961 45.5649 194.536 46.0935 194.234C46.6316 193.923 47.2499 193.767 47.9484 193.767C48.6281 193.767 49.2228 193.918 49.7325 194.22C50.2423 194.513 50.6387 194.914 50.9219 195.424C51.2145 195.933 51.3609 196.514 51.3609 197.165C51.3609 197.297 51.3561 197.411 51.3467 197.505C51.3467 197.6 51.3373 197.713 51.3184 197.845H45.9236C45.9519 198.241 46.051 198.595 46.221 198.907C46.3909 199.209 46.6221 199.45 46.9148 199.629C47.2074 199.799 47.5425 199.884 47.9201 199.884C48.326 199.884 48.6706 199.794 48.9537 199.615C49.2464 199.426 49.4635 199.162 49.6051 198.822H51.1626C51.0399 199.247 50.8322 199.634 50.5396 199.983C50.2564 200.332 49.8977 200.611 49.4635 200.818C49.0293 201.026 48.5195 201.13 47.9343 201.13ZM45.9378 196.783H49.8316C49.8128 196.236 49.6192 195.806 49.2511 195.495C48.8829 195.174 48.4346 195.013 47.9059 195.013C47.434 195.013 47.0045 195.159 46.6174 195.452C46.2304 195.745 46.0038 196.188 45.9378 196.783ZM55.2625 201.13C54.715 201.13 54.2147 201.036 53.7616 200.847C53.3085 200.649 52.9403 200.37 52.6571 200.011C52.3739 199.653 52.2087 199.233 52.1615 198.751H53.6766C53.7427 199.091 53.9173 199.369 54.2005 199.587C54.4837 199.804 54.8377 199.912 55.2625 199.912C55.6401 199.912 55.9468 199.832 56.1828 199.672C56.4188 199.502 56.5368 199.28 56.5368 199.006C56.5368 198.77 56.4566 198.586 56.2961 198.454C56.1451 198.322 55.9468 198.218 55.7014 198.142C55.4654 198.067 55.2058 198.001 54.9226 197.944C54.4884 197.84 54.0778 197.713 53.6908 197.562C53.3132 197.411 53.0064 197.203 52.7704 196.939C52.5344 196.674 52.4164 196.32 52.4164 195.877C52.4164 195.443 52.5297 195.07 52.7562 194.758C52.9922 194.437 53.3132 194.192 53.7191 194.022C54.125 193.852 54.5828 193.767 55.0926 193.767C55.8572 193.767 56.4943 193.961 57.0041 194.348C57.5138 194.725 57.797 195.282 57.8537 196.018H56.4094C56.3716 195.688 56.23 195.433 55.9846 195.254C55.7486 195.074 55.4418 194.985 55.0642 194.985C54.715 194.985 54.4318 195.056 54.2147 195.197C53.9976 195.329 53.889 195.532 53.889 195.806C53.889 195.995 53.9645 196.155 54.1156 196.287C54.2666 196.41 54.4601 196.514 54.6961 196.599C54.9415 196.674 55.1964 196.745 55.4607 196.811C55.9421 196.915 56.3716 197.043 56.7492 197.194C57.1268 197.345 57.4289 197.557 57.6554 197.831C57.882 198.105 58 198.482 58.0094 198.964C58.0094 199.398 57.8867 199.78 57.6413 200.111C57.4053 200.431 57.0796 200.682 56.6643 200.861C56.2584 201.04 55.7911 201.13 55.2625 201.13ZM60.081 192.705C59.8073 192.705 59.5713 192.611 59.373 192.422C59.1843 192.224 59.0899 191.983 59.0899 191.7C59.0899 191.426 59.1843 191.195 59.373 191.006C59.5713 190.817 59.8073 190.723 60.081 190.723C60.3642 190.723 60.6002 190.817 60.789 191.006C60.9872 191.195 61.0863 191.426 61.0863 191.7C61.0863 191.983 60.9872 192.224 60.789 192.422C60.6002 192.611 60.3642 192.705 60.081 192.705ZM59.3306 200.96V193.937H60.8315V200.96H59.3306ZM65.3122 204.245C64.7175 204.245 64.1653 204.174 63.6555 204.033C63.1458 203.891 62.7352 203.655 62.4236 203.325C62.1216 203.004 61.9705 202.574 61.9705 202.036C61.9705 201.677 62.0508 201.375 62.2113 201.13C62.3717 200.885 62.5983 200.682 62.8909 200.521C62.6549 200.389 62.4708 200.219 62.3387 200.011C62.2065 199.804 62.1405 199.563 62.1405 199.289C62.1405 198.695 62.4142 198.227 62.9617 197.887C62.7635 197.67 62.6077 197.425 62.4944 197.151C62.3812 196.877 62.3245 196.58 62.3245 196.259C62.3245 195.749 62.4472 195.31 62.6927 194.942C62.9381 194.565 63.2732 194.277 63.698 194.079C64.1228 193.871 64.6089 193.767 65.1564 193.767C65.5623 193.767 65.9352 193.824 66.275 193.937H68.7388V195.112H67.7051C67.7901 195.292 67.8562 195.476 67.9034 195.664C67.96 195.853 67.9883 196.051 67.9883 196.259C67.9883 196.778 67.8609 197.227 67.606 197.604C67.3606 197.972 67.0255 198.26 66.6007 198.468C66.1759 198.666 65.6945 198.765 65.1564 198.765C64.911 198.765 64.6844 198.742 64.4768 198.695C64.2691 198.638 64.0614 198.562 63.8538 198.468C63.6272 198.581 63.5139 198.756 63.5139 198.992C63.5139 199.436 63.8868 199.657 64.6325 199.657H65.8644C66.4119 199.657 66.8839 199.733 67.2804 199.884C67.6863 200.026 67.9978 200.257 68.2149 200.578C68.4414 200.899 68.5547 201.319 68.5547 201.838C68.5547 202.348 68.4037 202.782 68.1016 203.141C67.809 203.499 67.4172 203.773 66.9264 203.962C66.4355 204.151 65.8974 204.245 65.3122 204.245ZM65.298 203.042C65.8078 203.042 66.242 202.952 66.6007 202.773C66.9594 202.593 67.1388 202.319 67.1388 201.951C67.1388 201.272 66.6998 200.932 65.8219 200.932H64.7033C64.288 200.932 63.9623 201.017 63.7263 201.187C63.4903 201.357 63.3723 201.611 63.3723 201.951C63.3723 202.216 63.462 202.428 63.6414 202.588C63.8207 202.749 64.0567 202.862 64.3493 202.928C64.642 203.004 64.9582 203.042 65.298 203.042ZM65.1423 197.562C65.5671 197.562 65.9116 197.439 66.1759 197.194C66.4497 196.948 66.5865 196.637 66.5865 196.259C66.5865 195.891 66.4497 195.584 66.1759 195.339C65.9116 195.093 65.5671 194.971 65.1423 194.971C64.7175 194.971 64.3729 195.093 64.1086 195.339C63.8538 195.584 63.7263 195.891 63.7263 196.259C63.7263 196.637 63.849 196.948 64.0945 197.194C64.3493 197.439 64.6986 197.562 65.1423 197.562ZM69.7062 200.96V193.937H71.1504L71.1788 194.971C71.4147 194.584 71.7404 194.286 72.1558 194.079C72.5805 193.871 73.0289 193.767 73.5009 193.767C74.3222 193.767 74.9877 194.027 75.4974 194.546C76.0071 195.056 76.262 195.82 76.262 196.84V200.96H74.7611V197.024C74.7611 196.391 74.6195 195.905 74.3363 195.565C74.0531 195.216 73.6284 195.041 73.062 195.041C72.505 195.041 72.0566 195.235 71.7168 195.622C71.377 196 71.2071 196.523 71.2071 197.194V200.96H69.7062ZM83.9705 201.13C83.508 201.13 83.0832 201.059 82.6962 200.918C82.3092 200.767 81.9741 200.559 81.6909 200.295C81.4077 200.03 81.1858 199.723 81.0254 199.374C80.8743 199.016 80.7988 198.624 80.7988 198.199C80.7988 197.831 80.8649 197.486 80.997 197.165C81.1292 196.835 81.3038 196.533 81.5209 196.259C81.7475 195.985 82.0024 195.749 82.2856 195.551L82.3847 195.466L82.2856 195.325C82.059 195.032 81.8844 194.739 81.7617 194.447C81.6484 194.145 81.5917 193.828 81.5917 193.498C81.5917 192.988 81.7097 192.54 81.9457 192.153C82.1912 191.756 82.531 191.445 82.9652 191.218C83.3994 190.992 83.9045 190.879 84.4803 190.879C85.0655 190.879 85.5753 190.992 86.0095 191.218C86.4437 191.445 86.7836 191.766 87.029 192.181C87.2744 192.587 87.3971 193.078 87.3971 193.654H85.9246C85.9246 193.371 85.8679 193.12 85.7546 192.903C85.6508 192.686 85.4903 192.516 85.2732 192.394C85.0561 192.261 84.7871 192.195 84.4661 192.195C84.1641 192.195 83.9092 192.257 83.7015 192.379C83.4938 192.502 83.3381 192.663 83.2343 192.861C83.1304 193.059 83.0785 193.276 83.0785 193.512C83.0785 193.909 83.2248 194.286 83.5174 194.645C83.8195 195.004 84.2065 195.419 84.6785 195.891L86.5617 197.76L88.0343 195.225H89.6202L87.5246 198.723L89.7759 200.96H87.8927L86.7316 199.799L86.6325 199.926C86.2927 200.295 85.901 200.587 85.4573 200.804C85.0231 201.021 84.5275 201.13 83.9705 201.13ZM84.0555 199.785C84.4048 199.785 84.7163 199.714 84.99 199.572C85.2638 199.421 85.5375 199.19 85.8113 198.879L83.305 196.415C82.9841 196.641 82.7339 196.896 82.5546 197.179C82.3752 197.453 82.2856 197.76 82.2856 198.1C82.2856 198.402 82.3611 198.68 82.5121 198.935C82.6632 199.19 82.8708 199.398 83.1351 199.558C83.4089 199.709 83.7157 199.785 84.0555 199.785ZM35.0747 217.96V208.048H41.319V209.309H36.5756V212.098H40.6818V213.344H36.5756V216.7H41.319V217.96H35.0747ZM42.7417 217.96V210.937H44.186L44.2143 211.971C44.4503 211.584 44.776 211.286 45.1913 211.079C45.6161 210.871 46.0645 210.767 46.5365 210.767C47.3577 210.767 48.0232 211.027 48.5329 211.546C49.0427 212.056 49.2976 212.82 49.2976 213.84V217.96H47.7966V214.024C47.7966 213.391 47.6551 212.905 47.3719 212.565C47.0887 212.216 46.6639 212.041 46.0975 212.041C45.5406 212.041 45.0922 212.235 44.7524 212.622C44.4125 213 44.2426 213.523 44.2426 214.194V217.96H42.7417ZM53.5377 221.245C52.943 221.245 52.3907 221.174 51.881 221.033C51.3713 220.891 50.9606 220.655 50.6491 220.325C50.3471 220.004 50.196 219.574 50.196 219.036C50.196 218.677 50.2763 218.375 50.4367 218.13C50.5972 217.885 50.8238 217.682 51.1164 217.521C50.8804 217.389 50.6963 217.219 50.5642 217.011C50.432 216.804 50.3659 216.563 50.3659 216.289C50.3659 215.695 50.6397 215.227 51.1872 214.887C50.989 214.67 50.8332 214.425 50.7199 214.151C50.6066 213.877 50.55 213.58 50.55 213.259C50.55 212.749 50.6727 212.31 50.9182 211.942C51.1636 211.565 51.4987 211.277 51.9235 211.079C52.3483 210.871 52.8344 210.767 53.3819 210.767C53.7878 210.767 54.1607 210.824 54.5005 210.937H56.9643V212.112H55.9306C56.0156 212.292 56.0817 212.476 56.1289 212.664C56.1855 212.853 56.2138 213.051 56.2138 213.259C56.2138 213.778 56.0864 214.227 55.8315 214.604C55.5861 214.972 55.251 215.26 54.8262 215.468C54.4014 215.666 53.92 215.765 53.3819 215.765C53.1365 215.765 52.9099 215.742 52.7023 215.695C52.4946 215.638 52.2869 215.562 52.0792 215.468C51.8527 215.581 51.7394 215.756 51.7394 215.992C51.7394 216.436 52.1123 216.657 52.858 216.657H54.0899C54.6374 216.657 55.1094 216.733 55.5058 216.884C55.9117 217.026 56.2233 217.257 56.4404 217.578C56.6669 217.899 56.7802 218.319 56.7802 218.838C56.7802 219.348 56.6292 219.782 56.3271 220.141C56.0345 220.499 55.6427 220.773 55.1519 220.962C54.661 221.151 54.1229 221.245 53.5377 221.245ZM53.5235 220.042C54.0332 220.042 54.4675 219.952 54.8262 219.773C55.1849 219.593 55.3642 219.319 55.3642 218.951C55.3642 218.272 54.9253 217.932 54.0474 217.932H52.9288C52.5135 217.932 52.1878 218.017 51.9518 218.187C51.7158 218.357 51.5978 218.611 51.5978 218.951C51.5978 219.216 51.6875 219.428 51.8668 219.588C52.0462 219.749 52.2822 219.862 52.5748 219.928C52.8674 220.004 53.1837 220.042 53.5235 220.042ZM53.3678 214.562C53.7925 214.562 54.1371 214.439 54.4014 214.194C54.6751 213.948 54.812 213.637 54.812 213.259C54.812 212.891 54.6751 212.584 54.4014 212.339C54.1371 212.093 53.7925 211.971 53.3678 211.971C52.943 211.971 52.5984 212.093 52.3341 212.339C52.0792 212.584 51.9518 212.891 51.9518 213.259C51.9518 213.637 52.0745 213.948 52.3199 214.194C52.5748 214.439 52.9241 214.562 53.3678 214.562ZM58.7812 209.705C58.5075 209.705 58.2715 209.611 58.0732 209.422C57.8845 209.224 57.7901 208.983 57.7901 208.7C57.7901 208.426 57.8845 208.195 58.0732 208.006C58.2715 207.817 58.5075 207.723 58.7812 207.723C59.0644 207.723 59.3004 207.817 59.4892 208.006C59.6874 208.195 59.7865 208.426 59.7865 208.7C59.7865 208.983 59.6874 209.224 59.4892 209.422C59.3004 209.611 59.0644 209.705 58.7812 209.705ZM58.0308 217.96V210.937H59.5317V217.96H58.0308ZM61.0949 217.96V210.937H62.5391L62.5675 211.971C62.8034 211.584 63.1291 211.286 63.5445 211.079C63.9692 210.871 64.4176 210.767 64.8896 210.767C65.7109 210.767 66.3764 211.027 66.8861 211.546C67.3958 212.056 67.6507 212.82 67.6507 213.84V217.96H66.1498V214.024C66.1498 213.391 66.0082 212.905 65.725 212.565C65.4418 212.216 65.017 212.041 64.4507 212.041C63.8937 212.041 63.4453 212.235 63.1055 212.622C62.7657 213 62.5958 213.523 62.5958 214.194V217.96H61.0949ZM72.2576 218.13C71.5685 218.13 70.9597 217.974 70.4311 217.663C69.9024 217.351 69.4871 216.917 69.185 216.36C68.8924 215.803 68.7461 215.166 68.7461 214.449C68.7461 213.703 68.8924 213.056 69.185 212.509C69.4777 211.961 69.8883 211.536 70.4169 211.234C70.955 210.923 71.5733 210.767 72.2718 210.767C72.9515 210.767 73.5462 210.918 74.0559 211.22C74.5656 211.513 74.9621 211.914 75.2453 212.424C75.5379 212.933 75.6842 213.514 75.6842 214.165C75.6842 214.297 75.6795 214.411 75.6701 214.505C75.6701 214.6 75.6606 214.713 75.6418 214.845H70.247C70.2753 215.241 70.3744 215.595 70.5443 215.907C70.7143 216.209 70.9455 216.45 71.2382 216.629C71.5308 216.799 71.8659 216.884 72.2435 216.884C72.6494 216.884 72.9939 216.794 73.2771 216.615C73.5698 216.426 73.7869 216.162 73.9285 215.822H75.486C75.3633 216.247 75.1556 216.634 74.863 216.983C74.5798 217.332 74.2211 217.611 73.7869 217.818C73.3526 218.026 72.8429 218.13 72.2576 218.13ZM70.2612 213.783H74.155C74.1361 213.236 73.9426 212.806 73.5745 212.495C73.2063 212.174 72.7579 212.013 72.2293 212.013C71.7573 212.013 71.3278 212.159 70.9408 212.452C70.5538 212.745 70.3272 213.188 70.2612 213.783ZM80.0531 218.13C79.364 218.13 78.7552 217.974 78.2265 217.663C77.6979 217.351 77.2826 216.917 76.9805 216.36C76.6879 215.803 76.5416 215.166 76.5416 214.449C76.5416 213.703 76.6879 213.056 76.9805 212.509C77.2731 211.961 77.6838 211.536 78.2124 211.234C78.7504 210.923 79.3687 210.767 80.0673 210.767C80.7469 210.767 81.3416 210.918 81.8514 211.22C82.3611 211.513 82.7576 211.914 83.0408 212.424C83.3334 212.933 83.4797 213.514 83.4797 214.165C83.4797 214.297 83.475 214.411 83.4656 214.505C83.4656 214.6 83.4561 214.713 83.4372 214.845H78.0425C78.0708 215.241 78.1699 215.595 78.3398 215.907C78.5097 216.209 78.741 216.45 79.0336 216.629C79.3263 216.799 79.6614 216.884 80.039 216.884C80.4449 216.884 80.7894 216.794 81.0726 216.615C81.3652 216.426 81.5823 216.162 81.7239 215.822H83.2815C83.1588 216.247 82.9511 216.634 82.6585 216.983C82.3753 217.332 82.0166 217.611 81.5823 217.818C81.1481 218.026 80.6384 218.13 80.0531 218.13ZM78.0566 213.783H81.9505C81.9316 213.236 81.7381 212.806 81.37 212.495C81.0018 212.174 80.5534 212.013 80.0248 212.013C79.5528 212.013 79.1233 212.159 78.7363 212.452C78.3493 212.745 78.1227 213.188 78.0566 213.783ZM84.5919 217.96V210.937H86.0362L86.0786 212.126C86.3146 211.702 86.6356 211.371 87.0415 211.135C87.4568 210.89 87.943 210.767 88.4999 210.767V212.339H88.0893C87.4191 212.339 86.9188 212.513 86.5884 212.863C86.258 213.202 86.0928 213.726 86.0928 214.434V217.96H84.5919ZM90.2917 209.705C90.0179 209.705 89.7819 209.611 89.5837 209.422C89.3949 209.224 89.3005 208.983 89.3005 208.7C89.3005 208.426 89.3949 208.195 89.5837 208.006C89.7819 207.817 90.0179 207.723 90.2917 207.723C90.5748 207.723 90.8108 207.817 90.9996 208.006C91.1979 208.195 91.297 208.426 91.297 208.7C91.297 208.983 91.1979 209.224 90.9996 209.422C90.8108 209.611 90.5748 209.705 90.2917 209.705ZM89.5412 217.96V210.937H91.0421V217.96H89.5412ZM92.6053 217.96V210.937H94.0496L94.0779 211.971C94.3139 211.584 94.6395 211.286 95.0549 211.079C95.4797 210.871 95.9281 210.767 96.4 210.767C97.2213 210.767 97.8868 211.027 98.3965 211.546C98.9063 212.056 99.1612 212.82 99.1612 213.84V217.96H97.6602V214.024C97.6602 213.391 97.5186 212.905 97.2355 212.565C96.9523 212.216 96.5275 212.041 95.9611 212.041C95.4042 212.041 94.9558 212.235 94.6159 212.622C94.2761 213 94.1062 213.523 94.1062 214.194V217.96H92.6053ZM103.401 221.245C102.807 221.245 102.254 221.174 101.745 221.033C101.235 220.891 100.824 220.655 100.513 220.325C100.211 220.004 100.06 219.574 100.06 219.036C100.06 218.677 100.14 218.375 100.3 218.13C100.461 217.885 100.687 217.682 100.98 217.521C100.744 217.389 100.56 217.219 100.428 217.011C100.296 216.804 100.23 216.563 100.23 216.289C100.23 215.695 100.503 215.227 101.051 214.887C100.853 214.67 100.697 214.425 100.584 214.151C100.47 213.877 100.414 213.58 100.414 213.259C100.414 212.749 100.536 212.31 100.782 211.942C101.027 211.565 101.362 211.277 101.787 211.079C102.212 210.871 102.698 210.767 103.246 210.767C103.651 210.767 104.024 210.824 104.364 210.937H106.828V212.112H105.794C105.879 212.292 105.945 212.476 105.992 212.664C106.049 212.853 106.077 213.051 106.077 213.259C106.077 213.778 105.95 214.227 105.695 214.604C105.45 214.972 105.115 215.26 104.69 215.468C104.265 215.666 103.784 215.765 103.246 215.765C103 215.765 102.774 215.742 102.566 215.695C102.358 215.638 102.151 215.562 101.943 215.468C101.716 215.581 101.603 215.756 101.603 215.992C101.603 216.436 101.976 216.657 102.722 216.657H103.953C104.501 216.657 104.973 216.733 105.369 216.884C105.775 217.026 106.087 217.257 106.304 217.578C106.531 217.899 106.644 218.319 106.644 218.838C106.644 219.348 106.493 219.782 106.191 220.141C105.898 220.499 105.506 220.773 105.015 220.962C104.525 221.151 103.987 221.245 103.401 221.245ZM103.387 220.042C103.897 220.042 104.331 219.952 104.69 219.773C105.048 219.593 105.228 219.319 105.228 218.951C105.228 218.272 104.789 217.932 103.911 217.932H102.792C102.377 217.932 102.051 218.017 101.815 218.187C101.579 218.357 101.461 218.611 101.461 218.951C101.461 219.216 101.551 219.428 101.73 219.588C101.91 219.749 102.146 219.862 102.438 219.928C102.731 220.004 103.047 220.042 103.387 220.042ZM103.231 214.562C103.656 214.562 104.001 214.439 104.265 214.194C104.539 213.948 104.676 213.637 104.676 213.259C104.676 212.891 104.539 212.584 104.265 212.339C104.001 212.093 103.656 211.971 103.231 211.971C102.807 211.971 102.462 212.093 102.198 212.339C101.943 212.584 101.815 212.891 101.815 213.259C101.815 213.637 101.938 213.948 102.184 214.194C102.438 214.439 102.788 214.562 103.231 214.562Z" fill="black"/>
<path d="M14.9614 200.3C15.0873 200.174 15.2595 200.094 15.4582 200.094L23.4078 200.091C23.792 200.091 24.1101 200.409 24.1103 200.793C24.1104 201.178 23.7925 201.496 23.4083 201.496L16.1609 201.498L16.1633 208.746C16.1634 209.13 15.8456 209.448 15.4613 209.448C15.0771 209.448 14.759 209.131 14.7589 208.746L14.7562 200.797C14.7562 200.598 14.8356 200.426 14.9614 200.3Z" fill="#B3B3B3"/>
<circle cx="13.552" cy="198.014" r="3.05982" fill="#00A2FF"/>
</svg>
