<svg width="114" height="114" viewBox="0 0 114 114" fill="none" xmlns="http://www.w3.org/2000/svg">
<circle cx="56.8252" cy="56.8252" r="56.8252" fill="white"/>
<circle cx="56.8252" cy="56.8252" r="56.3827" stroke="#B3B3B3" stroke-opacity="0.4" stroke-width="0.884969"/>
<rect x="81.3027" y="0.87439" width="22.7301" height="22.7301" rx="11.365" fill="#E6F6FF"/>
<circle cx="92.6676" cy="12.2394" r="7.07975" fill="#00A2FF"/>
<path d="M21.9575 62.8314V52.9197H25.1717C26.3516 52.9197 27.3145 53.1227 28.0602 53.5286C28.8154 53.9345 29.3723 54.5103 29.731 55.256C30.0898 56.0018 30.2691 56.8796 30.2691 57.8897C30.2691 58.9281 30.0803 59.8154 29.7027 60.5517C29.3251 61.288 28.7588 61.8544 28.0036 62.2508C27.2484 62.6378 26.3044 62.8314 25.1717 62.8314H21.9575ZM23.4584 61.557H25.115C26.0118 61.557 26.7198 61.4107 27.239 61.1181C27.7676 60.8254 28.1452 60.4054 28.3717 59.8579C28.6077 59.3104 28.7257 58.6543 28.7257 57.8897C28.7257 56.6248 28.4331 55.6902 27.8478 55.0861C27.2626 54.482 26.3516 54.1799 25.115 54.1799H23.4584V61.557ZM32.41 54.5764C32.1362 54.5764 31.9002 54.482 31.702 54.2932C31.5132 54.0949 31.4188 53.8542 31.4188 53.571C31.4188 53.2973 31.5132 53.066 31.702 52.8772C31.9002 52.6884 32.1362 52.594 32.41 52.594C32.6931 52.594 32.9291 52.6884 33.1179 52.8772C33.3162 53.066 33.4153 53.2973 33.4153 53.571C33.4153 53.8542 33.3162 54.0949 33.1179 54.2932C32.9291 54.482 32.6931 54.5764 32.41 54.5764ZM31.6595 62.8314V55.8082H33.1604V62.8314H31.6595ZM37.513 63.0013C36.9655 63.0013 36.4652 62.9069 36.0121 62.7181C35.559 62.5199 35.1909 62.2414 34.9077 61.8827C34.6245 61.524 34.4593 61.1039 34.4121 60.6225H35.9272C35.9932 60.9623 36.1679 61.2408 36.4511 61.4579C36.7343 61.675 37.0882 61.7836 37.513 61.7836C37.8906 61.7836 38.1974 61.7033 38.4334 61.5428C38.6694 61.3729 38.7874 61.1511 38.7874 60.8773C38.7874 60.6414 38.7071 60.4573 38.5467 60.3251C38.3956 60.193 38.1974 60.0891 37.952 60.0136C37.716 59.9381 37.4564 59.872 37.1732 59.8154C36.739 59.7115 36.3283 59.5841 35.9413 59.4331C35.5637 59.282 35.2569 59.0744 35.0209 58.8101C34.785 58.5457 34.667 58.1918 34.667 57.7481C34.667 57.3139 34.7802 56.941 35.0068 56.6295C35.2428 56.3085 35.5637 56.0631 35.9696 55.8932C36.3755 55.7233 36.8334 55.6383 37.3431 55.6383C38.1077 55.6383 38.7449 55.8318 39.2546 56.2189C39.7644 56.5965 40.0476 57.1534 40.1042 57.8897H38.6599C38.6222 57.5593 38.4806 57.3044 38.2352 57.1251C37.9992 56.9457 37.6924 56.856 37.3148 56.856C36.9655 56.856 36.6823 56.9268 36.4652 57.0684C36.2481 57.2006 36.1396 57.4035 36.1396 57.6773C36.1396 57.8661 36.2151 58.0266 36.3661 58.1587C36.5171 58.2814 36.7107 58.3853 36.9466 58.4702C37.1921 58.5457 37.4469 58.6165 37.7113 58.6826C38.1927 58.7865 38.6222 58.9139 38.9998 59.0649C39.3774 59.216 39.6794 59.4284 39.906 59.7021C40.1325 59.9759 40.2505 60.3534 40.26 60.8349C40.26 61.2691 40.1373 61.6514 39.8918 61.9818C39.6558 62.3027 39.3302 62.5529 38.9148 62.7322C38.5089 62.9116 38.0416 63.0013 37.513 63.0013ZM44.7528 63.0013C44.0638 63.0013 43.4549 62.8455 42.9263 62.534C42.3976 62.2225 41.9823 61.793 41.6802 61.2455C41.3782 60.6886 41.2271 60.0467 41.2271 59.3198C41.2271 58.6024 41.3734 57.9652 41.6661 57.4083C41.9587 56.8513 42.3693 56.4171 42.898 56.1056C43.4266 55.7941 44.0449 55.6383 44.7528 55.6383C45.593 55.6383 46.301 55.8554 46.8768 56.2897C47.462 56.7145 47.8443 57.3139 48.0237 58.0879H46.4378C46.3529 57.7387 46.1546 57.4555 45.8431 57.2384C45.5411 57.0212 45.1729 56.9127 44.7387 56.9127C44.295 56.9127 43.9269 57.026 43.6342 57.2525C43.3416 57.4696 43.1198 57.7623 42.9687 58.1304C42.8272 58.4891 42.7564 58.8856 42.7564 59.3198C42.7564 59.7729 42.8319 60.1835 42.9829 60.5517C43.1434 60.9104 43.3699 61.1983 43.6626 61.4154C43.9646 61.6231 44.3233 61.7269 44.7387 61.7269C45.1635 61.7269 45.5269 61.6278 45.829 61.4296C46.131 61.2219 46.334 60.9245 46.4378 60.5375H48.0237C47.9104 61.0378 47.7027 61.472 47.4007 61.8402C47.0986 62.2083 46.721 62.4963 46.2679 62.7039C45.8148 62.9022 45.3098 63.0013 44.7528 63.0013ZM52.5638 63.0013C51.8841 63.0013 51.2706 62.855 50.7231 62.5623C50.185 62.2603 49.7555 61.8308 49.4346 61.2738C49.123 60.7169 48.9673 60.0608 48.9673 59.3056C48.9673 58.5505 49.1278 57.8991 49.4487 57.3516C49.7791 56.8041 50.218 56.3841 50.7655 56.0914C51.3225 55.7894 51.9408 55.6383 52.6204 55.6383C53.3001 55.6383 53.9137 55.7846 54.4612 56.0773C55.0087 56.3699 55.4476 56.79 55.778 57.3375C56.1084 57.885 56.2736 58.541 56.2736 59.3056C56.2736 60.0231 56.1131 60.6602 55.7922 61.2172C55.4807 61.7741 55.0464 62.2131 54.4895 62.534C53.9326 62.8455 53.2907 63.0013 52.5638 63.0013ZM52.578 61.6986C52.9933 61.6986 53.3615 61.5948 53.6824 61.3871C54.0128 61.1794 54.2724 60.8962 54.4612 60.5375C54.65 60.1694 54.7444 59.754 54.7444 59.2915C54.7444 58.8195 54.65 58.4089 54.4612 58.0596C54.2818 57.7009 54.0317 57.4271 53.7107 57.2384C53.3898 57.0401 53.0169 56.941 52.5921 56.941C52.1485 56.941 51.7662 57.0448 51.4452 57.2525C51.1337 57.4602 50.893 57.7434 50.7231 58.1021C50.5626 58.4514 50.4824 58.8525 50.4824 59.3056C50.4824 59.8248 50.5768 60.2638 50.7655 60.6225C50.9638 60.9812 51.2234 61.2502 51.5443 61.4296C51.8653 61.6089 52.2098 61.6986 52.578 61.6986ZM59.1389 62.8314L56.4911 55.8082H58.0769L60.031 61.4437L61.9991 55.8082H63.5567L60.9088 62.8314H59.1389ZM67.3093 63.0013C66.6202 63.0013 66.0113 62.8455 65.4827 62.534C64.9541 62.2225 64.5387 61.7883 64.2367 61.2313C63.944 60.6744 63.7977 60.0372 63.7977 59.3198C63.7977 58.5741 63.944 57.9274 64.2367 57.3799C64.5293 56.8324 64.9399 56.4077 65.4685 56.1056C66.0066 55.7941 66.6249 55.6383 67.3234 55.6383C68.0031 55.6383 68.5978 55.7894 69.1075 56.0914C69.6173 56.3841 70.0137 56.7852 70.2969 57.295C70.5896 57.8047 70.7359 58.3853 70.7359 59.0366C70.7359 59.1688 70.7312 59.282 70.7217 59.3764C70.7217 59.4708 70.7123 59.5841 70.6934 59.7163H65.2986C65.3269 60.1127 65.4261 60.4667 65.596 60.7782C65.7659 61.0803 65.9972 61.321 66.2898 61.5004C66.5824 61.6703 66.9175 61.7552 67.2951 61.7552C67.701 61.7552 68.0456 61.6656 68.3288 61.4862C68.6214 61.2974 68.8385 61.0331 68.9801 60.6933H70.5376C70.4149 61.1181 70.2073 61.5051 69.9146 61.8544C69.6314 62.2036 69.2727 62.4821 68.8385 62.6898C68.4043 62.8974 67.8945 63.0013 67.3093 63.0013ZM65.3128 58.6543H69.2066C69.1878 58.1068 68.9943 57.6773 68.6261 57.3658C68.258 57.0448 67.8096 56.8844 67.281 56.8844C66.809 56.8844 66.3795 57.0307 65.9924 57.3233C65.6054 57.6159 65.3789 58.0596 65.3128 58.6543ZM71.8481 62.8314V55.8082H73.2923L73.3348 56.9976C73.5708 56.5729 73.8918 56.2425 74.2977 56.0065C74.713 55.761 75.1991 55.6383 75.7561 55.6383V57.21H75.3455C74.6752 57.21 74.1749 57.3847 73.8446 57.7339C73.5142 58.0738 73.349 58.5977 73.349 59.3056V62.8314H71.8481ZM77.4062 65.9465L78.9638 62.5199L76.0328 55.8082H77.6894L79.7567 60.934L81.9089 55.8082H83.4807L78.9921 65.9465H77.4062ZM90.6446 63.0013C90.182 63.0013 89.7573 62.9305 89.3702 62.7889C88.9832 62.6378 88.6481 62.4302 88.3649 62.1659C88.0817 61.9016 87.8599 61.5948 87.6994 61.2455C87.5484 60.8868 87.4729 60.495 87.4729 60.0703C87.4729 59.7021 87.5389 59.3576 87.6711 59.0366C87.8032 58.7062 87.9779 58.4042 88.195 58.1304C88.4215 57.8567 88.6764 57.6207 88.9596 57.4224L89.0587 57.3375L88.9596 57.1959C88.7331 56.9032 88.5584 56.6106 88.4357 56.318C88.3224 56.0159 88.2658 55.6997 88.2658 55.3693C88.2658 54.8596 88.3838 54.4112 88.6198 54.0241C88.8652 53.6277 89.205 53.3162 89.6393 53.0896C90.0735 52.8631 90.5785 52.7498 91.1543 52.7498C91.7396 52.7498 92.2493 52.8631 92.6836 53.0896C93.1178 53.3162 93.4576 53.6371 93.703 54.0525C93.9485 54.4584 94.0712 54.9492 94.0712 55.5251H92.5986C92.5986 55.2419 92.542 54.9917 92.4287 54.7746C92.3248 54.5575 92.1644 54.3876 91.9473 54.2649C91.7301 54.1327 91.4611 54.0666 91.1402 54.0666C90.8381 54.0666 90.5832 54.128 90.3756 54.2507C90.1679 54.3734 90.0121 54.5339 89.9083 54.7321C89.8045 54.9304 89.7525 55.1475 89.7525 55.3835C89.7525 55.7799 89.8989 56.1575 90.1915 56.5162C90.4936 56.8749 90.8806 57.2903 91.3526 57.7623L93.2358 59.6313L94.7084 57.0968H96.2942L94.1986 60.5942L96.45 62.8314H94.5668L93.4057 61.6703L93.3066 61.7977C92.9667 62.1659 92.575 62.4585 92.1313 62.6756C91.6971 62.8927 91.2015 63.0013 90.6446 63.0013ZM90.7295 61.6561C91.0788 61.6561 91.3903 61.5853 91.6641 61.4437C91.9378 61.2927 92.2116 61.0614 92.4853 60.7499L89.9791 58.2862C89.6581 58.5127 89.408 58.7676 89.2286 59.0508C89.0493 59.3245 88.9596 59.6313 88.9596 59.9711C88.9596 60.2732 89.0351 60.5517 89.1862 60.8066C89.3372 61.0614 89.5449 61.2691 89.8092 61.4296C90.0829 61.5806 90.3897 61.6561 90.7295 61.6561ZM21.9575 79.8314V69.9197H23.4584V79.8314H21.9575ZM28.218 80.0013C27.5194 80.0013 26.9153 79.8361 26.4056 79.5057C25.9052 79.1659 25.5182 78.7175 25.2445 78.1605C24.9802 77.6036 24.848 76.9806 24.848 76.2915C24.848 75.6118 24.9802 74.9982 25.2445 74.4507C25.5182 73.8938 25.9052 73.4549 26.4056 73.1339C26.9153 72.8035 27.5194 72.6383 28.218 72.6383C28.7372 72.6383 29.2091 72.7469 29.6339 72.964C30.0587 73.1717 30.4033 73.469 30.6676 73.856V69.9197H32.1826V79.8314H30.7242L30.6676 78.7411C30.441 79.1092 30.1153 79.4113 29.6906 79.6473C29.2658 79.8833 28.7749 80.0013 28.218 80.0013ZM28.5153 78.6844C28.959 78.6844 29.3413 78.5806 29.6622 78.3729C29.9832 78.1653 30.2286 77.8821 30.3985 77.5234C30.5684 77.1647 30.6534 76.7635 30.6534 76.3198C30.6534 75.8101 30.5543 75.3806 30.3561 75.0313C30.1673 74.682 29.9077 74.413 29.5773 74.2242C29.2563 74.0354 28.8976 73.941 28.5012 73.941C28.0953 73.941 27.7318 74.0401 27.4109 74.2384C27.0899 74.4366 26.8351 74.7103 26.6463 75.0596C26.4669 75.4089 26.3772 75.8242 26.3772 76.3056C26.3772 76.7776 26.4716 77.193 26.6604 77.5517C26.8492 77.9104 27.1041 78.1889 27.425 78.3871C27.746 78.5853 28.1094 78.6844 28.5153 78.6844ZM36.9017 80.0013C36.2126 80.0013 35.6038 79.8455 35.0752 79.534C34.5465 79.2225 34.1312 78.7883 33.8291 78.2313C33.5365 77.6744 33.3902 77.0372 33.3902 76.3198C33.3902 75.5741 33.5365 74.9274 33.8291 74.3799C34.1217 73.8324 34.5324 73.4077 35.061 73.1056C35.5991 72.7941 36.2174 72.6383 36.9159 72.6383C37.5955 72.6383 38.1902 72.7894 38.7 73.0914C39.2097 73.3841 39.6062 73.7852 39.8894 74.295C40.182 74.8047 40.3283 75.3853 40.3283 76.0366C40.3283 76.1688 40.3236 76.282 40.3142 76.3764C40.3142 76.4708 40.3047 76.5841 40.2859 76.7163H34.8911C34.9194 77.1127 35.0185 77.4667 35.1884 77.7782C35.3583 78.0803 35.5896 78.321 35.8822 78.5004C36.1749 78.6703 36.51 78.7552 36.8876 78.7552C37.2935 78.7552 37.638 78.6656 37.9212 78.4862C38.2138 78.2974 38.431 78.0331 38.5726 77.6933H40.1301C40.0074 78.1181 39.7997 78.5051 39.5071 78.8544C39.2239 79.2036 38.8652 79.4821 38.431 79.6898C37.9967 79.8974 37.487 80.0013 36.9017 80.0013ZM34.9052 75.6543H38.7991C38.7802 75.1068 38.5867 74.6773 38.2186 74.3658C37.8504 74.0448 37.402 73.8844 36.8734 73.8844C36.4014 73.8844 35.9719 74.0307 35.5849 74.3233C35.1979 74.6159 34.9713 75.0596 34.9052 75.6543ZM43.6919 80.0013C43.2388 80.0013 42.8234 79.921 42.4458 79.7606C42.0683 79.5906 41.7662 79.3452 41.5396 79.0243C41.3131 78.7033 41.1998 78.3163 41.1998 77.8632C41.1998 77.3251 41.332 76.8956 41.5963 76.5747C41.87 76.2443 42.2334 76.0036 42.6866 75.8525C43.1491 75.6921 43.6541 75.6118 44.2016 75.6118H45.9857C45.9857 75.2059 45.9196 74.8803 45.7875 74.6348C45.6553 74.3799 45.476 74.1959 45.2494 74.0826C45.0229 73.9599 44.7586 73.8985 44.4565 73.8985C44.06 73.8985 43.7108 73.9929 43.4087 74.1817C43.1161 74.3611 42.932 74.649 42.8565 75.0454H41.3414C41.3886 74.5357 41.5585 74.1015 41.8511 73.7428C42.1532 73.3841 42.5355 73.1103 42.9981 72.9215C43.4606 72.7327 43.9515 72.6383 44.4707 72.6383C45.1503 72.6383 45.712 72.7658 46.1556 73.0206C46.6087 73.2661 46.9438 73.6106 47.161 74.0543C47.3875 74.4979 47.5008 75.003 47.5008 75.5693V77.7216C47.5102 77.9953 47.5669 78.1983 47.6707 78.3305C47.784 78.4532 47.9822 78.524 48.2654 78.5428V79.8314C47.8878 79.8314 47.5574 79.7889 47.2742 79.7039C47.0005 79.619 46.7739 79.4915 46.5946 79.3216C46.4152 79.1423 46.2736 78.9157 46.1698 78.642C45.9432 79.0195 45.6129 79.3405 45.1786 79.6048C44.7444 79.8691 44.2488 80.0013 43.6919 80.0013ZM44.0459 78.7694C44.4329 78.7694 44.7727 78.675 45.0654 78.4862C45.358 78.288 45.5845 78.0331 45.745 77.7216C45.9055 77.4006 45.9857 77.0561 45.9857 76.6879V76.6596H44.3149C44.0411 76.6596 43.7816 76.6927 43.5361 76.7587C43.3001 76.8248 43.1066 76.9381 42.9556 77.0986C42.814 77.2496 42.7432 77.462 42.7432 77.7358C42.7432 78.0945 42.8706 78.3588 43.1255 78.5287C43.3804 78.6892 43.6872 78.7694 44.0459 78.7694ZM51.79 79.8314C51.0915 79.8314 50.5534 79.6614 50.1758 79.3216C49.7982 78.9818 49.6094 78.4248 49.6094 77.6508V74.0684H48.5475V72.8082H49.6094V71.1091H51.1104V72.8082H52.8945V74.0684H51.1104V77.6508C51.1104 78.0095 51.1906 78.2502 51.3511 78.3729C51.5115 78.4956 51.7617 78.557 52.1015 78.557H52.8945V79.8314H51.79ZM54.9496 71.5764C54.6758 71.5764 54.4398 71.482 54.2416 71.2932C54.0528 71.0949 53.9584 70.8542 53.9584 70.571C53.9584 70.2973 54.0528 70.066 54.2416 69.8772C54.4398 69.6884 54.6758 69.594 54.9496 69.594C55.2328 69.594 55.4688 69.6884 55.6575 69.8772C55.8558 70.066 55.9549 70.2973 55.9549 70.571C55.9549 70.8542 55.8558 71.0949 55.6575 71.2932C55.4688 71.482 55.2328 71.5764 54.9496 71.5764ZM54.1991 79.8314V72.8082H55.7V79.8314H54.1991ZM60.6049 80.0013C59.9252 80.0013 59.3116 79.855 58.7641 79.5623C58.2261 79.2603 57.7966 78.8308 57.4756 78.2738C57.1641 77.7169 57.0083 77.0608 57.0083 76.3056C57.0083 75.5505 57.1688 74.8991 57.4898 74.3516C57.8202 73.8041 58.2591 73.3841 58.8066 73.0914C59.3635 72.7894 59.9818 72.6383 60.6615 72.6383C61.3412 72.6383 61.9547 72.7846 62.5022 73.0773C63.0497 73.3699 63.4887 73.79 63.8191 74.3375C64.1495 74.885 64.3147 75.541 64.3147 76.3056C64.3147 77.0231 64.1542 77.6602 63.8332 78.2172C63.5217 78.7741 63.0875 79.2131 62.5306 79.534C61.9736 79.8455 61.3317 80.0013 60.6049 80.0013ZM60.619 78.6986C61.0344 78.6986 61.4025 78.5948 61.7235 78.3871C62.0538 78.1794 62.3134 77.8962 62.5022 77.5375C62.691 77.1694 62.7854 76.754 62.7854 76.2915C62.7854 75.8195 62.691 75.4089 62.5022 75.0596C62.3229 74.7009 62.0727 74.4271 61.7518 74.2384C61.4308 74.0401 61.058 73.941 60.6332 73.941C60.1895 73.941 59.8072 74.0448 59.4863 74.2525C59.1747 74.4602 58.934 74.7434 58.7641 75.1021C58.6036 75.4514 58.5234 75.8525 58.5234 76.3056C58.5234 76.8248 58.6178 77.2638 58.8066 77.6225C59.0048 77.9812 59.2644 78.2502 59.5854 78.4296C59.9063 78.6089 60.2509 78.6986 60.619 78.6986ZM65.515 79.8314V72.8082H66.9593L66.9876 73.8419C67.2236 73.4549 67.5493 73.1575 67.9646 72.9498C68.3894 72.7422 68.8378 72.6383 69.3097 72.6383C70.131 72.6383 70.7965 72.8979 71.3062 73.4171C71.816 73.9268 72.0709 74.6915 72.0709 75.7109V79.8314H70.5699V75.895C70.5699 75.2626 70.4284 74.7764 70.1452 74.4366C69.862 74.0873 69.4372 73.9127 68.8708 73.9127C68.3139 73.9127 67.8655 74.1062 67.5257 74.4932C67.1858 74.8708 67.0159 75.3947 67.0159 76.0649V79.8314H65.515Z" fill="black"/>
</svg>
