<svg width="50" height="50" viewBox="0 0 50 50" fill="none" xmlns="http://www.w3.org/2000/svg">
<rect width="50" height="50" rx="25" fill="white"/>
<path d="M20.8163 28.537C22.3713 28.1364 23.8487 27.5894 25.2399 26.9303C23.0949 23.0882 18.7359 20.4521 13.7179 20.4521C13.7007 20.4521 13.6791 20.4521 13.6619 20.4521C13.0976 21.8606 12.7832 23.394 12.7832 25.0007C12.7832 26.5125 13.0589 27.9555 13.5585 29.2907C15.9318 29.407 18.3741 29.1658 20.8163 28.537Z" fill="#24283D"/>
<path d="M25.6369 27.6924C24.1897 28.3816 22.652 28.9501 21.0324 29.3679C18.9046 29.915 16.7768 30.1777 14.6921 30.1777C14.4379 30.1777 14.1838 30.1734 13.9297 30.1648C15.8766 34.3299 20.1021 37.2201 25.0038 37.2201C25.1761 37.2201 25.344 37.2158 25.512 37.2072C26.2486 35.7169 26.6621 34.0629 26.6621 32.3227C26.6621 30.6817 26.296 29.1138 25.6369 27.6924Z" fill="#24283D"/>
<path d="M26.4023 27.3096C27.1217 28.8516 27.5179 30.5444 27.5179 32.3233C27.5179 34.0204 27.1518 35.6442 26.4971 37.1259C28.3794 36.8977 30.1282 36.2386 31.6443 35.2566C31.6443 35.1833 31.6486 35.1101 31.6486 35.0369C31.6486 31.5954 30.8733 28.3304 29.495 25.4058C28.5258 26.1035 27.4878 26.741 26.4023 27.3096Z" fill="#24283D"/>
<path d="M26.0106 26.5461C27.1047 25.9776 28.1384 25.3315 29.1076 24.6208C26.8247 20.2316 23.1506 16.6781 18.671 14.5503C16.6896 15.7563 15.0744 17.5094 14.0449 19.6028C19.2611 19.7104 23.7708 22.5059 26.0106 26.5461Z" fill="#24283D"/>
<path d="M35.0995 18.1175C33.816 16.2395 32.0241 14.7405 29.9222 13.8145C29.9006 14.0815 29.8877 14.3486 29.8877 14.6156C29.8877 17.2517 30.831 19.6896 32.4204 21.6624C33.4412 20.564 34.3328 19.3709 35.0995 18.1175Z" fill="#24283D"/>
<path d="M35.6022 18.9263C34.8398 20.1237 33.9698 21.2608 32.9834 22.3118C34.1464 23.5609 35.585 24.5861 37.2089 25.3054C37.2132 25.202 37.2175 25.0986 37.2175 24.9953C37.2218 22.7899 36.6317 20.7181 35.6022 18.9263Z" fill="#24283D"/>
<path d="M29.8015 24.0956C30.5165 23.5313 31.1884 22.924 31.8216 22.2865C30.0685 20.1501 29.0305 17.4925 29.0305 14.6152C29.0305 14.2318 29.052 13.8571 29.0908 13.4824C27.8115 13.0301 26.4375 12.7803 25.0031 12.7803C23.0606 12.7803 21.2213 13.2368 19.5889 14.0466C23.9436 16.2563 27.5229 19.7796 29.8015 24.0956Z" fill="#24283D"/>
<path d="M32.3897 22.9282C31.7048 23.6131 30.9726 24.2635 30.1973 24.8665C31.6273 27.8342 32.4414 31.1509 32.4974 34.6441C35.0688 32.6412 36.8219 29.639 37.1622 26.2147C35.323 25.4523 33.6948 24.3238 32.3897 22.9282Z" fill="#24283D"/>
</svg>
