<svg width="40" height="40" viewBox="0 0 40 40" fill="none" xmlns="http://www.w3.org/2000/svg">
<rect width="40" height="40" rx="20" fill="#00A2FF"/>
<path d="M16.6213 19.9786L12.5898 24.01V15.99C13.3916 16.7853 15.4351 18.7894 16.6213 19.9786ZM22.5319 20.7817C21.8406 21.515 21.0949 22.3232 19.9942 22.2754C18.7263 22.2267 18.3773 21.6996 17.3869 20.7228L13.0021 25.1075C13.1469 25.2637 13.3226 25.3881 13.5179 25.4729C13.7133 25.5577 13.9241 25.601 14.1371 25.6001H25.8619C26.2712 25.6006 26.6639 25.4389 26.9541 25.1504L22.5319 20.7817ZM23.2868 20.0268L27.4092 24.0903V15.9097L23.2868 20.0268ZM25.8619 14.3999H14.1371C13.9248 14.4003 13.7148 14.4437 13.5198 14.5274C13.3247 14.6112 13.1486 14.7335 13.0021 14.8871C13.5368 15.4187 18.5863 20.4037 18.9662 20.7817C19.1018 20.9169 19.2627 21.024 19.4398 21.0969C19.6168 21.1698 19.8065 21.2071 19.998 21.2066C20.1894 21.2061 20.3789 21.1679 20.5556 21.094C20.7322 21.0202 20.8926 20.9122 21.0275 20.7763C21.3036 20.4991 26.4942 15.3147 26.9595 14.8496C26.6672 14.561 26.2728 14.3994 25.8619 14.3999Z" fill="white"/>
</svg>
