<svg width="50" height="50" viewBox="0 0 50 50" fill="none" xmlns="http://www.w3.org/2000/svg">
<rect width="50" height="50" rx="25" fill="white"/>
<path d="M28.3653 17.3913H30.7691C31.0345 17.3913 31.2499 17.1478 31.2499 16.8478V13.1864C31.2499 12.9016 31.0561 12.6647 30.8052 12.6446C30.0403 12.5832 28.5461 12.5 27.4715 12.5C24.5192 12.5 22.5961 14.5 22.5961 18.1348V21.7391H19.2308C18.9654 21.7391 18.75 21.9826 18.75 22.2826V26.087C18.75 26.387 18.9654 26.6304 19.2308 26.6304H22.5961V36.9565C22.5961 37.2565 22.8115 37.5 23.0769 37.5H26.4422C26.7076 37.5 26.923 37.2565 26.923 36.9565V26.6304H30.3951C30.6403 26.6304 30.846 26.4223 30.873 26.1467L31.247 22.3424C31.2787 22.0207 31.0556 21.7391 30.7691 21.7391H26.923V19.0217C26.923 18.1212 27.5687 17.3913 28.3653 17.3913Z" fill="#24283D"/>
</svg>
