<svg width="26" height="20" viewBox="0 0 26 20" fill="none" xmlns="http://www.w3.org/2000/svg">
<path d="M14.1944 3.41508e-06C14.0769 0.000461214 13.9643 0.0473531 13.8812 0.130461C13.7981 0.213569 13.7512 0.326156 13.7507 0.443687C13.7512 0.561216 13.7981 0.673799 13.8812 0.756903C13.9643 0.840007 14.0769 0.886897 14.1944 0.887354H15.2862V2.55162C11.5278 3.45981 8.72926 6.87075 8.72926 10.9294C8.72926 15.6807 12.5646 19.5438 17.2854 19.5438C22.0062 19.5438 25.8372 15.6807 25.8372 10.9294C25.8372 6.87112 23.0417 3.46106 19.2846 2.55248V0.887354H20.3729C20.491 0.887817 20.6045 0.841334 20.6884 0.75813C20.7722 0.674927 20.8196 0.561819 20.8201 0.443687C20.8198 0.385193 20.8081 0.327317 20.7855 0.273363C20.7629 0.219408 20.7299 0.170433 20.6884 0.129233C20.6469 0.0880335 20.5976 0.0554154 20.5435 0.0332421C20.4894 0.0110688 20.4314 -0.00022563 20.3729 3.41508e-06H14.1944ZM16.1771 0.887354H18.3929V2.38632C18.0302 2.33901 17.6608 2.31494 17.2854 2.31494C16.91 2.31494 16.5398 2.33884 16.1771 2.38632V0.887354ZM17.2854 3.20582C21.5211 3.20582 24.9498 6.65588 24.9498 10.9294C24.9498 15.2029 21.5211 18.6565 17.2854 18.6565C13.0497 18.6565 9.62098 15.2029 9.62098 10.9294C9.62098 6.65588 13.0497 3.20582 17.2854 3.20582ZM3.42594 3.26845C3.36715 3.26822 3.3089 3.27963 3.25454 3.30202C3.20019 3.32441 3.1508 3.35734 3.10923 3.39891C3.06766 3.44048 3.03473 3.48987 3.01234 3.54422C2.98995 3.59858 2.97854 3.65683 2.97877 3.71562C2.979 3.77411 2.99075 3.83199 3.01334 3.88594C3.03594 3.9399 3.06894 3.98887 3.11046 4.03007C3.15199 4.07127 3.20122 4.10389 3.25535 4.12606C3.30948 4.14824 3.36744 4.15953 3.42594 4.1593H9.04854C9.10703 4.15953 9.165 4.14824 9.21913 4.12606C9.27325 4.10389 9.32249 4.07127 9.36401 4.03007C9.40553 3.98887 9.43853 3.9399 9.46113 3.88594C9.48373 3.83199 9.49547 3.77411 9.4957 3.71562C9.49593 3.65683 9.48452 3.59858 9.46213 3.54422C9.43974 3.48987 9.40681 3.44048 9.36524 3.39891C9.32368 3.35734 9.27429 3.32441 9.21993 3.30202C9.16558 3.27963 9.10732 3.26822 9.04854 3.26845H3.42594ZM17.2027 5.66173C17.1442 5.66196 17.0864 5.67371 17.0324 5.69631C16.9785 5.7189 16.9295 5.7519 16.8883 5.79343C16.8471 5.83495 16.8145 5.88418 16.7923 5.93831C16.7701 5.99244 16.7588 6.05041 16.7591 6.1089V11.6358C16.7587 11.6944 16.7699 11.7524 16.7921 11.8066C16.8142 11.8609 16.8468 11.9102 16.888 11.9518C16.9292 11.9934 16.9782 12.0265 17.0322 12.0492C17.0862 12.0718 17.1442 12.0836 17.2027 12.0838H20.3825C20.4413 12.0841 20.4997 12.0726 20.5541 12.0502C20.6085 12.0277 20.6579 11.9947 20.6995 11.9531C20.7411 11.9114 20.774 11.8619 20.7963 11.8075C20.8187 11.753 20.83 11.6947 20.8296 11.6358C20.8294 11.5773 20.8177 11.5194 20.7951 11.4655C20.7725 11.4115 20.7395 11.3625 20.6979 11.3213C20.6564 11.2801 20.6072 11.2475 20.5531 11.2254C20.4989 11.2032 20.441 11.1919 20.3825 11.1921H17.6464V6.1089C17.6467 6.05041 17.6354 5.99244 17.6132 5.93831C17.591 5.88418 17.5584 5.83495 17.5172 5.79342C17.476 5.7519 17.427 5.7189 17.3731 5.6963C17.3191 5.67371 17.2612 5.66196 17.2027 5.66173ZM1.28234 6.87881C1.22384 6.87858 1.16588 6.88988 1.11175 6.91205C1.05762 6.93422 1.00839 6.96684 0.966864 7.00804C0.925341 7.04924 0.892339 7.09822 0.869743 7.15217C0.847148 7.20613 0.835401 7.264 0.835172 7.3225C0.835401 7.38099 0.847148 7.43887 0.869743 7.49282C0.892339 7.54677 0.925341 7.59575 0.966864 7.63695C1.00839 7.67815 1.05762 7.71077 1.11175 7.73294C1.16588 7.75511 1.22384 7.76641 1.28234 7.76618H6.90494C6.96343 7.76641 7.0214 7.75511 7.07553 7.73294C7.12965 7.71077 7.17889 7.67815 7.22041 7.63695C7.26193 7.59575 7.29493 7.54677 7.31753 7.49282C7.34013 7.43887 7.35187 7.38099 7.3521 7.3225C7.35187 7.264 7.34013 7.20613 7.31753 7.15217C7.29493 7.09822 7.26193 7.04924 7.22041 7.00804C7.17889 6.96684 7.12965 6.93422 7.07553 6.91205C7.0214 6.88988 6.96343 6.87858 6.90494 6.87881H1.28234ZM0.447168 10.4857C0.388674 10.4855 0.330708 10.4968 0.276579 10.5189C0.22245 10.5411 0.173218 10.5737 0.131695 10.6149C0.0901717 10.6561 0.0571701 10.7051 0.0345744 10.7591C0.0119787 10.813 0.00023151 10.8709 3.3626e-06 10.9294C-0.000225051 10.9882 0.0111854 11.0464 0.0335768 11.1008C0.0559682 11.1551 0.0888976 11.2045 0.130466 11.2461C0.172035 11.2877 0.221421 11.3206 0.275777 11.343C0.330132 11.3654 0.388383 11.3768 0.447168 11.3765H6.06977C6.12855 11.3768 6.1868 11.3654 6.24116 11.343C6.29551 11.3206 6.3449 11.2877 6.38647 11.2461C6.42804 11.2045 6.46097 11.1551 6.48336 11.1008C6.50575 11.0464 6.51716 10.9882 6.51693 10.9294C6.5167 10.8709 6.50496 10.813 6.48236 10.7591C6.45976 10.7051 6.42676 10.6561 6.38524 10.6149C6.34372 10.5737 6.29449 10.5411 6.24036 10.5189C6.18623 10.4968 6.12826 10.4855 6.06977 10.4857H0.447168ZM1.28234 14.0926C1.22384 14.0924 1.16588 14.1037 1.11175 14.1258C1.05762 14.148 1.00839 14.1806 0.966864 14.2218C0.925341 14.263 0.892339 14.312 0.869743 14.3659C0.847148 14.4199 0.835401 14.4778 0.835172 14.5363C0.834942 14.5951 0.84635 14.6533 0.868741 14.7077C0.891131 14.762 0.92406 14.8114 0.965629 14.853C1.0072 14.8945 1.05659 14.9275 1.11094 14.9499C1.1653 14.9723 1.22355 14.9837 1.28234 14.9834H6.90494C6.96372 14.9837 7.02197 14.9723 7.07633 14.9499C7.13069 14.9275 7.18007 14.8945 7.22164 14.853C7.26321 14.8114 7.29614 14.762 7.31853 14.7077C7.34092 14.6533 7.35233 14.5951 7.3521 14.5363C7.35187 14.4778 7.34013 14.4199 7.31753 14.3659C7.29493 14.312 7.26193 14.263 7.22041 14.2218C7.17889 14.1806 7.12965 14.148 7.07553 14.1258C7.0214 14.1037 6.96343 14.0924 6.90494 14.0926H1.28234ZM3.42594 17.6995C3.36744 17.6993 3.30948 17.7105 3.25535 17.7327C3.20122 17.7549 3.15199 17.7875 3.11046 17.8287C3.06894 17.8699 3.03594 17.9189 3.01334 17.9728C2.99075 18.0268 2.979 18.0847 2.97877 18.1432C2.97854 18.202 2.98995 18.2602 3.01235 18.3146C3.03474 18.3689 3.06767 18.4183 3.10924 18.4599C3.1508 18.5014 3.20019 18.5344 3.25455 18.5567C3.3089 18.5791 3.36715 18.5905 3.42594 18.5903H9.04854C9.10732 18.5905 9.16557 18.5791 9.21993 18.5567C9.27428 18.5344 9.32367 18.5014 9.36524 18.4599C9.40681 18.4183 9.43974 18.3689 9.46213 18.3146C9.48452 18.2602 9.49593 18.202 9.4957 18.1432C9.49547 18.0847 9.48373 18.0268 9.46113 17.9728C9.43853 17.9189 9.40553 17.8699 9.36401 17.8287C9.32249 17.7875 9.27325 17.7549 9.21913 17.7327C9.165 17.7105 9.10703 17.6993 9.04854 17.6995H3.42594Z" fill="white"/>
</svg>
