<svg width="22" height="24" viewBox="0 0 22 24" fill="none" xmlns="http://www.w3.org/2000/svg">
<path d="M20.6671 7.34597L19.9664 8.04123C21.0635 9.47645 21.7459 11.1757 21.9416 12.9597C22.1373 14.7438 21.8391 16.5467 21.0784 18.1783C20.3177 19.8099 19.1226 21.2098 17.6193 22.2305C16.1159 23.2512 14.3599 23.8548 12.5364 23.9777C12.3045 23.9926 12.0743 24 11.8458 24C10.4236 24.003 9.01678 23.7118 7.717 23.1452C6.41722 22.5786 5.25369 21.7494 4.30228 20.7117C4.19484 20.5893 4.14044 20.4305 4.15073 20.2693C4.16101 20.108 4.23516 19.9571 4.35731 19.8488C4.47947 19.7406 4.63993 19.6835 4.80439 19.6899C4.96885 19.6962 5.12424 19.7655 5.23734 19.8829C6.80282 21.5841 8.98662 22.6133 11.3179 22.7486C13.6492 22.8839 15.9413 22.1143 17.7 20.606C19.4588 19.0976 20.5432 16.9711 20.7197 14.6851C20.8961 12.399 20.1504 10.1364 18.6432 8.38515C18.5406 8.2666 18.4872 8.11444 18.4937 7.95899C18.5003 7.80354 18.5663 7.65621 18.6785 7.54638L19.7774 6.46762C19.8541 6.3843 19.8953 6.2752 19.8925 6.1629C19.8896 6.05059 19.8429 5.94366 19.762 5.86423C19.681 5.78479 19.5721 5.73892 19.4577 5.73609C19.3433 5.73327 19.2322 5.77372 19.1473 5.84907L18.0056 6.96989C17.8982 7.07524 17.7557 7.139 17.6043 7.14946C17.4529 7.15991 17.3027 7.11636 17.1814 7.0268C15.9169 6.09581 14.4221 5.51326 12.8514 5.33938C12.6972 5.32293 12.5546 5.25124 12.4509 5.13802C12.3472 5.02481 12.2897 4.87802 12.2894 4.72577V2.73154C12.288 2.64948 12.3033 2.56798 12.3344 2.49179C12.3655 2.4156 12.4117 2.34624 12.4703 2.28775C12.5289 2.22926 12.5989 2.18281 12.676 2.1511C12.7531 2.1194 12.8358 2.10308 12.9194 2.10309H13.4966C13.6149 2.10309 13.7284 2.05695 13.8121 1.97482C13.8957 1.89269 13.9427 1.7813 13.9427 1.66515C13.9427 1.549 13.8957 1.43761 13.8121 1.35548C13.7284 1.27336 13.6149 1.22722 13.4966 1.22722H10.1899C10.0716 1.22722 9.9581 1.27336 9.87444 1.35548C9.79078 1.43761 9.74378 1.549 9.74378 1.66515C9.74378 1.7813 9.79078 1.89269 9.87444 1.97482C9.9581 2.05695 10.0716 2.10309 10.1899 2.10309H10.767C10.9342 2.10309 11.0944 2.16826 11.2126 2.28426C11.3308 2.40026 11.3971 2.5576 11.3971 2.72165V4.72577C11.3969 4.87802 11.3393 5.02481 11.2356 5.13802C11.132 5.25124 10.9893 5.32293 10.8351 5.33938C9.26443 5.51326 7.76962 6.09581 6.50511 7.0268C6.38382 7.11636 6.23361 7.15991 6.08221 7.14946C5.93081 7.139 5.78834 7.07524 5.68087 6.96989L4.53919 5.84907C4.45431 5.77372 4.34322 5.73327 4.22883 5.73609C4.11444 5.73892 4.00551 5.78479 3.92457 5.86423C3.84362 5.94366 3.7969 6.05059 3.79402 6.1629C3.79113 6.2752 3.8324 6.3843 3.90906 6.46762L5.00794 7.54638C5.12011 7.65621 5.18612 7.80354 5.19271 7.95899C5.1993 8.11444 5.14589 8.2666 5.04329 8.38515C3.53608 10.1364 2.79038 12.399 2.96682 14.6851C3.14327 16.9711 4.22768 19.0976 5.98648 20.606C7.74527 22.1143 10.0373 22.8839 12.3686 22.7486C14.6999 22.6133 16.8837 21.5841 18.4492 19.8829C18.5623 19.7655 18.7177 19.6962 18.8821 19.6899C19.0466 19.6835 19.207 19.7406 19.3292 19.8488C19.4513 19.9571 19.5255 20.108 19.5358 20.2693C19.5461 20.4305 19.4917 20.5893 19.3842 20.7117C18.4328 21.7494 17.2693 22.5786 15.9695 23.1452C14.6697 23.7118 13.2629 24.003 11.8407 24C11.6122 24 11.382 23.9926 11.1501 23.9777C9.32658 23.8548 7.5706 23.2512 6.06724 22.2305C4.56388 21.2098 3.36881 19.8099 2.60809 18.1783C1.84738 16.5467 1.54916 14.7438 1.74489 12.9597C1.94062 11.1757 2.623 9.47645 3.72012 8.04123L3.01942 7.34597C2.86948 7.19778 2.78621 6.99518 2.78898 6.78459C2.79176 6.574 2.88038 6.37343 3.03436 6.2291C3.18834 6.08477 3.39543 6.00848 3.61195 6.01779C3.82847 6.0271 4.02761 6.12125 4.16872 6.27861L5.31039 7.39943C6.39836 6.57776 7.67287 6.04003 9.02208 5.83531V2.72165C9.02208 2.18755 9.23701 1.67509 9.6198 1.29825C10.0026 0.921409 10.5235 0.710779 11.067 0.710779H11.8195H13.4966C14.0401 0.710779 14.561 0.921409 14.9438 1.29825C15.3266 1.67509 15.5415 2.18755 15.5415 2.72165C15.5415 3.25574 15.3266 3.7682 14.9438 4.14504C14.561 4.52188 14.0401 4.73251 13.4966 4.73251H12.9891V5.83531C14.3383 6.04003 15.6128 6.57776 16.7008 7.39943L17.8425 6.27861C17.9836 6.12125 18.1827 6.0271 18.3992 6.01779C18.6158 6.00848 18.8229 6.08477 18.9768 6.2291C19.1308 6.37343 19.2194 6.574 19.2222 6.78459C19.225 6.99518 19.1417 7.19778 18.9918 7.34597Z" fill="white"/>
</svg>
