<svg width="24" height="24" viewBox="0 0 24 24" fill="none" xmlns="http://www.w3.org/2000/svg">
<path d="M18.6624 0.113412C18.5898 0.0407954 18.4913 0 18.3886 0C18.2859 0 18.1874 0.0407954 18.1148 0.113412C18.0422 0.186028 18.0014 0.284517 18.0014 0.387212C18.0014 0.489906 18.0422 0.588395 18.1148 0.661011L19.2621 1.80834L14.6205 6.45158L12.2257 4.0568C12.1527 3.98629 12.0549 3.94727 11.9534 3.94816C11.8519 3.94904 11.7548 3.98975 11.683 4.06152C11.6113 4.13328 11.5706 4.23037 11.5697 4.33186C11.5688 4.43336 11.6078 4.53114 11.6783 4.60414L13.0275 5.95327L4.29193 14.6885C4.13287 14.8469 4.00676 15.0351 3.92087 15.2425C3.83499 15.4498 3.79103 15.6721 3.79155 15.8965V17.641L2.77145 18.6611C2.48611 18.9474 2.31141 19.3255 2.27834 19.7284C2.24528 20.1313 2.35598 20.5328 2.59081 20.8618L0.113449 23.3392C0.0408332 23.4118 2.42052e-05 23.5102 1.07642e-08 23.6129C-2.41837e-05 23.7156 0.0407384 23.814 0.11332 23.8866C0.185902 23.9593 0.284358 24.0001 0.387029 24.0001C0.4897 24.0001 0.588175 23.9594 0.660791 23.8868L3.1366 21.4094C3.42582 21.6181 3.77348 21.7303 4.13013 21.7299C5.03901 21.7299 5.41345 21.1542 6.36078 20.2074C7.99971 20.2092 8.66705 20.3542 9.31245 19.7088L18.0475 10.9735C19.5298 12.4558 19.4539 12.4362 19.6707 12.4362C19.7472 12.4362 19.822 12.4135 19.8856 12.371C19.9493 12.3285 19.9989 12.268 20.0282 12.1973C20.0575 12.1266 20.0652 12.0488 20.0503 11.9738C20.0354 11.8987 19.9985 11.8297 19.9445 11.7756L17.5497 9.38106L22.1921 4.73911L23.3395 5.88669C23.4121 5.95931 23.5106 6.0001 23.6133 6.0001C23.716 6.0001 23.8145 5.95931 23.8871 5.88669C23.9597 5.81408 24.0005 5.71559 24.0005 5.61289C24.0005 5.5102 23.9597 5.41171 23.8871 5.33909C16.2937 -2.25582 19.457 0.908489 18.6624 0.113412ZM8.76614 19.161C8.39815 19.5292 8.15584 19.4319 6.20156 19.4319C5.98841 19.4319 6.02995 19.4433 4.79179 20.6812C3.91904 21.5539 2.42823 20.0993 3.31879 19.2082C4.54999 17.9772 4.56573 18.0178 4.56573 17.8012C4.56573 15.8354 4.47593 15.5987 4.83953 15.2354L6.41369 13.6612L7.48721 14.735C7.55979 14.8076 7.65825 14.8484 7.76092 14.8484C7.86359 14.8485 7.96206 14.8077 8.03468 14.7351C8.1073 14.6625 8.1481 14.564 8.1481 14.4613C8.14814 14.3586 8.10734 14.2602 8.03476 14.1875L6.96124 13.114L13.1891 6.88614L15.1147 8.81176L8.88686 15.0396C8.81424 15.1122 8.77344 15.2107 8.77344 15.3134C8.77344 15.4161 8.81424 15.5145 8.88686 15.5871C8.95948 15.6598 9.05793 15.7006 9.1606 15.7006C9.26327 15.7006 9.36173 15.6598 9.43435 15.5871L15.6622 9.35923L17.5878 11.2848L9.31507 19.5571C8.95278 19.9194 8.95407 19.9207 8.76876 19.1597L8.76614 19.161ZM19.3973 11.8319L18.135 10.5696L22.7386 5.96607L24.0009 7.22838L19.3973 11.8319Z" fill="white"/>
</svg>
