<svg width="50" height="50" viewBox="0 0 50 50" fill="none" xmlns="http://www.w3.org/2000/svg">
<rect width="50" height="50" rx="25" fill="white"/>
<path d="M24.8938 12.5C14.0433 12.5 13.1943 13.3996 13.1943 24.8877V25.1123C13.1943 36.6004 14.0433 37.5 24.8938 37.5H25.106C35.9564 37.5 36.8054 36.6004 36.8054 25.1123V25C36.8054 13.4075 35.9484 12.5 24.9999 12.5H24.8938ZM32.0798 16.25C32.732 16.2481 33.262 16.8057 33.2638 17.4963C33.2656 18.187 32.7389 18.7481 32.0867 18.75C31.4344 18.7519 30.9044 18.1943 30.9027 17.5037C30.9009 16.813 31.4275 16.2519 32.0798 16.25ZM24.9861 18.75C28.2456 18.7419 30.895 21.5341 30.9027 24.9854C30.9103 28.4366 28.2732 31.2419 25.0137 31.25C21.7542 31.2581 19.1048 28.4659 19.0971 25.0146C19.0894 21.5634 21.7265 18.7581 24.9861 18.75ZM24.9918 21.25C23.0356 21.255 21.4535 22.9385 21.4582 25.0098C21.4629 27.0804 23.0524 28.755 25.008 28.75C26.9641 28.745 28.5463 27.0621 28.5416 24.9915C28.5368 22.9202 26.9474 21.245 24.9918 21.25Z" fill="#24283D"/>
</svg>
