<svg width="40" height="40" viewBox="0 0 40 40" fill="none" xmlns="http://www.w3.org/2000/svg">
<rect width="40" height="40" rx="20" fill="#00A2FF"/>
<path d="M18.4296 26.3137C18.4437 26.3313 18.4614 26.349 18.472 26.3667C19.1335 27.1661 19.6923 27.7957 20 28.1353C20.3078 27.7957 20.8666 27.1661 21.5281 26.3667C21.5387 26.349 21.5564 26.3313 21.5705 26.3137C23.4734 23.9969 26.1934 20.3007 26.1934 18.0582C26.1934 14.6449 23.4169 11.8647 20 11.8647C16.5832 11.8647 13.8066 14.6449 13.8066 18.0582C13.8066 20.3007 16.5266 23.9969 18.4296 26.3137ZM20 15.0941C21.6342 15.0941 22.9641 16.424 22.9641 18.0582C22.9641 19.6923 21.6342 21.0222 20 21.0222C18.3659 21.0222 17.036 19.6923 17.036 18.0582C17.036 16.424 18.3659 15.0941 20 15.0941Z" fill="white"/>
</svg>
