<svg width="89" height="38" viewBox="0 0 89 38" fill="none" xmlns="http://www.w3.org/2000/svg">
<path d="M0 16.7265V0.369461H2.01518V14.8791H12.7167V16.7265H0Z" fill="black"/>
<path d="M21.504 15.2489C23.3391 15.2489 24.8591 14.6212 26.0631 13.3659C27.2667 12.1095 27.8687 10.5173 27.8687 8.58907C27.8687 6.65128 27.2691 5.05489 26.0703 3.79853C24.8711 2.5432 23.349 1.9145 21.504 1.9145C19.6683 1.9145 18.1489 2.54525 16.9449 3.80606C15.741 5.06653 15.139 6.66087 15.139 8.58907C15.139 10.5173 15.741 12.1095 16.9449 13.3659C18.1489 14.6212 19.6683 15.2489 21.504 15.2489ZM21.5153 17.1631C19.0656 17.1631 17.0436 16.3549 15.4485 14.7387C13.8539 13.1211 13.0567 11.0713 13.0567 8.58907C13.0567 6.09724 13.8566 4.04337 15.4564 2.42575C17.0562 0.809153 19.0762 0 21.5153 0C23.9643 0 25.9936 0.811207 27.6036 2.43294C29.2134 4.05467 30.0184 6.10648 30.0184 8.58907C30.0184 11.0713 29.2161 13.1211 27.6112 14.7387C26.0062 16.3549 23.9739 17.1631 21.5153 17.1631Z" fill="black"/>
<path d="M32.1867 16.7265V0.369461H45.052V2.21651H34.2022V7.08717H40.7853V8.93422H34.2022V14.8791H45.719V16.7265H32.1867Z" fill="black"/>
<path d="M49.8915 14.8791H58.4538C59.3814 14.8791 60.1132 14.6031 60.6467 14.0511C61.1795 13.4991 61.4463 12.7454 61.4463 11.7894C61.4463 10.8446 61.1795 10.093 60.6467 9.53552C60.1132 8.97839 59.3814 8.69932 58.4538 8.69932H49.8915V14.8791ZM49.8915 6.85193H57.7433C59.517 6.85193 60.405 6.08763 60.405 4.55733C60.405 2.99758 59.517 2.21651 57.7433 2.21651H49.8915V6.85193ZM47.8766 16.7265V0.369461H57.5597C60.8217 0.369461 62.454 1.72752 62.454 4.44399C62.454 5.77808 61.9565 6.77522 60.9634 7.43748C62.7184 8.45448 63.596 9.9115 63.596 11.8082C63.596 13.3197 63.0995 14.5171 62.1065 15.4009C61.1138 16.2847 59.768 16.7265 58.0696 16.7265H47.8766Z" fill="black"/>
<path d="M78.7491 13.056L73.6997 7.15224C71.013 8.29731 69.67 9.84199 69.67 11.787C69.67 12.8242 70.0306 13.6659 70.7527 14.3124C71.4749 14.9589 72.4193 15.2825 73.5867 15.2825C75.3669 15.2825 77.0876 14.5404 78.7491 13.056ZM83.0975 11.4483C82.6253 12.0989 82.0891 12.691 81.4888 13.2238L84.4025 16.608H81.8042L79.9698 14.5486C77.8553 16.3142 75.7412 17.197 73.6267 17.197C71.7787 17.197 70.2994 16.7117 69.1879 15.742C68.0763 14.7722 67.5206 13.4813 67.5206 11.8678C67.5206 9.36465 69.1632 7.30119 72.4491 5.67741L67.9496 0.369461H78.6957L79.8226 2.14973H72.1447L80.1523 11.5952C80.9118 10.8361 81.4594 10.2296 81.795 9.7759L83.0975 11.4483Z" fill="black"/>
<path d="M0 36.5916V20.2343H2.01518V34.7443H12.7167V36.5916H0Z" fill="black"/>
<path d="M21.504 35.1137C23.3391 35.1137 24.8591 34.4861 26.0631 33.2307C27.2667 31.9744 27.8687 30.3821 27.8687 28.4539C27.8687 26.5164 27.2691 24.92 26.0703 23.6637C24.8711 22.4077 23.349 21.7797 21.504 21.7797C19.6683 21.7797 18.1489 22.4104 16.9449 23.6705C15.741 24.9313 15.139 26.5257 15.139 28.4539C15.139 30.3821 15.741 31.9744 16.9449 33.2307C18.1489 34.4861 19.6683 35.1137 21.504 35.1137ZM21.5153 37.0282C19.0656 37.0282 17.0436 36.2201 15.4485 34.6035C13.8539 32.9859 13.0567 30.9361 13.0567 28.4539C13.0567 25.9624 13.8566 23.9082 15.4564 22.2906C17.0562 20.6736 19.0762 19.8648 21.5153 19.8648C23.9643 19.8648 25.9936 20.6764 27.6036 22.2977C29.2134 23.9195 30.0184 25.9716 30.0184 28.4539C30.0184 30.9361 29.2161 32.9859 27.6112 34.6035C26.0062 36.2201 23.9739 37.0282 21.5153 37.0282Z" fill="black"/>
<path d="M32.1867 36.5916V20.2343H45.052V22.082H34.2022V26.9517H40.7853V28.7994H34.2022V34.7443H45.719V36.5916H32.1867Z" fill="black"/>
<path d="M49.8915 34.7443H58.4538C59.3814 34.7443 60.1132 34.4683 60.6467 33.9159C61.1795 33.3639 61.4463 32.6106 61.4463 31.6542C61.4463 30.7095 61.1795 29.9582 60.6467 29.4007C60.1132 28.8432 59.3814 28.5642 58.4538 28.5642H49.8915V34.7443ZM49.8915 26.7168H57.7433C59.517 26.7168 60.405 25.9525 60.405 24.4225C60.405 22.8621 59.517 22.082 57.7433 22.082H49.8915V26.7168ZM47.8766 36.5916V20.2343H57.5597C60.8217 20.2343 62.454 21.5927 62.454 24.3092C62.454 25.6429 61.9565 26.6401 60.9634 27.3027C62.7184 28.3193 63.596 29.7763 63.596 31.673C63.596 33.1845 63.0995 34.3823 62.1065 35.2661C61.1138 36.1499 59.768 36.5916 58.0696 36.5916H47.8766Z" fill="black"/>
<path d="M67.2182 36.5916V28.7155H68.1924V35.7013H73.3374V36.5916H67.2182Z" fill="black"/>
<path d="M74.39 36.5916V28.7155H75.3642V35.7013H80.5091V36.5916H74.39Z" fill="black"/>
<path d="M82.5021 32.2254H85.9821C86.9868 32.2254 87.4898 31.7929 87.4898 30.9259C87.4898 30.0462 87.0036 29.6051 86.0321 29.6051H82.5021V32.2254ZM81.5279 36.5916V28.7155H86.0448C86.8111 28.7155 87.4138 28.9062 87.8542 29.2863C88.2945 29.6671 88.514 30.1886 88.514 30.8502C88.514 31.5398 88.2993 32.0963 87.8713 32.5168C87.4429 32.939 86.8762 33.1489 86.1722 33.1489H82.5021V36.5916H81.5279Z" fill="black"/>
</svg>
