<svg width="20" height="20" viewBox="0 0 20 20" fill="none" xmlns="http://www.w3.org/2000/svg">
<path fill-rule="evenodd" clip-rule="evenodd" d="M0 4.28571C0 1.91886 1.91874 0 4.28571 0H6.19017C6.45355 0 6.66695 0.213392 6.66695 0.475886C6.66695 0.739269 6.45356 0.952663 6.19017 0.952663H4.28571C2.44464 0.952663 0.952686 2.44462 0.952686 4.28569V15.7143C0.952686 17.5553 2.44464 19.0473 4.28571 19.0473H15.7143C17.5554 19.0473 19.0473 17.5553 19.0473 15.7143V4.28569C19.0473 2.44462 17.5554 0.952663 15.7143 0.952663H9.52411C9.26073 0.952663 9.04734 0.739271 9.04734 0.475886C9.04734 0.213394 9.26073 0 9.52411 0H15.7143C18.0811 0 20 1.91874 20 4.28571V15.7143C20 18.0811 18.0813 20 15.7143 20H4.28571C1.91886 20 0 18.0813 0 15.7143V4.28571Z" fill="white"/>
<path fill-rule="evenodd" clip-rule="evenodd" d="M7.61884 5.23837C7.61884 4.97499 7.83223 4.7616 8.09562 4.7616H11.9045C12.1679 4.7616 12.3813 4.97499 12.3813 5.23837V7.61872H14.7617C15.025 7.61872 15.2384 7.83211 15.2384 8.09549V11.9044C15.2384 12.1678 15.025 12.3812 14.7617 12.3812H12.3813V14.7615C12.3813 15.0249 12.1679 15.2383 11.9045 15.2383H8.09562C7.83223 15.2383 7.61884 15.0249 7.61884 14.7615V12.3812H5.2385C4.97511 12.3812 4.76172 12.1678 4.76172 11.9044V8.09549C4.76172 7.83211 4.97511 7.61872 5.2385 7.61872H7.61884V5.23837ZM8.57152 5.71426V8.09552C8.57152 8.35801 8.35813 8.5714 8.09564 8.5714H5.71438V11.4285H8.09564C8.35813 11.4285 8.57152 11.6419 8.57152 11.9044V14.2857H11.4287V11.9044C11.4287 11.6419 11.6421 11.4285 11.9046 11.4285H14.2858V8.5714H11.9046C11.6421 8.5714 11.4287 8.35801 11.4287 8.09552V5.71426H8.57152Z" fill="white"/>
</svg>
