<svg width="25" height="27" viewBox="0 0 25 27" fill="none" xmlns="http://www.w3.org/2000/svg">
<path d="M15.9026 20.3151H14.0751V18.4876C14.0751 18.0326 13.7045 17.662 13.2495 17.662H10.869C10.414 17.662 10.0434 18.0326 10.0434 18.4876V20.3151H8.21587C7.76087 20.3151 7.39026 20.6858 7.39026 21.1407V23.5212C7.39026 23.9762 7.76089 24.3468 8.21587 24.3468H10.0434V26.1743C10.0434 26.6293 10.414 26.9999 10.869 26.9999H13.2495C13.7045 26.9999 14.0751 26.6293 14.0751 26.1743V24.3468H15.9026C16.3576 24.3468 16.7282 23.9762 16.7282 23.5212V21.1407C16.7282 20.6857 16.3576 20.3151 15.9026 20.3151ZM15.6179 23.2349H13.7903C13.3353 23.2349 12.9647 23.6056 12.9647 24.0605V25.8881H11.1523V24.0605C11.1523 23.6055 10.7816 23.2349 10.3267 23.2349H8.49913V21.4225H10.3267C10.7817 21.4225 11.1523 21.0519 11.1523 20.5969V18.7693H12.9647V20.5969C12.9647 21.0519 13.3353 21.4225 13.7903 21.4225H15.6179V23.2349Z" fill="white"/>
<path d="M15.5138 12.4386C17.4573 11.2619 18.762 9.13759 18.762 6.70295C18.762 3.00875 15.7533 0 12.0591 0C8.36486 0 5.35615 3.00871 5.35615 6.70295C5.35615 9.13312 6.66388 11.2618 8.60441 12.4386C3.72887 13.2446 0 17.4873 0 22.5858V25.0084C0 25.3127 0.247082 25.5643 0.555936 25.5643C0.864791 25.5643 1.11187 25.3172 1.11187 25.0084V22.5858C1.11187 17.5251 5.22798 13.4105 10.2871 13.4105H13.8352C18.8958 13.4105 23.0104 17.5266 23.0104 22.5858V25.0084C23.0104 25.3127 23.2575 25.5643 23.5663 25.5643C23.8752 25.5643 24.1223 25.3172 24.1223 25.0084V22.5858C24.1223 17.4873 20.3919 13.2447 15.5179 12.4386H15.5138ZM6.46505 6.70295C6.46505 3.61741 8.97656 1.11041 12.0622 1.11041C15.1479 1.11041 17.6594 3.62192 17.6594 6.70295C17.6594 9.78397 15.1479 12.2955 12.0622 12.2955C8.97656 12.2955 6.46505 9.78397 6.46505 6.70295Z" fill="white"/>
</svg>
