<svg width="369" height="369" viewBox="0 0 369 369" fill="none" xmlns="http://www.w3.org/2000/svg">
<circle cx="184.026" cy="184.026" r="184.026" fill="#F6F6F6"/>
<path d="M98.7984 312.143L97.8072 311.195C97.3919 311.497 96.9246 311.733 96.4054 311.903C95.8957 312.073 95.3482 312.158 94.7629 312.158C94.055 312.158 93.3989 312.035 92.7948 311.789C92.1906 311.535 91.662 311.181 91.2089 310.727C90.7652 310.274 90.416 309.736 90.1611 309.113C89.9157 308.481 89.7929 307.787 89.7929 307.032C89.7929 306.267 89.9157 305.573 90.1611 304.95C90.416 304.318 90.7652 303.775 91.2089 303.322C91.662 302.869 92.1906 302.52 92.7948 302.274C93.3989 302.029 94.055 301.906 94.7629 301.906C95.4803 301.906 96.1411 302.029 96.7453 302.274C97.3494 302.51 97.8733 302.855 98.317 303.308C98.7701 303.761 99.1193 304.304 99.3648 304.936C99.6196 305.559 99.7471 306.258 99.7471 307.032C99.7471 307.664 99.6621 308.25 99.4922 308.788C99.3223 309.326 99.0769 309.802 98.7559 310.218L99.7471 311.152L98.7984 312.143ZM91.3363 307.032C91.3363 307.815 91.4874 308.49 91.7894 309.057C92.0915 309.623 92.5021 310.057 93.0213 310.359C93.5405 310.661 94.121 310.812 94.7629 310.812C95.1688 310.812 95.5417 310.765 95.8815 310.671C96.2308 310.567 96.5423 310.416 96.8161 310.218L95.2727 308.745L96.2355 307.754L97.7081 309.198C97.8686 308.915 97.9913 308.594 98.0763 308.235C98.1612 307.877 98.2037 307.476 98.2037 307.032C98.2037 306.229 98.0527 305.545 97.7506 304.979C97.4485 304.412 97.0379 303.983 96.5187 303.69C95.9995 303.398 95.4143 303.251 94.7629 303.251C94.121 303.251 93.5405 303.402 93.0213 303.704C92.5021 303.997 92.0915 304.426 91.7894 304.993C91.4874 305.559 91.3363 306.239 91.3363 307.032ZM100.375 311.988L104.014 302.076H105.657L109.296 311.988H107.696L106.86 309.581H102.797L101.947 311.988H100.375ZM103.236 308.377H106.421L104.821 303.86L103.236 308.377ZM116.476 312.158C116.013 312.158 115.588 312.087 115.201 311.945C114.814 311.794 114.479 311.586 114.196 311.322C113.913 311.058 113.691 310.751 113.53 310.402C113.379 310.043 113.304 309.651 113.304 309.227C113.304 308.858 113.37 308.514 113.502 308.193C113.634 307.863 113.809 307.56 114.026 307.287C114.252 307.013 114.507 306.777 114.791 306.579L114.89 306.494L114.791 306.352C114.564 306.06 114.389 305.767 114.267 305.474C114.153 305.172 114.097 304.856 114.097 304.526C114.097 304.016 114.215 303.567 114.451 303.18C114.696 302.784 115.036 302.472 115.47 302.246C115.904 302.019 116.409 301.906 116.985 301.906C117.571 301.906 118.08 302.019 118.515 302.246C118.949 302.472 119.289 302.793 119.534 303.209C119.779 303.615 119.902 304.106 119.902 304.681H118.43C118.43 304.398 118.373 304.148 118.26 303.931C118.156 303.714 117.995 303.544 117.778 303.421C117.561 303.289 117.292 303.223 116.971 303.223C116.669 303.223 116.414 303.284 116.207 303.407C115.999 303.53 115.843 303.69 115.739 303.888C115.635 304.087 115.583 304.304 115.583 304.54C115.583 304.936 115.73 305.314 116.022 305.673C116.325 306.031 116.712 306.447 117.184 306.919L119.067 308.788L120.539 306.253H122.125L120.03 309.75L122.281 311.988H120.398L119.237 310.827L119.138 310.954C118.798 311.322 118.406 311.615 117.962 311.832C117.528 312.049 117.032 312.158 116.476 312.158ZM116.56 310.812C116.91 310.812 117.221 310.742 117.495 310.6C117.769 310.449 118.043 310.218 118.316 309.906L115.81 307.442C115.489 307.669 115.239 307.924 115.06 308.207C114.88 308.481 114.791 308.788 114.791 309.127C114.791 309.43 114.866 309.708 115.017 309.963C115.168 310.218 115.376 310.425 115.64 310.586C115.914 310.737 116.221 310.812 116.56 310.812ZM94.7629 329.158C94.055 329.158 93.3989 329.035 92.7948 328.789C92.1906 328.535 91.662 328.181 91.2089 327.727C90.7652 327.274 90.416 326.736 90.1611 326.113C89.9157 325.481 89.7929 324.787 89.7929 324.032C89.7929 323.267 89.9157 322.573 90.1611 321.95C90.416 321.318 90.7652 320.775 91.2089 320.322C91.662 319.869 92.1906 319.52 92.7948 319.274C93.3989 319.029 94.055 318.906 94.7629 318.906C95.4803 318.906 96.1411 319.029 96.7453 319.274C97.3494 319.51 97.8733 319.855 98.317 320.308C98.7701 320.761 99.1193 321.304 99.3648 321.936C99.6196 322.559 99.7471 323.258 99.7471 324.032C99.7471 324.796 99.6196 325.495 99.3648 326.127C99.1193 326.76 98.7701 327.303 98.317 327.756C97.8733 328.199 97.3494 328.544 96.7453 328.789C96.1411 329.035 95.4803 329.158 94.7629 329.158ZM94.7629 327.812C95.4143 327.812 95.9995 327.661 96.5187 327.359C97.0379 327.057 97.4485 326.623 97.7506 326.057C98.0527 325.49 98.2037 324.815 98.2037 324.032C98.2037 323.229 98.0527 322.545 97.7506 321.979C97.4485 321.412 97.0379 320.983 96.5187 320.69C95.9995 320.398 95.4143 320.251 94.7629 320.251C94.121 320.251 93.5405 320.402 93.0213 320.704C92.5021 320.997 92.0915 321.426 91.7894 321.993C91.4874 322.559 91.3363 323.239 91.3363 324.032C91.3363 324.815 91.4874 325.49 91.7894 326.057C92.0915 326.623 92.5021 327.057 93.0213 327.359C93.5405 327.661 94.121 327.812 94.7629 327.812ZM101.036 332.103V321.965H102.48L102.537 323.027C102.782 322.668 103.113 322.375 103.528 322.149C103.943 321.913 104.434 321.795 105 321.795C105.699 321.795 106.298 321.96 106.799 322.29C107.299 322.611 107.686 323.05 107.96 323.607C108.234 324.155 108.37 324.773 108.37 325.462C108.37 326.151 108.234 326.779 107.96 327.345C107.686 327.902 107.294 328.346 106.785 328.676C106.284 328.997 105.69 329.158 105 329.158C104.415 329.158 103.91 329.04 103.485 328.804C103.07 328.558 102.754 328.261 102.537 327.912V332.103H101.036ZM104.689 327.841C105.123 327.841 105.501 327.737 105.822 327.529C106.143 327.322 106.393 327.038 106.572 326.68C106.752 326.321 106.841 325.915 106.841 325.462C106.841 324.99 106.747 324.579 106.558 324.23C106.379 323.871 106.129 323.593 105.808 323.395C105.487 323.196 105.114 323.097 104.689 323.097C104.274 323.097 103.905 323.201 103.585 323.409C103.264 323.607 103.009 323.886 102.82 324.244C102.641 324.594 102.551 325.004 102.551 325.476C102.551 325.91 102.641 326.312 102.82 326.68C102.999 327.038 103.249 327.322 103.57 327.529C103.891 327.737 104.264 327.841 104.689 327.841ZM112.077 328.988C111.378 328.988 110.84 328.818 110.463 328.478C110.085 328.138 109.896 327.581 109.896 326.807V323.225H108.834V321.965H109.896V320.265H111.397V321.965H113.181V323.225H111.397V326.807C111.397 327.166 111.477 327.407 111.638 327.529C111.798 327.652 112.048 327.713 112.388 327.713H113.181V328.988H112.077ZM115.236 320.733C114.963 320.733 114.727 320.638 114.528 320.449C114.339 320.251 114.245 320.011 114.245 319.727C114.245 319.454 114.339 319.222 114.528 319.034C114.727 318.845 114.963 318.75 115.236 318.75C115.519 318.75 115.755 318.845 115.944 319.034C116.142 319.222 116.242 319.454 116.242 319.727C116.242 320.011 116.142 320.251 115.944 320.449C115.755 320.638 115.519 320.733 115.236 320.733ZM114.486 328.988V321.965H115.987V328.988H114.486ZM117.55 328.988V321.965H118.994L119.037 322.871C119.263 322.521 119.561 322.257 119.929 322.078C120.306 321.889 120.717 321.795 121.161 321.795C121.699 321.795 122.18 321.908 122.605 322.134C123.039 322.352 123.374 322.696 123.61 323.168C123.856 322.734 124.191 322.399 124.615 322.163C125.04 321.917 125.503 321.795 126.003 321.795C126.551 321.795 127.037 321.908 127.462 322.134C127.886 322.352 128.217 322.687 128.453 323.14C128.698 323.593 128.821 324.164 128.821 324.853V328.988H127.334V325.051C127.334 324.419 127.197 323.933 126.923 323.593C126.65 323.253 126.244 323.083 125.706 323.083C125.168 323.083 124.738 323.272 124.417 323.65C124.096 324.027 123.936 324.551 123.936 325.221V328.988H122.449V325.051C122.449 324.419 122.307 323.933 122.024 323.593C121.741 323.253 121.34 323.083 120.821 323.083C120.33 323.083 119.91 323.263 119.561 323.621C119.221 323.97 119.051 324.504 119.051 325.221V328.988H117.55ZM131.021 320.733C130.747 320.733 130.511 320.638 130.313 320.449C130.124 320.251 130.03 320.011 130.03 319.727C130.03 319.454 130.124 319.222 130.313 319.034C130.511 318.845 130.747 318.75 131.021 318.75C131.304 318.75 131.54 318.845 131.729 319.034C131.927 319.222 132.026 319.454 132.026 319.727C132.026 320.011 131.927 320.251 131.729 320.449C131.54 320.638 131.304 320.733 131.021 320.733ZM130.27 328.988V321.965H131.771V328.988H130.27ZM133.118 328.988V327.77L136.629 323.196H133.16V321.965H138.328V323.168L134.803 327.742H138.385V328.988H133.118ZM141.75 329.158C141.296 329.158 140.881 329.077 140.504 328.917C140.126 328.747 139.824 328.502 139.597 328.181C139.371 327.86 139.258 327.473 139.258 327.019C139.258 326.481 139.39 326.052 139.654 325.731C139.928 325.401 140.291 325.16 140.744 325.009C141.207 324.848 141.712 324.768 142.259 324.768H144.043C144.043 324.362 143.977 324.037 143.845 323.791C143.713 323.536 143.534 323.352 143.307 323.239C143.081 323.116 142.816 323.055 142.514 323.055C142.118 323.055 141.768 323.149 141.466 323.338C141.174 323.517 140.99 323.805 140.914 324.202H139.399C139.446 323.692 139.616 323.258 139.909 322.899C140.211 322.54 140.593 322.267 141.056 322.078C141.518 321.889 142.009 321.795 142.528 321.795C143.208 321.795 143.77 321.922 144.213 322.177C144.666 322.422 145.002 322.767 145.219 323.211C145.445 323.654 145.559 324.159 145.559 324.726V326.878C145.568 327.152 145.625 327.355 145.728 327.487C145.842 327.609 146.04 327.68 146.323 327.699V328.988C145.946 328.988 145.615 328.945 145.332 328.86C145.058 328.775 144.832 328.648 144.652 328.478C144.473 328.299 144.331 328.072 144.228 327.798C144.001 328.176 143.671 328.497 143.236 328.761C142.802 329.025 142.307 329.158 141.75 329.158ZM142.104 327.926C142.491 327.926 142.83 327.831 143.123 327.643C143.416 327.444 143.642 327.189 143.803 326.878C143.963 326.557 144.043 326.212 144.043 325.844V325.816H142.373C142.099 325.816 141.839 325.849 141.594 325.915C141.358 325.981 141.164 326.094 141.013 326.255C140.872 326.406 140.801 326.618 140.801 326.892C140.801 327.251 140.928 327.515 141.183 327.685C141.438 327.845 141.745 327.926 142.104 327.926ZM149.834 328.988C149.135 328.988 148.597 328.818 148.22 328.478C147.842 328.138 147.653 327.581 147.653 326.807V323.225H146.591V321.965H147.653V320.265H149.154V321.965H150.938V323.225H149.154V326.807C149.154 327.166 149.234 327.407 149.395 327.529C149.555 327.652 149.806 327.713 150.145 327.713H150.938V328.988H149.834ZM152.993 320.733C152.72 320.733 152.484 320.638 152.285 320.449C152.097 320.251 152.002 320.011 152.002 319.727C152.002 319.454 152.097 319.222 152.285 319.034C152.484 318.845 152.72 318.75 152.993 318.75C153.277 318.75 153.513 318.845 153.701 319.034C153.9 319.222 153.999 319.454 153.999 319.727C153.999 320.011 153.9 320.251 153.701 320.449C153.513 320.638 153.277 320.733 152.993 320.733ZM152.243 328.988V321.965H153.744V328.988H152.243ZM158.649 329.158C157.969 329.158 157.356 329.011 156.808 328.719C156.27 328.417 155.84 327.987 155.519 327.43C155.208 326.873 155.052 326.217 155.052 325.462C155.052 324.707 155.213 324.055 155.534 323.508C155.864 322.96 156.303 322.54 156.85 322.248C157.407 321.946 158.026 321.795 158.705 321.795C159.385 321.795 159.999 321.941 160.546 322.234C161.094 322.526 161.533 322.946 161.863 323.494C162.193 324.041 162.359 324.697 162.359 325.462C162.359 326.179 162.198 326.817 161.877 327.373C161.566 327.93 161.131 328.369 160.574 328.69C160.018 329.002 159.376 329.158 158.649 329.158ZM158.663 327.855C159.078 327.855 159.446 327.751 159.767 327.543C160.098 327.336 160.357 327.053 160.546 326.694C160.735 326.326 160.829 325.91 160.829 325.448C160.829 324.976 160.735 324.565 160.546 324.216C160.367 323.857 160.117 323.583 159.796 323.395C159.475 323.196 159.102 323.097 158.677 323.097C158.233 323.097 157.851 323.201 157.53 323.409C157.219 323.616 156.978 323.9 156.808 324.258C156.648 324.608 156.567 325.009 156.567 325.462C156.567 325.981 156.662 326.42 156.85 326.779C157.049 327.137 157.308 327.407 157.629 327.586C157.95 327.765 158.295 327.855 158.663 327.855ZM163.559 328.988V321.965H165.003L165.031 322.998C165.267 322.611 165.593 322.314 166.008 322.106C166.433 321.898 166.882 321.795 167.354 321.795C168.175 321.795 168.84 322.054 169.35 322.573C169.86 323.083 170.115 323.848 170.115 324.867V328.988H168.614V325.051C168.614 324.419 168.472 323.933 168.189 323.593C167.906 323.244 167.481 323.069 166.915 323.069C166.358 323.069 165.909 323.263 165.57 323.65C165.23 324.027 165.06 324.551 165.06 325.221V328.988H163.559Z" fill="black"/>
<circle cx="66.8762" cy="325.652" r="3.05982" fill="#00A2FF"/>
</svg>
