<svg width="40" height="30" viewBox="0 0 40 30" fill="none" xmlns="http://www.w3.org/2000/svg">
<path d="M30.8003 30C33.2576 30 35.5679 28.9717 37.3055 27.1044C39.0431 25.2371 40 22.7544 40 20.1137C40 18.7559 39.7905 17.4717 39.3772 16.2967C38.9506 15.0836 38.3172 14.0167 37.4947 13.1255C35.7448 11.2295 33.2227 10.2273 30.2013 10.2273C30.1782 10.2273 30.1607 10.2259 30.1479 10.2241C30.0562 9.95626 30.1517 8.80729 31.2575 6.8927C32.4169 4.88552 34.168 2.9563 36.0619 1.59981C36.3598 1.38636 36.4927 0.988499 36.3889 0.620191C36.2852 0.251882 35.9693 1.47079e-05 35.6113 1.47392e-05C34.0463 1.4876e-05 30.5641 1.13668 27.3849 4.26818C24.7461 6.86729 21.6006 11.6145 21.6006 19.4699C21.6006 22.4392 22.5538 25.1377 24.2846 27.0682C25.9796 28.9588 28.2937 30 30.8003 30Z" fill="#00A2FF"/>
<path d="M2.68396 27.0682C4.37899 28.9588 6.69297 30 9.19968 30C11.657 30 13.9673 28.9717 15.7048 27.1044C17.4424 25.2371 18.3994 22.7544 18.3994 20.1137C18.3994 18.7559 18.1898 17.4717 17.7766 16.2967C17.35 15.0836 16.7166 14.0167 15.8941 13.1255C14.1442 11.2295 11.6221 10.2273 8.60059 10.2273C8.57752 10.2273 8.55997 10.2259 8.54725 10.2241C8.4556 9.95626 8.55107 8.80729 9.65689 6.8927C10.8162 4.88547 12.5673 2.9563 14.4612 1.59981C14.7592 1.38636 14.892 0.988499 14.7883 0.620191C14.6845 0.251882 14.3687 1.47079e-05 14.0106 1.47392e-05C12.4457 1.4876e-05 8.96343 1.13668 5.78423 4.26818C3.14548 6.86729 -3.27792e-06 11.6145 -2.59118e-06 19.4699C3.82951e-05 22.4393 0.953221 25.1377 2.68396 27.0682Z" fill="#00A2FF"/>
</svg>
