<svg width="26" height="26" viewBox="0 0 26 26" fill="none" xmlns="http://www.w3.org/2000/svg">
<path d="M4.44185 7.5418C4.64362 7.82877 4.96646 7.98572 5.29381 7.98572C5.50007 7.98572 5.70634 7.92294 5.89017 7.79739L6.29371 7.5149V13.5996C6.29371 14.317 6.87661 14.9044 7.59855 14.9044H18.4989C19.2164 14.9044 19.8038 14.317 19.8038 13.5996V7.55536L20.1132 7.77059C20.3418 7.93201 20.6198 7.9903 20.8889 7.94098C21.1624 7.89166 21.4 7.73921 21.5615 7.515L21.7946 7.1832C21.9516 6.95452 22.0144 6.681 21.965 6.40748C21.9157 6.13397 21.7633 5.89633 21.5391 5.73488L20.2522 4.83361V0.964064C20.2522 0.430467 19.7858 7.11565e-06 19.2164 7.11565e-06H18.5572C17.9833 7.11565e-06 17.5214 0.434944 17.5214 0.964064V2.92355L14.0642 0.50221C14.0553 0.497726 14.0508 0.493242 14.0418 0.488758L13.6158 0.188326C13.2616 -0.0627754 12.7818 -0.0627754 12.4231 0.188326L4.46421 5.75733C3.9934 6.08465 3.88131 6.73481 4.20862 7.20565L4.44185 7.5418ZM18.934 13.6041C18.934 13.8462 18.7367 14.039 18.4991 14.039H7.59407C7.35194 14.039 7.15914 13.8417 7.15914 13.6041V6.9096L12.921 2.87418C12.9793 2.83383 13.06 2.83383 13.1183 2.87418L18.9341 6.94575L18.934 13.6041ZM18.387 0.9638C18.387 0.927929 18.4497 0.865153 18.5573 0.865153H19.2075C19.3151 0.865153 19.3779 0.927929 19.3779 0.9638V4.22353L18.387 3.52851V0.9638ZM4.95748 6.47024L12.9164 0.896649C12.9478 0.874229 12.9792 0.86526 13.015 0.86526C13.0509 0.86526 13.0823 0.874228 13.1137 0.896649L13.5217 1.18362C13.5307 1.18811 13.5352 1.19707 13.5442 1.20156L21.0324 6.44341C21.0818 6.47928 21.0997 6.5286 21.1042 6.5555C21.1087 6.58241 21.1131 6.63173 21.0773 6.68554L20.8441 7.01734C20.8082 7.06666 20.7589 7.0846 20.732 7.08908C20.7051 7.09356 20.6558 7.09805 20.602 7.06218L13.6116 2.16125C13.2574 1.91015 12.7776 1.91015 12.4189 2.16125L5.39263 7.08915C5.31192 7.14296 5.20879 7.12502 5.15049 7.0488L4.91285 6.71249C4.86352 6.63178 4.88125 6.52405 4.95748 6.47024Z" fill="white"/>
<path d="M10.5172 21.9711C10.3468 21.581 10.0015 21.3209 9.6159 21.2312L9.10024 20.0564C8.80432 19.3793 8.53077 18.922 7.93889 18.4243C6.81341 17.4782 6.13185 16.6128 5.66104 15.5276C5.41891 14.9716 4.97053 13.9358 3.74639 14.0389C3.58496 14.0523 3.4325 14.1062 3.28006 14.1869C3.24867 13.6622 3.22177 13.1018 3.20383 12.7655L3.18141 12.2857C3.15451 11.5817 3.11415 10.6176 2.23529 10.1603C1.86762 9.96748 1.40129 9.99438 0.952863 10.2275C0.446183 10.4921 0.0829901 10.9629 0.0246772 11.4292C-0.00222658 11.6355 0.00674133 11.8373 0.0157092 12.0211C0.0201932 12.1018 0.0246772 12.1826 0.0246772 12.2633L0.0291611 12.6085C0.0336451 12.8551 0.0336451 13.1018 0.0246772 13.3708L0.0112253 16.4018C0.0201932 16.6843 0.0112253 16.9713 0.00674133 17.2627C-0.00671053 18.1012 -0.0246478 18.9666 0.221971 19.8006C0.419265 20.4732 0.854202 21.1144 1.54922 21.7691C1.82723 22.0292 2.1411 22.3251 2.5043 22.5224C3.35626 22.9887 3.80015 23.4685 3.98849 23.7151C3.80017 24.0604 3.75981 24.4819 3.9302 24.8675L4.08714 25.2307C4.29789 25.715 4.77766 26.0064 5.27538 26.0064C5.45026 26.0064 5.62515 25.9705 5.79552 25.8988L10.006 24.0469C10.3244 23.9079 10.5665 23.6523 10.6965 23.3295C10.8221 23.0066 10.8176 22.6524 10.6741 22.334L10.5172 21.9711ZM2.91698 21.7603C2.65242 21.6169 2.3789 21.3613 2.13228 21.1281C1.55833 20.5856 1.20409 20.0699 1.05165 19.5542C0.840905 18.8458 0.854358 18.0476 0.872294 17.2764C0.876778 16.9715 0.881262 16.671 0.876778 16.3886L0.89023 13.3842C0.903682 13.1197 0.899198 12.8551 0.894714 12.5906L0.89023 12.2543C0.89023 12.1646 0.885746 12.0659 0.881262 11.9718C0.872294 11.8104 0.86781 11.6624 0.885746 11.5279C0.903682 11.3754 1.07856 11.1378 1.35655 10.9898C1.54488 10.8911 1.72873 10.8642 1.83634 10.9225C2.23541 11.1288 2.28474 11.6086 2.31613 12.3126L2.33855 12.8013C2.37443 13.4784 2.45962 15.0478 2.48652 15.4469C2.47756 15.7249 2.52688 15.9805 2.55827 16.1508C2.58517 16.2988 2.63898 16.4288 2.6883 16.5454L4.06936 19.6886C4.168 19.9084 4.41912 20.007 4.63883 19.9128C4.85854 19.8142 4.9572 19.5586 4.86302 19.3389L3.48197 16.1957C3.45058 16.1239 3.41919 16.0522 3.41022 15.9894C3.35193 15.6755 3.30709 15.3303 3.45058 15.1599C3.58958 14.994 3.71513 14.9043 3.82275 14.8953C4.33841 14.855 4.5671 15.1733 4.86751 15.8639C5.39663 17.079 6.14543 18.0431 7.383 19.0788C7.84933 19.4734 8.05561 19.8187 8.30671 20.3971L8.71923 21.3343L4.63446 23.1323C4.36094 22.8005 3.83621 22.267 2.91698 21.7603ZM9.88956 23.0114C9.84921 23.119 9.76401 23.2042 9.66088 23.249L5.45041 25.1009C5.2307 25.1995 4.97513 25.0964 4.88094 24.8767L4.724 24.5135C4.67916 24.4059 4.67468 24.2893 4.71503 24.1817C4.75539 24.0741 4.84058 23.9889 4.94372 23.944L9.15419 22.0922C9.3739 21.998 9.62947 22.0967 9.72813 22.3164L9.88507 22.6796C9.92991 22.7872 9.92992 22.9038 9.88956 23.0114Z" fill="white"/>
<path d="M25.9913 17.2584C25.9868 16.967 25.9823 16.68 25.9868 16.3841L25.9733 13.3439C25.9599 13.0973 25.9644 12.8506 25.9689 12.5995L25.9733 12.2543C25.9733 12.1736 25.9778 12.0928 25.9823 12.0121C25.9913 11.8328 26.0002 11.6265 25.9733 11.4203C25.915 10.9584 25.5518 10.4876 25.0451 10.223C24.5968 9.98986 24.1304 9.96296 23.7627 10.1558C22.8839 10.6131 22.848 11.5772 22.8166 12.2811L22.7942 12.7609C22.7762 13.0972 22.7449 13.6577 22.718 14.1823C22.57 14.1016 22.413 14.0478 22.2516 14.0344C21.032 13.9268 20.5791 14.967 20.337 15.523C19.8662 16.6082 19.1846 17.4736 18.0591 18.4198C17.4672 18.9175 17.1937 19.3793 16.8978 20.0519L16.3821 21.2267C15.9965 21.3164 15.6512 21.5765 15.4808 21.9666L15.3239 22.3298C15.1849 22.6481 15.1759 23.0024 15.3015 23.3252C15.427 23.6481 15.6737 23.9036 15.992 24.0426L20.2025 25.8945C20.3729 25.9707 20.5477 26.0021 20.7226 26.0021C21.2248 26.0021 21.7001 25.7107 21.9153 25.2264L22.0723 24.8677C22.2427 24.4821 22.2023 24.0606 22.014 23.7153C22.2023 23.4687 22.6462 22.9889 23.4982 22.5226C23.8614 22.3253 24.1753 22.0294 24.4622 21.7604C25.1527 21.1102 25.5832 20.469 25.7805 19.8009C26.0227 18.9624 26.0092 18.097 25.9913 17.2584ZM21.274 24.518L21.1171 24.8812C21.0229 25.1009 20.7628 25.1996 20.5476 25.1054L16.3371 23.2535C16.2295 23.2087 16.1488 23.1235 16.1084 23.0159C16.0681 22.9083 16.0681 22.7917 16.1174 22.6841L16.2744 22.3209C16.3461 22.1595 16.503 22.0608 16.6734 22.0608C16.7317 22.0608 16.79 22.0743 16.8483 22.0967L21.0588 23.9486C21.1664 23.9934 21.2471 24.0786 21.2874 24.1862C21.3278 24.2938 21.3188 24.4149 21.274 24.518ZM24.9464 19.5542C24.7939 20.0744 24.4397 20.59 23.8568 21.1371C23.6191 21.3613 23.3456 21.6169 23.0811 21.7603C22.1619 22.2625 21.6328 22.8006 21.3637 23.1369L17.2789 21.3389L17.6915 20.4017C17.947 19.8233 18.1488 19.478 18.6152 19.0834C19.8483 18.0431 20.6016 17.0836 21.1307 15.8685C21.4311 15.178 21.6598 14.8596 22.1754 14.8999C22.283 14.9089 22.4086 14.9986 22.5476 15.1645C22.6911 15.3349 22.6462 15.6801 22.5879 15.994C22.5745 16.0568 22.5476 16.1285 22.5162 16.2003L21.1351 19.3435C21.041 19.5632 21.1396 19.8188 21.3593 19.9174C21.5791 20.0116 21.8346 19.9129 21.9288 19.6932L23.3099 16.55C23.3637 16.4334 23.413 16.3034 23.4399 16.1599C23.4713 15.994 23.5206 15.7339 23.5116 15.4559C23.5386 15.0613 23.6237 13.4875 23.6596 12.8104L23.682 12.3216C23.7134 11.6177 23.7583 11.1379 24.1618 10.9316C24.2694 10.8733 24.4578 10.9002 24.6416 10.9989C24.9241 11.1468 25.0945 11.389 25.1124 11.5369C25.1304 11.6715 25.1214 11.8194 25.1169 11.9809C25.1124 12.075 25.1079 12.1692 25.1079 12.2633L25.1035 12.5951C25.099 12.8597 25.099 13.1243 25.1079 13.3709L25.1214 16.3795C25.1124 16.6754 25.1214 16.9758 25.1259 17.2763C25.1393 18.0475 25.1527 18.8458 24.9464 19.5542Z" fill="white"/>
</svg>
