<svg width="21" height="23" viewBox="0 0 21 23" fill="none" xmlns="http://www.w3.org/2000/svg">
<path d="M1.19949 8.92673C1.17657 9.22305 0.917078 9.44415 0.620908 9.42122C0.324738 9.39829 0.103755 9.13866 0.126665 8.84234C0.285297 6.87355 0.995927 5.05616 2.1027 3.54413C3.23329 2.00011 4.77825 0.777238 6.57189 0.0404809C6.84698 -0.0723625 7.15966 0.0588294 7.27245 0.33314C7.38523 0.607457 7.25411 0.921207 6.97994 1.03406C5.37252 1.6946 3.98514 2.79276 2.97013 4.18001C1.9789 5.53321 1.34254 7.16156 1.20041 8.92583L1.19949 8.92673ZM13.5984 19.2707V19.9028C13.5984 20.7551 13.2509 21.5294 12.6897 22.0908C12.1295 22.6514 11.3546 23 10.5028 23C9.65094 23 8.87703 22.6523 8.31586 22.0908C7.75561 21.5303 7.40716 20.7551 7.40716 19.9028V19.2707H0.539172C0.242086 19.2707 0 19.0294 0 18.7312C0 18.6046 0.0440136 18.4872 0.117369 18.3954L2.85724 14.3166V9.6819C2.85724 7.57825 3.71735 5.66531 5.10193 4.28011C6.48743 2.89389 8.39837 2.03426 10.5009 2.03426C12.6035 2.03426 14.5154 2.89481 15.8999 4.28011C17.2854 5.66632 18.1446 7.57825 18.1446 9.6819V14.3166L20.9091 18.433C21.0742 18.6798 21.0082 19.0138 20.7615 19.1789C20.6689 19.2404 20.5653 19.2697 20.4626 19.2697V19.2716H13.5946L13.5984 19.2707ZM8.48462 19.2707V19.9028C8.48462 20.4569 8.71202 20.9624 9.07787 21.3285C9.44372 21.6945 9.94805 21.922 10.5028 21.922C11.0567 21.922 11.5619 21.6945 11.9277 21.3285C12.2936 20.9624 12.521 20.4578 12.521 19.9028V19.2707H8.48462ZM15.1399 5.04143C13.9497 3.85062 12.3076 3.11116 10.5029 3.11116C8.69823 3.11116 7.05599 3.8506 5.86587 5.04143C4.67476 6.23316 3.9366 7.87526 3.9366 9.68086V14.4772H3.93476C3.93476 14.5799 3.90634 14.6845 3.84398 14.7763L1.54979 18.1918H19.4587L17.1893 14.8129C17.1159 14.7202 17.0719 14.6046 17.0719 14.4771V9.68079C17.0719 7.8753 16.3328 6.2321 15.1426 5.04136L15.1399 5.04143ZM14.0268 1.03425C13.7526 0.921402 13.6215 0.607645 13.7342 0.333328C13.847 0.0580954 14.1606 -0.0721816 14.4348 0.0406688C16.2283 0.777355 17.7735 2.0003 18.904 3.54431C20.0107 5.05531 20.7214 6.87369 20.88 8.84253C20.903 9.13885 20.682 9.39849 20.3858 9.42141C20.0896 9.44435 19.8301 9.2241 19.8071 8.92778C19.6649 7.16351 18.8695 5.53516 17.8783 4.18196C16.8633 2.79471 15.4759 1.69655 13.8685 1.036L14.0268 1.03425Z" fill="white"/>
</svg>
