<svg width="25" height="23" viewBox="0 0 25 23" fill="none" xmlns="http://www.w3.org/2000/svg">
<path fill-rule="evenodd" clip-rule="evenodd" d="M17.0573 7.26936C17.0573 7.05781 17.2348 6.88681 17.4544 6.88681C17.6739 6.88681 17.8514 7.05781 17.8514 7.26936C17.8514 7.50832 17.9515 7.72426 18.1141 7.881C18.2768 8.03775 18.5009 8.13421 18.7489 8.13421C18.9958 8.13421 19.2176 8.03775 19.3791 7.88319C19.5441 7.72426 19.6453 7.50611 19.6487 7.26608C19.6556 6.69721 19.1698 6.55909 18.675 6.41769C17.8878 6.19299 17.0858 5.9628 17.0585 4.78119C17.0574 4.72748 17.0562 4.77571 17.0562 4.74721C17.0562 4.30767 17.2451 3.91086 17.5476 3.6215C17.7649 3.41323 18.0425 3.26086 18.3519 3.18962V2.62074C18.3519 2.40919 18.5293 2.23819 18.7489 2.23819C18.9685 2.23819 19.1459 2.40918 19.1459 2.62074V3.18852C19.4542 3.25977 19.7295 3.41213 19.9456 3.6204C20.2516 3.91527 20.4416 4.32302 20.4416 4.77353C20.4416 4.98509 20.2641 5.15608 20.0446 5.15608C19.825 5.15608 19.6476 4.98509 19.6476 4.77353C19.6476 4.53458 19.5475 4.31864 19.3848 4.16189C19.2221 4.00515 18.998 3.90869 18.75 3.90869H18.7489H18.7478C18.7307 3.90869 18.7273 3.90869 18.7284 3.90759L18.7204 3.9065C18.4827 3.91307 18.2654 4.00953 18.1062 4.16189C17.9492 4.31206 17.8502 4.51813 17.8502 4.74721C17.8502 4.79435 17.8479 4.73077 17.8491 4.76694C17.8639 5.39065 18.386 5.53971 18.8979 5.68658C19.6828 5.91128 20.4529 6.13159 20.4393 7.27375C20.4336 7.72536 20.2448 8.13202 19.9399 8.42578C19.7249 8.63295 19.4519 8.7853 19.1459 8.85657V9.42436C19.1459 9.63591 18.9684 9.80691 18.7489 9.80691C18.5293 9.80691 18.3519 9.63591 18.3519 9.42436V8.85657C18.0436 8.78533 17.7695 8.63296 17.5522 8.42469C17.2462 8.12983 17.0562 7.72208 17.0562 7.27156L17.0573 7.26936ZM22.6076 2.30513C21.6202 1.35371 20.2563 0.765077 18.7502 0.765077C17.2441 0.765077 15.8801 1.35371 14.8927 2.30404C13.9054 3.25547 13.2956 4.56972 13.2956 6.02097C13.2956 7.47224 13.9065 8.78649 14.8939 9.73789C15.8813 10.6893 17.2452 11.278 18.7513 11.278C20.2574 11.278 21.6214 10.6893 22.6087 9.73789C23.5961 8.78647 24.207 7.47221 24.207 6.02097C24.207 4.56969 23.5961 3.25544 22.6087 2.30404L22.6076 2.30513ZM18.7502 0C17.0245 0 15.4627 0.674104 14.3307 1.76367C13.2 2.85322 12.5004 4.3582 12.5004 6.02217C12.5004 7.685 13.1999 9.18995 14.3307 10.2807C15.4614 11.3702 17.0233 12.0443 18.7502 12.0443C20.4759 12.0443 22.0377 11.3702 23.1697 10.2807C24.3004 9.19113 25 7.68505 25 6.02217C25 4.35929 24.3004 2.8544 23.1697 1.76367C22.0389 0.674132 20.4771 0 18.7502 0ZM23.5165 20.0469H13.3286C13.1864 20.0469 13.0556 20.1028 12.9612 20.1949C12.8827 20.2705 12.8293 20.3691 12.8133 20.4798C12.8145 20.5029 12.8156 20.5259 12.8156 20.5489V21.7338C12.8156 21.7568 12.8145 21.7799 12.8133 21.8029C12.8293 21.9125 12.8827 22.0122 12.9612 22.0879C13.0556 22.1788 13.1853 22.2358 13.3286 22.2358H23.5165C23.6587 22.2358 23.7895 22.1799 23.8839 22.0879C23.9783 21.9969 24.0375 21.8719 24.0375 21.7338V20.5489C24.0375 20.4119 23.9795 20.2858 23.8839 20.1949C23.7895 20.1039 23.6598 20.0469 23.5165 20.0469ZM12.0158 21.8018C12.0147 21.7788 12.0136 21.7557 12.0136 21.7327V20.5478C12.0136 20.5248 12.0147 20.5018 12.0158 20.4787C11.9999 20.3691 11.9464 20.2694 11.868 20.1938C11.7735 20.1028 11.6439 20.0458 11.5005 20.0458L1.31384 20.0469C1.17164 20.0469 1.04082 20.1028 0.94641 20.1949C0.851993 20.2858 0.792841 20.4108 0.792841 20.5489V21.7338C0.792841 21.8708 0.850857 21.9969 0.94641 22.0879C1.04083 22.1788 1.17051 22.2358 1.31384 22.2358H11.5017C11.6439 22.2358 11.7747 22.1799 11.8691 22.0879C11.9476 22.0122 12.0011 21.9136 12.017 21.8029L12.0158 21.8018ZM12.0158 18.838C12.0147 18.8194 12.0136 18.7996 12.0136 18.781V17.5961C12.0136 17.5763 12.0147 17.5577 12.0158 17.5391C11.9976 17.4393 11.9305 17.3462 11.8327 17.2716C11.6905 17.1631 11.488 17.0952 11.2605 17.0952H1.55374C1.32623 17.0952 1.12373 17.162 0.98156 17.2716C0.865528 17.3604 0.793864 17.4755 0.793864 17.5972V18.7821C0.793864 18.9038 0.865528 19.0189 0.98156 19.1077C1.12375 19.2162 1.32624 19.2841 1.55374 19.2841H11.2605C11.488 19.2841 11.6905 19.2173 11.8327 19.1077C11.9305 19.0331 11.9965 18.94 12.0158 18.8402V18.838ZM12.4208 19.6338L12.414 19.6283L12.4071 19.6338L12.414 19.6393L12.4208 19.6338ZM23.2764 19.2819C23.5039 19.2819 23.7064 19.2151 23.8486 19.1054C23.9646 19.0167 24.0363 18.9016 24.0363 18.7799V17.595C24.0363 17.4733 23.9646 17.3582 23.8486 17.2694C23.7064 17.1609 23.5039 17.0929 23.2764 17.0929H13.5696C13.3421 17.0929 13.1396 17.1598 12.9975 17.2694C12.8996 17.3439 12.8337 17.4371 12.8143 17.5369C12.8155 17.5555 12.8166 17.5752 12.8166 17.5938V18.7788C12.8166 18.7985 12.8155 18.8171 12.8155 18.8358C12.8337 18.9355 12.9008 19.0287 12.9986 19.1032C13.1408 19.2117 13.3433 19.2797 13.5708 19.2797H23.2776L23.2764 19.2819ZM12.4572 16.7126C12.1831 16.4835 12.0147 16.1733 12.0147 15.8292V14.6442C12.0147 14.2792 12.2035 13.9526 12.5073 13.7213C12.7848 13.5097 13.1614 13.3782 13.5697 13.3782H23.2765C23.6849 13.3782 24.0614 13.5097 24.339 13.7213C24.6427 13.9526 24.8315 14.2792 24.8315 14.6442V15.8292C24.8315 16.1744 24.6632 16.4846 24.389 16.7126C24.6632 16.9417 24.8315 17.2519 24.8315 17.5961V18.781C24.8315 19.1109 24.678 19.408 24.4243 19.6338C24.4311 19.6404 24.4391 19.647 24.4459 19.6535C24.6837 19.8826 24.8315 20.1994 24.8315 20.548V21.7329C24.8315 22.0815 24.6837 22.3982 24.4459 22.6273C24.2082 22.8564 23.8794 22.9989 23.5177 22.9989H13.3298C12.9749 22.9989 12.653 22.8619 12.4164 22.6416C12.1797 22.863 11.8567 22.9989 11.5029 22.9989L1.31387 23C0.952127 23 0.623374 22.8575 0.385627 22.6284C0.147879 22.3993 0 22.0826 0 21.734V20.5491C0 20.2005 0.147882 19.8837 0.385627 19.6546C0.392452 19.648 0.399277 19.6415 0.40724 19.6349C0.153566 19.4091 5.27676e-06 19.112 5.27676e-06 18.7821V17.5972C5.27676e-06 17.2322 0.188841 16.9055 0.492566 16.6742C0.770129 16.4627 1.14666 16.3311 1.55503 16.3311H11.2618C11.6702 16.3311 12.0467 16.4627 12.3243 16.6742C12.3561 16.6984 12.3868 16.7236 12.4153 16.7499C12.4289 16.7378 12.4437 16.7247 12.4574 16.7137L12.4572 16.7126ZM23.2764 16.3301C23.5039 16.3301 23.7064 16.2632 23.8486 16.1536C23.9646 16.0648 24.0363 15.9497 24.0363 15.828V14.6431C24.0363 14.5214 23.9646 14.4063 23.8486 14.3175C23.7064 14.209 23.5039 14.1411 23.2764 14.1411H13.5696C13.3421 14.1411 13.1396 14.2079 12.9975 14.3175C12.8814 14.4063 12.8098 14.5214 12.8098 14.6431V15.828C12.8098 15.9497 12.8814 16.0648 12.9975 16.1536C13.1397 16.2621 13.3421 16.3301 13.5696 16.3301H23.2764ZM9.38227 6.55595L1.56606 12.4782C1.39429 12.6086 1.14517 12.5801 1.00978 12.4135C0.874414 12.248 0.903989 12.0079 1.0769 11.8775L8.86806 5.9749L7.06276 5.7502C6.84662 5.72389 6.69306 5.53316 6.72035 5.32381C6.74765 5.11555 6.94559 4.96758 7.16285 4.99387L9.94532 5.34026C10.1615 5.36656 10.315 5.55729 10.2877 5.76664L9.92826 8.44776C9.90095 8.65602 9.70302 8.80399 9.48575 8.7777C9.26962 8.75139 9.11606 8.56066 9.14334 8.35131L9.38451 6.55588L9.38227 6.55595Z" fill="white"/>
</svg>
