<svg width="27" height="20" viewBox="0 0 27 20" fill="none" xmlns="http://www.w3.org/2000/svg">
<path d="M0 2.0979V17.9021C0 19.0494 0.950601 20 2.0979 20H24.4755C25.6228 20 26.5734 19.0494 26.5734 17.9021V2.0979C26.5734 0.950602 25.6228 0 24.4755 0H2.0979C0.950601 0 0 0.923301 0 2.0979ZM25.1748 17.8736C25.1748 18.2647 24.8667 18.5729 24.4755 18.5729H2.0979C1.70674 18.5729 1.3986 18.2647 1.3986 17.8736V6.68476H25.1748V17.8736ZM25.1748 2.0979V5.31469H1.3986V2.0979C1.3986 1.70674 1.70674 1.3986 2.0979 1.3986H24.4755C24.8667 1.3986 25.1748 1.70565 25.1748 2.0979Z" fill="white"/>
<path d="M18.2661 4.02739H19.5532C19.9444 4.02739 20.2525 3.71925 20.2525 3.32808C20.2525 2.93692 19.9444 2.62878 19.5532 2.62878H18.2661C17.8749 2.62878 17.5668 2.93692 17.5668 3.32808C17.5668 3.72034 17.8738 4.02739 18.2661 4.02739Z" fill="white"/>
<path d="M22.0694 4.02739H23.3566C23.7477 4.02739 24.0559 3.71925 24.0559 3.32808C24.0559 2.93692 23.7477 2.62878 23.3566 2.62878H22.0694C21.6783 2.62878 21.3701 2.93692 21.3701 3.32808C21.3701 3.72034 21.6783 4.02739 22.0694 4.02739Z" fill="white"/>
<path d="M7.63664 16.0554C7.7765 16.1952 7.94478 16.2509 8.14036 16.2509C8.33595 16.2509 8.50422 16.1952 8.64408 16.0554C8.9238 15.7756 8.9238 15.3276 8.64408 15.0763L6.23804 12.6703L8.64408 10.2643C8.9238 9.98453 8.9238 9.53653 8.64408 9.28523C8.36436 9.00551 7.91636 9.00551 7.66506 9.28523L4.72688 12.1392C4.44716 12.4189 4.44716 12.8669 4.72688 13.1182L7.63664 16.0554Z" fill="white"/>
<path d="M17.9577 16.0554C18.0976 16.1953 18.2658 16.251 18.4614 16.251C18.6297 16.251 18.8253 16.1953 18.9651 16.0554L21.8737 13.1469C22.1534 12.8671 22.1534 12.4191 21.8737 12.1678L18.9366 9.23079C18.6569 8.95107 18.2089 8.95107 17.9576 9.23079C17.6779 9.51051 17.6779 9.95851 17.9576 10.2098L20.3636 12.6158L17.9576 15.0219C17.6779 15.3289 17.678 15.7757 17.9577 16.0554Z" fill="white"/>
<path d="M11.2445 16.1681C11.3559 16.2238 11.4685 16.2522 11.5799 16.2522C11.8312 16.2522 12.0552 16.1408 12.1951 15.9168L15.5517 10.0983C15.7473 9.76287 15.6359 9.34329 15.3004 9.14771C14.965 8.95212 14.5454 9.06357 14.3498 9.39902L10.9932 15.2175C10.7976 15.5245 10.909 15.9714 11.2445 16.1681Z" fill="white"/>
</svg>
