<svg width="19" height="18" viewBox="0 0 19 18" fill="none" xmlns="http://www.w3.org/2000/svg">
<path d="M8.45972 0.437125C8.64914 -0.145857 9.47391 -0.145858 9.66333 0.437124L11.3687 5.68578C11.4534 5.9465 11.6964 6.12302 11.9705 6.12302H17.4893C18.1023 6.12302 18.3571 6.90742 17.8612 7.26772L13.3965 10.5116C13.1747 10.6727 13.0819 10.9583 13.1666 11.219L14.872 16.4677C15.0614 17.0507 14.3941 17.5355 13.8982 17.1752L9.43346 13.9313C9.21168 13.7702 8.91137 13.7702 8.68959 13.9313L4.22481 17.1752C3.7289 17.5355 3.06165 17.0507 3.25107 16.4677L4.95647 11.219C5.04118 10.9583 4.94838 10.6727 4.7266 10.5116L0.261822 7.26772C-0.234092 6.90742 0.0207734 6.12302 0.633757 6.12302H6.15252C6.42666 6.12302 6.66962 5.9465 6.75433 5.68578L8.45972 0.437125Z" fill="#FBBE15"/>
</svg>
