<svg width="191" height="191" viewBox="0 0 191 191" fill="none" xmlns="http://www.w3.org/2000/svg">
<circle cx="95.2914" cy="95.2914" r="95.2914" fill="#F6F6F6"/>
<path d="M47.4278 146.781C46.8331 146.781 46.2921 146.678 45.8048 146.471C45.3257 146.256 44.9458 145.947 44.6649 145.542C44.3841 145.129 44.2396 144.621 44.2313 144.018H45.6065C45.6148 144.513 45.7841 144.914 46.1145 145.22C46.4449 145.517 46.8827 145.666 47.4278 145.666C47.8986 145.666 48.2827 145.554 48.58 145.331C48.8856 145.1 49.0385 144.782 49.0385 144.377C49.0385 144.129 48.9972 143.927 48.9146 143.77C48.832 143.605 48.6957 143.46 48.5057 143.336C48.324 143.213 48.0803 143.097 47.7747 142.99C47.4691 142.874 47.0933 142.742 46.6473 142.593C46.1517 142.42 45.7428 142.226 45.4207 142.011C45.1068 141.788 44.8714 141.532 44.7145 141.243C44.5576 140.945 44.4791 140.611 44.4791 140.239C44.4791 139.71 44.603 139.269 44.8508 138.913C45.1068 138.55 45.4496 138.277 45.8791 138.096C46.3086 137.906 46.7836 137.811 47.3039 137.811C47.8325 137.811 48.3075 137.906 48.7287 138.096C49.1582 138.277 49.501 138.554 49.757 138.926C50.0214 139.289 50.1576 139.735 50.1659 140.264H48.7659C48.7659 139.884 48.6255 139.566 48.3446 139.31C48.0721 139.054 47.7086 138.926 47.2544 138.926C46.8661 138.918 46.5358 139.017 46.2632 139.223C45.9906 139.43 45.8543 139.731 45.8543 140.128C45.8543 140.408 45.9328 140.636 46.0897 140.809C46.2467 140.982 46.4821 141.135 46.7959 141.267C47.1098 141.4 47.5021 141.548 47.9729 141.713C48.2786 141.813 48.5759 141.928 48.865 142.06C49.1623 142.192 49.4267 142.358 49.6579 142.556C49.8892 142.746 50.0709 142.981 50.2031 143.262C50.3435 143.543 50.4137 143.886 50.4137 144.29C50.4137 144.819 50.2774 145.269 50.0048 145.641C49.7405 146.004 49.3812 146.285 48.9269 146.483C48.4809 146.682 47.9812 146.781 47.4278 146.781ZM53.9569 146.632C53.3457 146.632 52.8749 146.483 52.5445 146.186C52.2141 145.889 52.0489 145.401 52.0489 144.724V141.59H51.1197V140.487H52.0489V139H53.3622V140.487H54.9233V141.59H53.3622V144.724C53.3622 145.038 53.4324 145.249 53.5728 145.356C53.7133 145.463 53.9321 145.517 54.2295 145.517H54.9233V146.632H53.9569ZM55.9782 146.632V140.487H57.2419L57.2791 141.528C57.4856 141.156 57.7664 140.867 58.1216 140.66C58.485 140.446 58.9104 140.338 59.3977 140.338V141.713H59.0384C58.4519 141.713 58.0142 141.866 57.7251 142.172C57.436 142.469 57.2915 142.928 57.2915 143.547V146.632H55.9782ZM62.1315 146.781C61.7351 146.781 61.3716 146.711 61.0412 146.57C60.7108 146.421 60.4465 146.207 60.2483 145.926C60.0501 145.645 59.951 145.306 59.951 144.91C59.951 144.439 60.0666 144.063 60.2979 143.782C60.5374 143.493 60.8554 143.283 61.2519 143.151C61.6566 143.01 62.0985 142.94 62.5775 142.94H64.1386C64.1386 142.585 64.0808 142.3 63.9652 142.085C63.8495 141.862 63.6926 141.701 63.4944 141.602C63.2961 141.495 63.0649 141.441 62.8006 141.441C62.4536 141.441 62.148 141.523 61.8837 141.689C61.6277 141.846 61.4666 142.097 61.4005 142.444H60.0748C60.1161 141.998 60.2648 141.618 60.5209 141.305C60.7852 140.991 61.1197 140.751 61.5244 140.586C61.9292 140.421 62.3587 140.338 62.8129 140.338C63.4076 140.338 63.8991 140.45 64.2873 140.673C64.6838 140.887 64.977 141.189 65.167 141.577C65.3652 141.965 65.4643 142.407 65.4643 142.903V144.786C65.4726 145.026 65.5221 145.203 65.613 145.319C65.7121 145.426 65.8856 145.488 66.1333 145.505V146.632C65.803 146.632 65.5139 146.595 65.2661 146.521C65.0265 146.446 64.8283 146.335 64.6714 146.186C64.5144 146.029 64.3905 145.831 64.2997 145.591C64.1015 145.922 63.8124 146.203 63.4324 146.434C63.0525 146.665 62.6188 146.781 62.1315 146.781ZM62.4413 145.703C62.7799 145.703 63.0773 145.62 63.3333 145.455C63.5894 145.282 63.7876 145.059 63.928 144.786C64.0684 144.505 64.1386 144.204 64.1386 143.882V143.857H62.6767C62.4371 143.857 62.21 143.886 61.9952 143.944C61.7887 144.001 61.6194 144.1 61.4873 144.241C61.3634 144.373 61.3014 144.559 61.3014 144.798C61.3014 145.112 61.4129 145.344 61.6359 145.492C61.8589 145.633 62.1274 145.703 62.4413 145.703ZM69.2053 146.632C68.5941 146.632 68.1233 146.483 67.7929 146.186C67.4625 145.889 67.2973 145.401 67.2973 144.724V141.59H66.3681V140.487H67.2973V139H68.6106V140.487H70.1717V141.59H68.6106V144.724C68.6106 145.038 68.6808 145.249 68.8212 145.356C68.9616 145.463 69.1805 145.517 69.4779 145.517H70.1717V146.632H69.2053ZM73.9188 146.781C73.3159 146.781 72.7831 146.644 72.3206 146.372C71.858 146.099 71.4946 145.719 71.2303 145.232C70.9743 144.745 70.8462 144.187 70.8462 143.559C70.8462 142.907 70.9743 142.341 71.2303 141.862C71.4864 141.383 71.8457 141.011 72.3082 140.747C72.779 140.474 73.32 140.338 73.9312 140.338C74.5259 140.338 75.0463 140.47 75.4923 140.735C75.9383 140.991 76.2852 141.342 76.533 141.788C76.7891 142.234 76.9171 142.742 76.9171 143.312C76.9171 143.427 76.913 143.526 76.9047 143.609C76.9047 143.692 76.8965 143.791 76.8799 143.906H72.1595C72.1843 144.253 72.271 144.563 72.4197 144.836C72.5684 145.1 72.7707 145.311 73.0268 145.467C73.2828 145.616 73.5761 145.69 73.9065 145.69C74.2616 145.69 74.5631 145.612 74.8109 145.455C75.0669 145.29 75.2569 145.059 75.3808 144.761H76.7437C76.6363 145.133 76.4546 145.472 76.1985 145.777C75.9507 146.083 75.6369 146.326 75.2569 146.508C74.877 146.69 74.4309 146.781 73.9188 146.781ZM72.1719 142.977H75.579C75.5625 142.498 75.3932 142.122 75.0711 141.85C74.7489 141.569 74.3566 141.428 73.8941 141.428C73.4811 141.428 73.1053 141.556 72.7666 141.813C72.428 142.069 72.2297 142.457 72.1719 142.977ZM80.4068 149.506C79.8865 149.506 79.4033 149.445 78.9572 149.321C78.5112 149.197 78.1519 148.99 77.8793 148.701C77.615 148.42 77.4829 148.044 77.4829 147.574C77.4829 147.26 77.5531 146.996 77.6935 146.781C77.8339 146.566 78.0321 146.388 78.2882 146.248C78.0817 146.132 77.9206 145.984 77.805 145.802C77.6894 145.62 77.6315 145.41 77.6315 145.17C77.6315 144.65 77.8711 144.241 78.3501 143.944C78.1767 143.754 78.0404 143.539 77.9413 143.299C77.8422 143.06 77.7926 142.8 77.7926 142.519C77.7926 142.073 77.9 141.689 78.1147 141.367C78.3295 141.036 78.6227 140.784 78.9944 140.611C79.3661 140.429 79.7915 140.338 80.2705 140.338C80.6257 140.338 80.952 140.388 81.2493 140.487H83.4051V141.515H82.5007C82.575 141.672 82.6328 141.833 82.6741 141.998C82.7237 142.164 82.7484 142.337 82.7484 142.519C82.7484 142.973 82.6369 143.365 82.4139 143.696C82.1992 144.018 81.906 144.27 81.5343 144.452C81.1626 144.625 80.7413 144.712 80.2705 144.712C80.0558 144.712 79.8575 144.691 79.6758 144.65C79.4941 144.6 79.3124 144.534 79.1307 144.452C78.9325 144.551 78.8333 144.703 78.8333 144.91C78.8333 145.298 79.1596 145.492 79.8121 145.492H80.89C81.3691 145.492 81.7821 145.558 82.129 145.69C82.4841 145.814 82.7567 146.017 82.9467 146.298C83.1449 146.578 83.244 146.946 83.244 147.4C83.244 147.846 83.1119 148.226 82.8476 148.54C82.5915 148.854 82.2487 149.093 81.8192 149.259C81.3897 149.424 80.9189 149.506 80.4068 149.506ZM80.3944 148.453C80.8404 148.453 81.2204 148.375 81.5343 148.218C81.8481 148.061 82.0051 147.821 82.0051 147.499C82.0051 146.905 81.621 146.607 80.8528 146.607H79.8741C79.5106 146.607 79.2257 146.682 79.0192 146.83C78.8127 146.979 78.7094 147.202 78.7094 147.499C78.7094 147.731 78.7879 147.916 78.9448 148.057C79.1018 148.197 79.3083 148.296 79.5643 148.354C79.8204 148.42 80.0971 148.453 80.3944 148.453ZM80.2581 143.659C80.6298 143.659 80.9313 143.551 81.1626 143.336C81.4021 143.122 81.5219 142.849 81.5219 142.519C81.5219 142.197 81.4021 141.928 81.1626 141.713C80.9313 141.499 80.6298 141.391 80.2581 141.391C79.8865 141.391 79.585 141.499 79.3537 141.713C79.1307 141.928 79.0192 142.197 79.0192 142.519C79.0192 142.849 79.1266 143.122 79.3413 143.336C79.5643 143.551 79.8699 143.659 80.2581 143.659ZM84.871 149.358L86.2339 146.36L83.6692 140.487H85.1188L86.9277 144.972L88.8109 140.487H90.1862L86.2587 149.358H84.871ZM96.4546 146.781C96.0499 146.781 95.6782 146.719 95.3395 146.595C95.0009 146.463 94.7077 146.281 94.4599 146.05C94.2121 145.818 94.018 145.55 93.8776 145.244C93.7454 144.931 93.6793 144.588 93.6793 144.216C93.6793 143.894 93.7371 143.593 93.8528 143.312C93.9684 143.023 94.1212 142.758 94.3112 142.519C94.5094 142.279 94.7324 142.073 94.9802 141.899L95.067 141.825L94.9802 141.701C94.782 141.445 94.6292 141.189 94.5218 140.933C94.4227 140.669 94.3731 140.392 94.3731 140.103C94.3731 139.657 94.4764 139.264 94.6829 138.926C94.8976 138.579 95.195 138.306 95.5749 138.108C95.9549 137.91 96.3968 137.811 96.9006 137.811C97.4127 137.811 97.8587 137.91 98.2387 138.108C98.6186 138.306 98.916 138.587 99.1307 138.951C99.3455 139.306 99.4529 139.735 99.4529 140.239H98.1644C98.1644 139.991 98.1148 139.772 98.0157 139.582C97.9248 139.392 97.7844 139.244 97.5944 139.136C97.4045 139.021 97.1691 138.963 96.8882 138.963C96.6239 138.963 96.4009 139.017 96.2192 139.124C96.0375 139.231 95.9012 139.372 95.8103 139.545C95.7195 139.719 95.6741 139.909 95.6741 140.115C95.6741 140.462 95.8021 140.792 96.0581 141.106C96.3224 141.42 96.6611 141.784 97.0741 142.197L98.7219 143.832L100.01 141.614H101.398L99.5644 144.675L101.534 146.632H99.8865L98.8706 145.616L98.7838 145.728C98.4865 146.05 98.1437 146.306 97.7555 146.496C97.3756 146.686 96.9419 146.781 96.4546 146.781ZM96.5289 145.604C96.8345 145.604 97.1071 145.542 97.3466 145.418C97.5862 145.286 97.8257 145.083 98.0652 144.811L95.8723 142.655C95.5915 142.853 95.3726 143.076 95.2156 143.324C95.0587 143.564 94.9802 143.832 94.9802 144.129C94.9802 144.394 95.0463 144.637 95.1785 144.86C95.3106 145.083 95.4923 145.265 95.7236 145.406C95.9631 145.538 96.2316 145.604 96.5289 145.604ZM44.0207 161.632L47.2048 152.959H48.642L51.8261 161.632H50.4261L49.6951 159.526H46.1393L45.3959 161.632H44.0207ZM46.5234 158.473H49.311L47.911 154.52L46.5234 158.473ZM52.7022 161.632V155.487H53.9659L54.0031 156.528C54.2096 156.156 54.4904 155.867 54.8456 155.66C55.209 155.446 55.6344 155.338 56.1217 155.338V156.713H55.7624C55.176 156.713 54.7382 156.866 54.4491 157.172C54.16 157.469 54.0155 157.928 54.0155 158.547V161.632H52.7022ZM59.6387 161.781C59.0357 161.781 58.503 161.644 58.0404 161.372C57.5779 161.099 57.2145 160.724 56.9502 160.244C56.6858 159.757 56.5537 159.195 56.5537 158.559C56.5537 157.932 56.6817 157.374 56.9378 156.887C57.1938 156.4 57.5531 156.02 58.0157 155.747C58.4782 155.474 59.0192 155.338 59.6387 155.338C60.3738 155.338 60.9933 155.528 61.4971 155.908C62.0092 156.28 62.3438 156.804 62.5007 157.482H61.1131C61.0387 157.176 60.8653 156.928 60.5927 156.738C60.3284 156.548 60.0063 156.453 59.6263 156.453C59.2381 156.453 58.916 156.552 58.6599 156.751C58.4039 156.941 58.2098 157.197 58.0776 157.519C57.9537 157.833 57.8918 158.18 57.8918 158.559C57.8918 158.956 57.9578 159.315 58.09 159.637C58.2304 159.951 58.4286 160.203 58.6847 160.393C58.949 160.575 59.2629 160.666 59.6263 160.666C59.998 160.666 60.316 160.579 60.5803 160.406C60.8446 160.224 61.0222 159.964 61.1131 159.625H62.5007C62.4016 160.063 62.2199 160.443 61.9555 160.765C61.6912 161.087 61.3608 161.339 60.9644 161.521C60.5679 161.694 60.126 161.781 59.6387 161.781ZM63.5493 161.632V152.959H64.8626V156.367C65.0691 156.036 65.3582 155.784 65.7299 155.611C66.1016 155.429 66.4898 155.338 66.8945 155.338C67.6049 155.338 68.1789 155.565 68.6167 156.02C69.0627 156.466 69.2857 157.135 69.2857 158.027V161.632H67.9848V158.188C67.9848 157.634 67.8609 157.209 67.6131 156.912C67.3653 156.606 66.9978 156.453 66.5105 156.453C66.0149 156.453 65.6143 156.623 65.3087 156.961C65.0113 157.292 64.8626 157.75 64.8626 158.336V161.632H63.5493ZM71.1985 154.409C70.9589 154.409 70.7524 154.326 70.579 154.161C70.4138 153.988 70.3312 153.777 70.3312 153.529C70.3312 153.29 70.4138 153.087 70.579 152.922C70.7524 152.757 70.9589 152.674 71.1985 152.674C71.4462 152.674 71.6527 152.757 71.8179 152.922C71.9914 153.087 72.0781 153.29 72.0781 153.529C72.0781 153.777 71.9914 153.988 71.8179 154.161C71.6527 154.326 71.4462 154.409 71.1985 154.409ZM70.5418 161.632V155.487H71.8551V161.632H70.5418ZM75.6512 161.632C75.04 161.632 74.5692 161.483 74.2388 161.186C73.9084 160.889 73.7433 160.401 73.7433 159.724V156.59H72.814V155.487H73.7433V154H75.0565V155.487H76.6176V156.59H75.0565V159.724C75.0565 160.038 75.1268 160.249 75.2672 160.356C75.4076 160.463 75.6265 160.517 75.9238 160.517H76.6176V161.632H75.6512ZM80.3648 161.781C79.7618 161.781 79.2291 161.644 78.7666 161.372C78.304 161.099 77.9406 160.719 77.6763 160.232C77.4202 159.745 77.2922 159.187 77.2922 158.559C77.2922 157.907 77.4202 157.341 77.6763 156.862C77.9323 156.383 78.2916 156.011 78.7542 155.747C79.225 155.474 79.766 155.338 80.3772 155.338C80.9719 155.338 81.4923 155.47 81.9383 155.735C82.3843 155.991 82.7312 156.342 82.979 156.788C83.2351 157.234 83.3631 157.742 83.3631 158.312C83.3631 158.427 83.359 158.526 83.3507 158.609C83.3507 158.692 83.3424 158.791 83.3259 158.906H78.6055C78.6303 159.253 78.717 159.563 78.8657 159.836C79.0143 160.1 79.2167 160.311 79.4728 160.467C79.7288 160.616 80.022 160.69 80.3524 160.69C80.7076 160.69 81.0091 160.612 81.2569 160.455C81.5129 160.29 81.7029 160.059 81.8268 159.761H83.1896C83.0823 160.133 82.9005 160.472 82.6445 160.777C82.3967 161.083 82.0828 161.326 81.7029 161.508C81.3229 161.69 80.8769 161.781 80.3648 161.781ZM78.6179 157.977H82.025C82.0085 157.498 81.8392 157.122 81.517 156.85C81.1949 156.569 80.8026 156.428 80.34 156.428C79.927 156.428 79.5512 156.556 79.2126 156.813C78.8739 157.069 78.6757 157.457 78.6179 157.977ZM87.1982 161.781C86.5953 161.781 86.0625 161.644 85.6 161.372C85.1374 161.099 84.774 160.724 84.5097 160.244C84.2454 159.757 84.1132 159.195 84.1132 158.559C84.1132 157.932 84.2413 157.374 84.4973 156.887C84.7534 156.4 85.1127 156.02 85.5752 155.747C86.0377 155.474 86.5788 155.338 87.1982 155.338C87.9333 155.338 88.5528 155.528 89.0567 155.908C89.5688 156.28 89.9033 156.804 90.0602 157.482H88.6726C88.5983 157.176 88.4248 156.928 88.1522 156.738C87.8879 156.548 87.5658 156.453 87.1858 156.453C86.7976 156.453 86.4755 156.552 86.2195 156.751C85.9634 156.941 85.7693 157.197 85.6371 157.519C85.5133 157.833 85.4513 158.18 85.4513 158.559C85.4513 158.956 85.5174 159.315 85.6495 159.637C85.79 159.951 85.9882 160.203 86.2442 160.393C86.5085 160.575 86.8224 160.666 87.1858 160.666C87.5575 160.666 87.8755 160.579 88.1398 160.406C88.4042 160.224 88.5817 159.964 88.6726 159.625H90.0602C89.9611 160.063 89.7794 160.443 89.5151 160.765C89.2508 161.087 88.9204 161.339 88.5239 161.521C88.1274 161.694 87.6856 161.781 87.1982 161.781ZM93.4404 161.632C92.8292 161.632 92.3584 161.483 92.028 161.186C91.6976 160.889 91.5325 160.401 91.5325 159.724V156.59H90.6032V155.487H91.5325V154H92.8457V155.487H94.4068V156.59H92.8457V159.724C92.8457 160.038 92.916 160.249 93.0564 160.356C93.1968 160.463 93.4157 160.517 93.713 160.517H94.4068V161.632H93.4404ZM97.7909 161.781C97.2871 161.781 96.8534 161.678 96.49 161.471C96.1266 161.256 95.8458 160.951 95.6475 160.554C95.4493 160.149 95.3502 159.666 95.3502 159.105V155.487H96.6511V158.931C96.6511 159.476 96.775 159.902 97.0228 160.207C97.2788 160.513 97.6505 160.666 98.1378 160.666C98.6417 160.666 99.0381 160.5 99.3272 160.17C99.6163 159.831 99.7609 159.369 99.7609 158.782V155.487H101.074V161.632H99.8104L99.7856 160.715C99.5792 161.054 99.2983 161.318 98.9432 161.508C98.5962 161.69 98.2122 161.781 97.7909 161.781ZM102.367 161.632V155.487H103.631L103.668 156.528C103.875 156.156 104.156 155.867 104.511 155.66C104.874 155.446 105.3 155.338 105.787 155.338V156.713H105.428C104.841 156.713 104.403 156.866 104.114 157.172C103.825 157.469 103.681 157.928 103.681 158.547V161.632H102.367ZM109.292 161.781C108.689 161.781 108.156 161.644 107.693 161.372C107.231 161.099 106.867 160.719 106.603 160.232C106.347 159.745 106.219 159.187 106.219 158.559C106.219 157.907 106.347 157.341 106.603 156.862C106.859 156.383 107.218 156.011 107.681 155.747C108.152 155.474 108.693 155.338 109.304 155.338C109.899 155.338 110.419 155.47 110.865 155.735C111.311 155.991 111.658 156.342 111.906 156.788C112.162 157.234 112.29 157.742 112.29 158.312C112.29 158.427 112.286 158.526 112.277 158.609C112.277 158.692 112.269 158.791 112.253 158.906H107.532C107.557 159.253 107.644 159.563 107.792 159.836C107.941 160.1 108.143 160.311 108.399 160.467C108.656 160.616 108.949 160.69 109.279 160.69C109.634 160.69 109.936 160.612 110.184 160.455C110.44 160.29 110.63 160.059 110.754 159.761H112.116C112.009 160.133 111.827 160.472 111.571 160.777C111.323 161.083 111.01 161.326 110.63 161.508C110.25 161.69 109.804 161.781 109.292 161.781ZM107.545 157.977H110.952C110.935 157.498 110.766 157.122 110.444 156.85C110.122 156.569 109.729 156.428 109.267 156.428C108.854 156.428 108.478 156.556 108.139 156.813C107.801 157.069 107.602 157.457 107.545 157.977Z" fill="black"/>
<circle cx="24.0403" cy="157.799" r="3.05982" fill="#00A2FF"/>
</svg>
