<svg width="570" height="570" viewBox="0 0 570 570" fill="none" xmlns="http://www.w3.org/2000/svg">
<circle cx="285" cy="285" r="285" fill="#F6F6F6"/>
<path d="M161.611 521.974C160.931 521.974 160.313 521.856 159.756 521.62C159.209 521.374 158.775 521.02 158.454 520.558C158.133 520.086 157.967 519.505 157.958 518.816H159.53C159.539 519.382 159.733 519.84 160.11 520.19C160.488 520.529 160.988 520.699 161.611 520.699C162.149 520.699 162.588 520.572 162.928 520.317C163.277 520.053 163.452 519.689 163.452 519.227C163.452 518.943 163.405 518.712 163.31 518.533C163.216 518.344 163.06 518.179 162.843 518.037C162.635 517.896 162.357 517.764 162.008 517.641C161.658 517.509 161.229 517.358 160.719 517.188C160.153 516.989 159.685 516.768 159.317 516.522C158.959 516.267 158.69 515.975 158.51 515.644C158.331 515.304 158.241 514.922 158.241 514.497C158.241 513.893 158.383 513.388 158.666 512.982C158.959 512.567 159.35 512.255 159.841 512.048C160.332 511.831 160.875 511.722 161.47 511.722C162.074 511.722 162.616 511.831 163.098 512.048C163.589 512.255 163.98 512.572 164.273 512.996C164.575 513.412 164.731 513.922 164.74 514.526H163.14C163.14 514.091 162.98 513.728 162.659 513.435C162.347 513.143 161.932 512.996 161.413 512.996C160.969 512.987 160.592 513.1 160.28 513.336C159.969 513.572 159.813 513.917 159.813 514.37C159.813 514.691 159.903 514.951 160.082 515.149C160.261 515.347 160.53 515.522 160.889 515.673C161.248 515.824 161.696 515.994 162.234 516.182C162.583 516.296 162.923 516.428 163.254 516.579C163.593 516.73 163.896 516.919 164.16 517.145C164.424 517.362 164.632 517.631 164.783 517.952C164.943 518.273 165.024 518.665 165.024 519.128C165.024 519.732 164.868 520.246 164.556 520.671C164.254 521.086 163.844 521.407 163.324 521.634C162.815 521.86 162.244 521.974 161.611 521.974ZM168.96 521.974C168.384 521.974 167.888 521.856 167.473 521.62C167.058 521.374 166.737 521.025 166.51 520.572C166.284 520.109 166.17 519.557 166.17 518.915V514.781H167.657V518.717C167.657 519.34 167.799 519.826 168.082 520.175C168.374 520.525 168.799 520.699 169.356 520.699C169.932 520.699 170.385 520.51 170.715 520.133C171.046 519.746 171.211 519.217 171.211 518.547V514.781H172.712V521.804H171.268L171.239 520.756C171.003 521.143 170.682 521.445 170.277 521.662C169.88 521.87 169.441 521.974 168.96 521.974ZM174.19 524.919V514.781H175.634L175.691 515.843C175.936 515.484 176.267 515.191 176.682 514.965C177.097 514.729 177.588 514.611 178.155 514.611C178.853 514.611 179.453 514.776 179.953 515.106C180.453 515.427 180.84 515.866 181.114 516.423C181.388 516.971 181.525 517.589 181.525 518.278C181.525 518.967 181.388 519.595 181.114 520.161C180.84 520.718 180.448 521.162 179.939 521.492C179.438 521.813 178.844 521.974 178.155 521.974C177.569 521.974 177.064 521.856 176.64 521.62C176.224 521.374 175.908 521.077 175.691 520.728V524.919H174.19ZM177.843 520.657C178.277 520.657 178.655 520.553 178.976 520.345C179.297 520.138 179.547 519.854 179.726 519.496C179.906 519.137 179.995 518.731 179.995 518.278C179.995 517.806 179.901 517.395 179.712 517.046C179.533 516.687 179.283 516.409 178.962 516.211C178.641 516.012 178.268 515.913 177.843 515.913C177.428 515.913 177.06 516.017 176.739 516.225C176.418 516.423 176.163 516.702 175.974 517.06C175.795 517.41 175.705 517.82 175.705 518.292C175.705 518.726 175.795 519.128 175.974 519.496C176.153 519.854 176.404 520.138 176.725 520.345C177.045 520.553 177.418 520.657 177.843 520.657ZM182.732 524.919V514.781H184.176L184.233 515.843C184.478 515.484 184.809 515.191 185.224 514.965C185.64 514.729 186.13 514.611 186.697 514.611C187.395 514.611 187.995 514.776 188.495 515.106C188.995 515.427 189.382 515.866 189.656 516.423C189.93 516.971 190.067 517.589 190.067 518.278C190.067 518.967 189.93 519.595 189.656 520.161C189.382 520.718 188.991 521.162 188.481 521.492C187.981 521.813 187.386 521.974 186.697 521.974C186.112 521.974 185.607 521.856 185.182 521.62C184.766 521.374 184.45 521.077 184.233 520.728V524.919H182.732ZM186.385 520.657C186.82 520.657 187.197 520.553 187.518 520.345C187.839 520.138 188.089 519.854 188.269 519.496C188.448 519.137 188.538 518.731 188.538 518.278C188.538 517.806 188.443 517.395 188.254 517.046C188.075 516.687 187.825 516.409 187.504 516.211C187.183 516.012 186.81 515.913 186.385 515.913C185.97 515.913 185.602 516.017 185.281 516.225C184.96 516.423 184.705 516.702 184.516 517.06C184.337 517.41 184.247 517.82 184.247 518.292C184.247 518.726 184.337 519.128 184.516 519.496C184.696 519.854 184.946 520.138 185.267 520.345C185.588 520.553 185.961 520.657 186.385 520.657ZM194.616 521.974C193.936 521.974 193.323 521.827 192.775 521.535C192.237 521.233 191.808 520.803 191.487 520.246C191.175 519.689 191.019 519.033 191.019 518.278C191.019 517.523 191.18 516.871 191.501 516.324C191.831 515.776 192.27 515.356 192.818 515.064C193.375 514.762 193.993 514.611 194.673 514.611C195.352 514.611 195.966 514.757 196.513 515.05C197.061 515.342 197.5 515.762 197.83 516.31C198.161 516.857 198.326 517.513 198.326 518.278C198.326 518.995 198.165 519.633 197.844 520.19C197.533 520.746 197.099 521.185 196.542 521.506C195.985 521.818 195.343 521.974 194.616 521.974ZM194.63 520.671C195.045 520.671 195.414 520.567 195.735 520.359C196.065 520.152 196.325 519.869 196.513 519.51C196.702 519.142 196.797 518.726 196.797 518.264C196.797 517.792 196.702 517.381 196.513 517.032C196.334 516.673 196.084 516.399 195.763 516.211C195.442 516.012 195.069 515.913 194.644 515.913C194.201 515.913 193.818 516.017 193.497 516.225C193.186 516.433 192.945 516.716 192.775 517.074C192.615 517.424 192.535 517.825 192.535 518.278C192.535 518.797 192.629 519.236 192.818 519.595C193.016 519.954 193.276 520.223 193.596 520.402C193.917 520.581 194.262 520.671 194.63 520.671ZM199.526 521.804V514.781H200.97L201.013 515.97C201.249 515.545 201.57 515.215 201.976 514.979C202.391 514.733 202.877 514.611 203.434 514.611V516.182H203.023C202.353 516.182 201.853 516.357 201.523 516.706C201.192 517.046 201.027 517.57 201.027 518.278V521.804H199.526ZM207.221 521.804C206.522 521.804 205.984 521.634 205.607 521.294C205.229 520.954 205.04 520.397 205.04 519.623V516.041H203.978V514.781H205.04V513.081H206.541V514.781H208.325V516.041H206.541V519.623C206.541 519.982 206.621 520.223 206.782 520.345C206.942 520.468 207.192 520.529 207.532 520.529H208.325V521.804H207.221ZM216 521.974C215.537 521.974 215.112 521.903 214.725 521.761C214.338 521.61 214.003 521.403 213.72 521.138C213.437 520.874 213.215 520.567 213.054 520.218C212.903 519.859 212.828 519.467 212.828 519.043C212.828 518.674 212.894 518.33 213.026 518.009C213.158 517.679 213.333 517.377 213.55 517.103C213.777 516.829 214.031 516.593 214.315 516.395L214.414 516.31L214.315 516.168C214.088 515.876 213.913 515.583 213.791 515.29C213.677 514.988 213.621 514.672 213.621 514.342C213.621 513.832 213.739 513.384 213.975 512.996C214.22 512.6 214.56 512.289 214.994 512.062C215.428 511.835 215.934 511.722 216.509 511.722C217.095 511.722 217.604 511.835 218.039 512.062C218.473 512.289 218.813 512.609 219.058 513.025C219.303 513.431 219.426 513.922 219.426 514.497H217.954C217.954 514.214 217.897 513.964 217.784 513.747C217.68 513.53 217.519 513.36 217.302 513.237C217.085 513.105 216.816 513.039 216.495 513.039C216.193 513.039 215.938 513.1 215.731 513.223C215.523 513.346 215.367 513.506 215.263 513.704C215.159 513.903 215.108 514.12 215.108 514.356C215.108 514.752 215.254 515.13 215.546 515.489C215.849 515.847 216.236 516.263 216.708 516.735L218.591 518.604L220.063 516.069H221.649L219.554 519.567L221.805 521.804H219.922L218.761 520.643L218.662 520.77C218.322 521.138 217.93 521.431 217.486 521.648C217.052 521.865 216.557 521.974 216 521.974ZM216.085 520.628C216.434 520.628 216.745 520.558 217.019 520.416C217.293 520.265 217.567 520.034 217.84 519.722L215.334 517.259C215.013 517.485 214.763 517.74 214.584 518.023C214.404 518.297 214.315 518.604 214.315 518.943C214.315 519.246 214.39 519.524 214.541 519.779C214.692 520.034 214.9 520.241 215.164 520.402C215.438 520.553 215.745 520.628 216.085 520.628ZM226.353 521.804V511.892H232.597V513.152H227.854V515.942H231.96V517.188H227.854V520.544H232.597V521.804H226.353ZM236.031 521.804L233.383 514.781H234.969L236.923 520.416L238.891 514.781H240.448L237.801 521.804H236.031ZM244.286 521.974C243.606 521.974 242.993 521.827 242.445 521.535C241.907 521.233 241.478 520.803 241.157 520.246C240.845 519.689 240.689 519.033 240.689 518.278C240.689 517.523 240.85 516.871 241.171 516.324C241.501 515.776 241.94 515.356 242.488 515.064C243.045 514.762 243.663 514.611 244.343 514.611C245.022 514.611 245.636 514.757 246.183 515.05C246.731 515.342 247.17 515.762 247.5 516.31C247.831 516.857 247.996 517.513 247.996 518.278C247.996 518.995 247.835 519.633 247.514 520.19C247.203 520.746 246.769 521.185 246.212 521.506C245.655 521.818 245.013 521.974 244.286 521.974ZM244.3 520.671C244.715 520.671 245.084 520.567 245.405 520.359C245.735 520.152 245.995 519.869 246.183 519.51C246.372 519.142 246.467 518.726 246.467 518.264C246.467 517.792 246.372 517.381 246.183 517.032C246.004 516.673 245.754 516.399 245.433 516.211C245.112 516.012 244.739 515.913 244.314 515.913C243.871 515.913 243.488 516.017 243.167 516.225C242.856 516.433 242.615 516.716 242.445 517.074C242.285 517.424 242.205 517.825 242.205 518.278C242.205 518.797 242.299 519.236 242.488 519.595C242.686 519.954 242.946 520.223 243.266 520.402C243.587 520.581 243.932 520.671 244.3 520.671ZM249.155 521.804V511.892H250.656V521.804H249.155ZM254.8 521.974C254.224 521.974 253.729 521.856 253.313 521.62C252.898 521.374 252.577 521.025 252.35 520.572C252.124 520.109 252.011 519.557 252.011 518.915V514.781H253.497V518.717C253.497 519.34 253.639 519.826 253.922 520.175C254.215 520.525 254.64 520.699 255.197 520.699C255.772 520.699 256.225 520.51 256.556 520.133C256.886 519.746 257.051 519.217 257.051 518.547V514.781H258.552V521.804H257.108L257.08 520.756C256.844 521.143 256.523 521.445 256.117 521.662C255.72 521.87 255.281 521.974 254.8 521.974ZM262.806 521.804C262.107 521.804 261.569 521.634 261.191 521.294C260.814 520.954 260.625 520.397 260.625 519.623V516.041H259.563V514.781H260.625V513.081H262.126V514.781H263.91V516.041H262.126V519.623C262.126 519.982 262.206 520.223 262.367 520.345C262.527 520.468 262.777 520.529 263.117 520.529H263.91V521.804H262.806ZM265.965 513.549C265.691 513.549 265.455 513.454 265.257 513.266C265.068 513.067 264.974 512.827 264.974 512.543C264.974 512.27 265.068 512.038 265.257 511.85C265.455 511.661 265.691 511.566 265.965 511.566C266.248 511.566 266.484 511.661 266.673 511.85C266.871 512.038 266.97 512.27 266.97 512.543C266.97 512.827 266.871 513.067 266.673 513.266C266.484 513.454 266.248 513.549 265.965 513.549ZM265.215 521.804V514.781H266.716V521.804H265.215ZM271.62 521.974C270.941 521.974 270.327 521.827 269.78 521.535C269.242 521.233 268.812 520.803 268.491 520.246C268.18 519.689 268.024 519.033 268.024 518.278C268.024 517.523 268.184 516.871 268.505 516.324C268.836 515.776 269.275 515.356 269.822 515.064C270.379 514.762 270.997 514.611 271.677 514.611C272.357 514.611 272.97 514.757 273.518 515.05C274.065 515.342 274.504 515.762 274.835 516.31C275.165 516.857 275.33 517.513 275.33 518.278C275.33 518.995 275.17 519.633 274.849 520.19C274.537 520.746 274.103 521.185 273.546 521.506C272.989 521.818 272.347 521.974 271.62 521.974ZM271.635 520.671C272.05 520.671 272.418 520.567 272.739 520.359C273.069 520.152 273.329 519.869 273.518 519.51C273.707 519.142 273.801 518.726 273.801 518.264C273.801 517.792 273.707 517.381 273.518 517.032C273.338 516.673 273.088 516.399 272.767 516.211C272.446 516.012 272.074 515.913 271.649 515.913C271.205 515.913 270.823 516.017 270.502 516.225C270.19 516.433 269.95 516.716 269.78 517.074C269.619 517.424 269.539 517.825 269.539 518.278C269.539 518.797 269.633 519.236 269.822 519.595C270.02 519.954 270.28 520.223 270.601 520.402C270.922 520.581 271.266 520.671 271.635 520.671ZM276.531 521.804V514.781H277.975L278.003 515.814C278.239 515.427 278.565 515.13 278.98 514.922C279.405 514.715 279.853 514.611 280.325 514.611C281.147 514.611 281.812 514.87 282.322 515.389C282.832 515.899 283.086 516.664 283.086 517.683V521.804H281.586V517.867C281.586 517.235 281.444 516.749 281.161 516.409C280.878 516.06 280.453 515.885 279.886 515.885C279.329 515.885 278.881 516.079 278.541 516.466C278.201 516.843 278.032 517.367 278.032 518.037V521.804H276.531Z" fill="black"/>
<circle cx="136.818" cy="528.474" r="3.05982" fill="#00A2FF"/>
</svg>
