<svg width="22" height="20" viewBox="0 0 22 20" fill="none" xmlns="http://www.w3.org/2000/svg">
<path d="M17.25 19.5C17.4489 19.5 17.6397 19.421 17.7803 19.2803C17.921 19.1397 18 18.9489 18 18.75C18 18.5511 17.921 18.3603 17.7803 18.2197C17.6397 18.079 17.4489 18 17.25 18H4.25C4.05109 18 3.86032 18.079 3.71967 18.2197C3.57902 18.3603 3.5 18.5511 3.5 18.75C3.5 18.9489 3.57902 19.1397 3.71967 19.2803C3.86032 19.421 4.05109 19.5 4.25 19.5H17.25Z" fill="white"/>
<path d="M14.3877 7.16989L9.87939 4.5405C9.68943 4.4298 9.47364 4.37115 9.25378 4.37049C9.03392 4.36982 8.81778 4.42716 8.62716 4.53671C8.43654 4.64626 8.27818 4.80415 8.16807 4.99445C8.05796 5.18474 7.99998 5.40072 8 5.62058V10.8794C8.00029 11.0992 8.05847 11.315 8.16869 11.5051C8.27891 11.6953 8.43728 11.8531 8.62786 11.9626C8.81844 12.0721 9.0345 12.1294 9.25429 12.1289C9.47408 12.1283 9.68985 12.0699 9.87988 11.9594L14.3877 9.32956C14.5764 9.21944 14.733 9.0618 14.8418 8.87233C14.9506 8.68287 15.0078 8.4682 15.0078 8.24972C15.0078 8.03124 14.9506 7.81658 14.8418 7.62711C14.733 7.43765 14.5764 7.28001 14.3877 7.16989ZM9.5 10.4443V6.05563L13.2617 8.24997L9.5 10.4443Z" fill="white"/>
<path d="M17.75 0H3.75C2.75577 0.00108524 1.80257 0.396522 1.09955 1.09955C0.396522 1.80257 0.00108524 2.75577 0 3.75V12.75C0.00108524 13.7442 0.396522 14.6974 1.09955 15.4005C1.80257 16.1035 2.75577 16.4989 3.75 16.5H17.75C18.7442 16.4988 19.6974 16.1034 20.4004 15.4004C21.1034 14.6974 21.4988 13.7442 21.5 12.75V3.75C21.4988 2.7558 21.1034 1.80265 20.4004 1.09964C19.6974 0.396634 18.7442 0.00116977 17.75 0ZM20 12.75C19.9993 13.3465 19.762 13.9184 19.3402 14.3402C18.9184 14.762 18.3465 14.9993 17.75 15H3.75C3.15346 14.9993 2.58154 14.7621 2.15973 14.3403C1.73791 13.9185 1.50065 13.3465 1.5 12.75V3.75C1.50065 3.15346 1.73791 2.58154 2.15973 2.15973C2.58154 1.73791 3.15346 1.50065 3.75 1.5H17.75C18.3465 1.50074 18.9184 1.73802 19.3402 2.15982C19.762 2.58162 19.9993 3.15349 20 3.75V12.75Z" fill="white"/>
</svg>
