<svg width="50" height="50" viewBox="0 0 50 50" fill="none" xmlns="http://www.w3.org/2000/svg">
<rect width="50" height="50" rx="25" fill="white"/>
<path d="M25.0469 12.5C18.1562 12.5 12.5469 18.1094 12.5469 25C12.5469 27.2656 13.1719 29.3906 14.2656 31.2188L12.5 37.5L18.9375 35.7656C20.7031 36.7656 22.7969 37.4219 25.0469 37.4219C31.9375 37.4219 37.5469 31.8125 37.5469 24.9219C37.5469 18.0313 31.9375 12.5 25.0469 12.5ZM31.6719 29.9375C31.3906 30.7344 30.0156 31.4219 29.3594 31.4844C28.7656 31.5469 28.0156 31.5938 27.1875 31.2969C26.6719 31.1094 26 30.875 25.1562 30.4844C21.5781 28.9531 19.2656 25.4375 19.0781 25.1719C18.8906 24.9063 17.5469 23.1719 17.5469 21.375C17.5469 19.5781 18.4844 18.7031 18.8281 18.3281C19.1094 18.0156 19.5156 17.9063 19.8594 17.9063C19.9844 17.9063 20.0938 17.9063 20.1875 17.9063C20.5313 17.9063 20.7031 17.9219 20.9219 18.4531C21.2031 19.1563 21.9063 20.9531 21.9844 21.1094C22.0781 21.2656 22.1406 21.4531 22.0313 21.7188C21.9375 21.9844 21.8594 22.0781 21.6719 22.2969C21.4844 22.5156 21.2969 22.6875 21.1094 22.9219C20.9375 23.1094 20.7344 23.3125 20.9531 23.6563C21.1719 24 21.8906 25.1563 22.9531 26.0938C24.3125 27.2969 25.4375 27.6719 25.8281 27.8438C26.1094 27.9688 26.4531 27.9375 26.6875 27.6719C26.9688 27.3594 27.3281 26.8281 27.6875 26.3125C27.9531 25.9531 28.2969 25.9063 28.6406 26.0313C28.9844 26.1406 30.7656 27.0156 31.1406 27.2031C31.5156 27.3906 31.75 27.4688 31.8438 27.6094C31.9375 27.75 31.9375 28.4531 31.6719 29.9375Z" fill="#24283D"/>
</svg>
